<?xml version="1.0" encoding="UTF-8"?>
<svg id="Layer_2" data-name="Layer 2" xmlns="http://www.w3.org/2000/svg" viewBox="0 0 136.56 272.47">
  <defs>
    <style>
      .cls-1 {
        fill: #83ded8;
      }
    </style>
  </defs>
  <g id="Layer_1-2" data-name="Layer 1">
    <g>
      <g>
        <path class="cls-1" d="M53.01,266.69c-.52.2-.18.5-.23.6.82-.47.16-.69.23-.6Z"/>
        <polygon class="cls-1" points="60.85 261.85 60.79 262.08 61.77 261.08 60.85 261.85"/>
        <path class="cls-1" d="M68.15,257.47c-1.03-.11-2.53,1.76-3.97,2.33h-.3s-.29.84-.29.84c1.53-1.05,3.41-2.56,4.56-3.16Z"/>
        <path class="cls-1" d="M72.79,256.14c-.4-.06.67-.77-.92.55.1-.03.14-.04.2-.05.15-.11.36-.25.72-.5Z"/>
        <path class="cls-1" d="M72.07,256.64c-.74.53.63-.15,0,0h0Z"/>
        <path class="cls-1" d="M75.32,253.99l-.8.92c.3-.02,1.17-.64.93-.31.9-.86.59-.83-.13-.62Z"/>
        <path class="cls-1" d="M75.9,252.89l-.42.46c.13-.01.27-.09.42-.46Z"/>
        <path class="cls-1" d="M74.57,254.32l.9-.97c-.21.01-.36-.16-.43.43-.04-.23-.12.08-.48.54Z"/>
        <path class="cls-1" d="M73.91,254.68c-.63.28-1.37.72-.57-.2-1.74,1.46-1.19,1.66.57.2Z"/>
        <path class="cls-1" d="M68.1,256.61l-.84.32-.5.63c.25-.31,1.51-.79,1.34-.95Z"/>
        <path class="cls-1" d="M81.3,249.53c-.04-.16-.58-.04-.77-.13l-.56.7c.41-.21,1.13-.7,1.33-.57Z"/>
        <path class="cls-1" d="M80.53,249.4c.28-.34.55-.71.81-1.07-.87.78-.98.98-.81,1.07Z"/>
        <polygon class="cls-1" points="75.57 252.14 74.2 253.88 75.9 251.89 75.57 252.14"/>
        <polygon class="cls-1" points="85.01 246.11 84.7 246.88 85.31 245.58 85.01 246.11"/>
        <path class="cls-1" d="M87.32,243.7c-.18.6.88-.2.6.35.6-.69.97-1.42,1.29-2.07-.43.62-1.01,1.16-1.89,1.72Z"/>
        <path class="cls-1" d="M89.77,240.9c-.2.32-.36.7-.56,1.08.23-.32.42-.68.56-1.08Z"/>
        <path class="cls-1" d="M83.02,246.86c.14,0,.44.04,1.05-.39l-.67.04c-.12.11-.25.23-.38.35Z"/>
        <path class="cls-1" d="M83.38,246.52h.02c.42-.38.71-.63.83-.75-.11.09-.37.32-.85.75Z"/>
        <path class="cls-1" d="M82.92,246.95s.06-.06.1-.09c-.07,0-.1.01-.1.09Z"/>
        <path class="cls-1" d="M78.45,250.25c.43-.68,1.48-1.9.07-1.18-.23.58.58.16-.07,1.18Z"/>
        <path class="cls-1" d="M82.09,246.99l-1.08.87c.1.07.39.02.19.36l.89-1.24Z"/>
        <polygon class="cls-1" points="82.5 246.43 82.09 246.99 82.49 246.67 82.5 246.43"/>
        <path class="cls-1" d="M87.83,242.35c.28-.56.75-1.03,1.22-1.6-.6.53-1.22,1.07-1.76,1.63.02.17-.05.59.54-.03Z"/>
        <path class="cls-1" d="M85.67,244.38s.05-.08.08-.11c-.08.03-.14.07-.08.11Z"/>
        <polygon class="cls-1" points="93.89 235.29 93.76 235.33 93.79 235.39 93.89 235.29"/>
        <path class="cls-1" d="M87.14,242.43c-.48.37-.65.7-.8,1.03.28-.35.59-.71.95-1.07,0-.08-.03-.11-.15.04Z"/>
        <path class="cls-1" d="M91,239.25c-.28.17-.57.38-.87.61.3-.13.88-.46.87-.61Z"/>
        <path class="cls-1" d="M85.98,244.21s-.03.05-.05.08c.2-.07.15-.09.05-.08Z"/>
        <path class="cls-1" d="M85.98,244.21c.17-.26.27-.51.37-.75-.23.28-.44.56-.6.81.07-.03.16-.05.22-.06Z"/>
        <path class="cls-1" d="M93.18,231.85c.24.33-.47,1.75-1.65,2.5-.61,1.2.92,1.4,2.22.97-.11-.14-.23-.25.47-1.45-.47.23-2.32,2-1.86.88,1-1.51,1.05-1.04,1.77-1.58-.86.25.91-2.21.09-2.37l-.8,1.37c-.11-.05.12-.6-.24-.33Z"/>
        <path class="cls-1" d="M92.03,237.29l-.34.45c.48-.44.92-.66,1.7-1.12.46-.85.47-1.09.41-1.23-.61.7-1.2,1.41-1.85,2.08l.08-.18Z"/>
        <path class="cls-1" d="M89.99,239.62c-.02-.62.75-1.74-.15-1.44-1.08,1.24-.51,1.1-1.03,1.96,1.71-2.05-.34.73,1.13-.53-.3.44-.6.81-.88,1.15.36-.32.72-.62,1.07-.89-.02.01-.04.02-.06.03h0s0,0,0,0c-.12.05-.17.06-.06-.02,0-.01.02-.04.03-.05-.03-.05-.04-.13-.04-.2.58-.52.16-.02.04.2,0,.02.01.05.03.07h.01s1.62-2.15,1.62-2.15c-.42.38-.89.92-1.7,1.88Z"/>
        <path class="cls-1" d="M78.98,247.46c.09-.02.11,0,.13.02.1-.15.12-.22-.13-.02Z"/>
        <path class="cls-1" d="M79.96,246.93c-.1.17-.09.42-.6.8-.5.25-.13-.16-.25-.24-.21.33-.8,1.09.24.48l.1-.17c.9-.59,2.25-1.15,2.16-.98-.49-.07-.88-.09-1.65.11Z"/>
        <path class="cls-1" d="M85.03,243.28l1.4-1.73-1.05.54.2.12c-.94.83-.56.84-.55,1.07Z"/>
        <polygon class="cls-1" points="94.22 235.23 94.38 235.75 94.71 234.34 94.22 235.23"/>
        <path class="cls-1" d="M96.03,232.96l.24.33c.1-.25.21-.49.3-.74-.17.14-.36.28-.54.41Z"/>
        <path class="cls-1" d="M121.25,82.31l-.38-.52c.16.25.28.41.38.52Z"/>
        <path class="cls-1" d="M123.1,86.49l.22.03c-.18-.15-.29-.2-.22-.03Z"/>
        <path class="cls-1" d="M129.11,170.62c.64-.79,1.52-1.65,1.05-1.67l-.5.15c-.13.66-.33,1.13-.55,1.51Z"/>
        <path class="cls-1" d="M133.55,122.66c-.04.09-.08.19-.13.28.15.22.29.43.42.62-.09-.27-.19-.58-.3-.9Z"/>
        <path class="cls-1" d="M131.72,122.08l.19-1.23c-.08.28-.14.68-.19,1.23Z"/>
        <path class="cls-1" d="M107.79,61.39c-.26-.11-.52-.21-.8-.31.71.9.57.37.8.31Z"/>
        <path class="cls-1" d="M112.4,208.33c.54-.63.92-1.17,1.22-1.66-.7.74-1.41,1.26-1.22,1.66Z"/>
        <path class="cls-1" d="M126.22,82.02c-.23-.34-.39-.45-.47-.4.25.34.4.53.47.4Z"/>
        <path class="cls-1" d="M114.76,204.6c-.11.11-.2.22-.3.33-.23.56-.47,1.12-.85,1.74.52-.55,1.02-1.23,1.15-2.07Z"/>
        <path class="cls-1" d="M33.28,12.07c-.06-.04-.13-.07-.18-.11-.04.05.05.08.18.11Z"/>
        <path class="cls-1" d="M8.13,1.65c.27.02.7.09,1.1.16-.19-.06-.52-.12-1.1-.16Z"/>
        <path class="cls-1" d="M103.17,223.75c-.34.52-.02.11,0,0h0Z"/>
        <path class="cls-1" d="M100.04,225.17c.04-.13.04-.25-.03-.32.06.1.06.21.03.32Z"/>
        <path class="cls-1" d="M115.16,197.97s.02-.03.03-.05c-.16.12-.13.1-.03.05Z"/>
        <path class="cls-1" d="M102.47,224.39c.18-.16.37-.35.56-.56-.1.08-.28.25-.56.56Z"/>
        <path class="cls-1" d="M102.71,224.4c-.14.16-.25.29-.35.41.01.1.09.08.35-.41Z"/>
        <path class="cls-1" d="M103.63,223.03c-.19.29-.38.56-.6.8.09-.08.14-.11.14-.07.1-.15.23-.37.46-.72Z"/>
        <path class="cls-1" d="M77.98,31.67s-.06-.07-.08-.11c-.6-.19-.36-.07.08.11Z"/>
        <path class="cls-1" d="M128.81,154.25s0,.04,0,.07c.01-.03.02-.06.03-.08h-.04Z"/>
        <path class="cls-1" d="M128.9,152.08c.36,1,.21,1.5-.04,2.15l1.36-.44-1.32-1.71Z"/>
        <path class="cls-1" d="M115.96,72.75l.45,1.47c-1.49-1.2-1.97-2.41-1.72-.95.62-.25,1.46.93,2.16,2.19.73,1.25,1.45,2.49,2.1,2.26l.22.99c-.12-.25-.22-.25-.34-.5.34,1.97,1.52.81,2.45,3.12.29.82.37,1.44-.03.99.37.53.79,1.04,1.13,1.59.2.52-.07.5-.27-.03l1.25,2.64h-.05c.36.29,1.04,1.04,1.35,1.42.11.76-.28-.29-.36-.05.33.45.6.93.9,1.39-.11.75-.85-.4-1.26-1.44-.67,1.89.8,1.13,1.21,4.46l-.69-1.37c-.4,1.19.34,2.18.38,3.96.17-.47,0-3.62.92-2.1.09.49.24,1.13.78,1.95-.46.16-.07,1,.3,2.1l-.64.11c.55,1.13.83.95,1.33,1.57.3,1.36-.12,1.77-.44,2.19.45,2.17.39-1.69,1.16.83.11.93.32,1.69.59,2.48.24.8.56,1.63.96,2.69.03,1.32-.43-.15-.52.34l.72,1.04c.04.28-.13.22-.22.19.38.92.64-.04,1.11,1.44.78.31-.6,3.27.44,5.04-.12.48-.42-.18-.65,0,.44,1.25.59,1.8.73,2.29.15.49.32.91.75,1.96l-.29,1.85c.38-1.37,1.08.3,1.64,1.81.22-.49.38-.91.46-1.2.19.8.32,1.61.44,2.43-.1.3-.32.06-.6-.33.06.16.11.32.16.44-.22.88-.6.43-.97-.17.13-.3.26-.59.38-.89-.38-.58-.89-1.12-1.24-.98.08.15.18.45.22.78-.11-.15-.21-.25-.27-.17-.07.08.08.33.25.72l-.7.57.29.12-.4,3.13c.19.56.4,1.1.61,1.66.2.56.37,1.13.55,1.74.34,1.23.63,2.64.7,4.45-.49-.92-.85-.24-1.46-.33.69-.94-.17-2.77.03-4.61-.11.96-.39.74-.49.49l.47,3.31c-.51-.1-.4.68-.66,1.52,1.06-.58.44,2.49.63,3.86-.34.05-.66-.3-.43-1.92-.91,1.72.96,2.43.16,4.14.03-.4.1-.61-.06-.79.25.97-.36,3.2-.55,2.63l.05-.4c-.24,1.31-.52,3.3-.65,5.04-.2,1.73-.23,3.21.15,3.48-.11,0-.94-.53-1.08-.72.63,1.72,1.34,3.49,1.87,5.25-.62-.56-2.68.63-2.59-1.61-.25.59-.54,1.32-.59,2.68.2-.39,1.27-.81,1.2-.22-1.16,1.4-.68,1-1.81,2.78.29-.59,1.26.39.97,1.38-.12-.2-1.12-.2-1.13-.59l.41,2.74c-.03-.67-.89-.36-1.35.11.28-.2-.6,2.11-.68,2.79l.54-.97c-.45,1.36-.29,2.15-.12,2.95.18.8.36,1.6-.1,2.96-.11-.41-1.1-1.25-1.68.08.17.41.61,1.33.94,2.47.31,1.14.52,2.5.29,3.79l-.48.35-.32,1.98c-.4-1.47-.94-5.3-1.01-7.26-.59.94-.46.16-.97,1.68-.48.43-.15-.98,0-1.43l-1.45,3.44c.69.07-.33,2.92.23,2.99l.73-4.06c.67.06,1.03,2.88-.06,5.33-.5.53-.93-.9-1.16-.93.09.4-.53,2.5-.77,2.67l.09-1.18c-.78,1.27-.07,2.58-1.33,3.98-.29.55-1.53,1.33-1.21,1.59,1.11-.61,3.37.13,3.63.98-.14.18-1.99,2.7-2.62,3.19-.96.68-.69-1.99-1.51-1.41.15.11.13.71.11.96-.41.53-.4-.48-.91.83.52.5-1.29,2.55.24.84-.42,1.32-.76,1.26-1.43,2.73.62-.28.73,1.97.28,3.3-.12-.15-.46.03-.62.11-1.37,2.48-2.3,3.71-3.58,6.02-.26.13-1.05,1.15-1.05.54-.08.39-.04.81-.42,1.52-1.27,1.09.8-1.63-.4-.92.29.28-.52,2.11-.9,3.23.73,0,1.42-2.28,1.76-3.41.72.39.58,2.63-.52,5.21-.94,2.01-.96.55-1.05.94-2.21,3.5-.59,3.79-2.92,6.41-1.18.87-.93-.53-1.42-.48.78-1.63,1.75-2.15,2.38-3.19l-1.01,1.13c.15-.58.67-1.66,1.15-2.13-.51.36-1.46,1.82-2.53,3.5-1.06,1.69-2.38,3.52-3.43,4.73-.16.57-.57,1.48-.12,1.23l.5-.88c.88-.53-.57,1.92.31.97-.52,1.29-1.04,2.8-2.36,4.22l-.7-.07c.17.07,1.03-.8,1.19-1.35-.25.81-2.37,1.89-2.28,3.05l1.16-.81c-.58,1.27-1.11,3.01-2.31,4.25.95-.24.19-.35,1.49-.88-1.34.3,2.71-3.45.93-2.66,1.41-.5,1.54-1.54,3.07-2.45-.19-.08-.65.24.27-.86-.01-.09.02-.25.04-.36.03-.03.04-.04.07-.07-.02.02-.04.03-.07.05.01-.07,0-.08-.02.02-.27.23-.52.39-.68.42.02-.42.36-1.09.73-1.75.35-.67.73-1.34.84-1.72.55-.65,0,.42.43.16l.34-1.15c.44.16,1.88-1.46.98.35l1.02-1.49c.8-.75,1.65-1.95,1.97-2.81.54-.67.72-2.08.63-1.27.43-.84.83-1.7,1.23-2.56l.11.03c.73-1.19,1.31-2.51,1.96-3.85.64-1.34,1.38-2.68,2.51-3.88.36-.87.66-1.81,1.5-3.14l.49-.09c.43-1.14,2.03-3.03,1.87-3.7,1.48-.73,2.79-5.17,3.77-7.06l-.43-.28c.61-1.33,1.06-2.66,1.58-4.41l-.45-.07c.24-1.59,1.79-3.6,2.66-5.91.1.22-.18.78-.44,1.16,1.04-1.18,1.36-2.73,1.68-4.23.3-1.51.61-2.97,1.34-4.14.05-.69.25-1.13.5-1.54-.02.06-.03.11-.03.17.03-.06.06-.16.09-.26.16-.26.34-.52.51-.81-.19.23-.36.46-.47.67.15-.49.33-1.25.46-2.02l.56-.17c.01-.06.03-.11.04-.17.4-.67-.03-.64-.5-.37.04-.39.06-.75.03-1.05.91-.37.28-2,1.3-2.58-.26-.61.75-3.78,0-4.39.11,0,.22-.2.13.2.29-.8.57-1.61.51-2.41l.68-.21-.38-1.99c.62-1.01.94-1.43,1.14-.24-.12-2.8.16-2.22-.1-4.61l.37.18c.14-.81-.14-2.19.27-2.62.55-.84.85-3.1,1.25-5.71.22-1.3.31-2.71.5-4.08.17-1.37.4-2.7.65-3.87-1.2.85.61-2.18-.29-2.41.29-.26.47-.92.68-.14-.18-2.43.61-3.65-.2-5.33.27-.28.41.52.57.27-.06-.2-.25-.77-.09-1.03.16-.25.24.36.36.74-.08-2.5-.94-2.73-1.74-2.89.35-1.26.32-1.89-.29-2.76.23-.44.45-1.19.65.34-.02-.86,0-5.3-.64-5.33.16-.29-.06-1.21-.17-1.42-.21-1.92-.18-2.1-.48-3.98l-.04.54c-.88-.63-.33-1.54-.71-3.03l.09.03c-.12-3.55-.55-1.43-.59-4.96l-.43.29c-1.02-.1-.11-3.11-.99-4.98l-.09.77c-.31-.49-.16-1.31.05-2.17.18-.85.39-1.72.29-2.27.01-.26.25.32.42.63-.29-2.97-.71-.18-1.5-2.2.2-.49.98.23.6-1.19.08-.82-2.49-3.62-2.56-5.72-.09.51-.18,1.01-.71.14-.68-1.37-.74-4.22-2.04-5.16-.02-.21.01-.3.07-.34-.71-.97-2-3.28-2.71-3.71.53-.88-.56-2.38-1.56-3.75-.5-.68-.99-1.33-1.27-1.86-.3-.52-.39-.91-.05-1.1l-1.96-3.04h.18c-1.13-2.03-1.95-2.46-2.69-2.94-.21-.5.12-.26.21-.27-1.62-2.98-1.94-3.18-4.22-4.99l.22-.53c-.65-.45-2.4-4.33-5-6.47.06-.01.18-.02.41.13-1.47-1.19-2.64-3.12-3.87-4.64-1.21-1.52-2.33-2.74-3.44-2.58l-2.08-1.37c2.19,2.27-.88.24-.15,1.35-.96-.77-1.94-2.59-.77-1.61l.11.23c1.06-.3-2.61-2.94-2.16-3.33-4.64-4.15-9.18-8.26-13.99-11.61l.14.98-1.66-1.18c-.35-.44-.28-.88.91-.03-.4-.78-2.21-1.09-2.33-.97-2.25-1.76,1.41-.12.68-.6l-1.03-.59.18.21c-.98-.26-1.22-.04-2.68-1-.86-.71-.24-.69-.6-.94.03-.04-.08-.14-.56-.37-.72-.47-1.46-.9-2.19-1.35l.6,1.01c-1.13-.32-2.07-1.23-1.38-.08-.96-1.8-8.17-4.95-9.02-5.62-1.62-.31-3-1.05-4.76-1.87.39.31.38,1.01-1.11.26,1.1-.95-2.53-1.83-3.43-3.19.87,1.05-4.47-1.68-3.06-.11-1.25-.63.11-.5-.76-1.2-1.65-.36-3.34-1.08-5.1-1.88-1.78-.77-3.65-1.58-5.63-2.16-.12.15.46.61-.46.59l-1.81-1.48c-.8-.16-1.01.75-2.25-.28.16.2.39.51-.14.4-1.86-.79-3.82-1.37-5.78-1.94-1.98-.51-4-.96-6.01-1.41-4.04-.85-8.07-1.72-11.97-3.22,1.03.53.3.43-.54.3.53.17-.09.43-.02.68l-3.26-1.24c-.72.56-3.64-.5-4.08.07l1.09.05c-1.53.53,1.74,1.94,1.38,2.85,1.72-.61,3.93,1.93,6.71,1.19.53.3-.54.21-.28.49.72-.27,1.53-.2,2.94.27l-.18.07c2.05.34,3.49.74,4.97,1.2,1.48.46,3.02.96,5.24,1.68l-.22-.54c.96.31,1.12.5,1.55.73,1.29-.41-2.72-.73-1.51-1.24.53.64,2.25,1.05,3.89,1.53,1.64.48,3.23.97,3.51,1.62,1.48.43-.28-.66,1.2-.22l.3.41.48-.25c.95.36,1.32.87,1.28,1.12-.22-.1-.68-.14-.94-.2,1.14.73,3.55.97,3.94,1.23-.44-.22-.9-.41-1.35-.62,2.05.49,4.23,1.31,6.42,2.05,2.16.82,4.34,1.52,6.32,2.04l-.2-.33c3.02.82,2.22,1.13,5.41,2.34h-.13c.71.07,1.59.35,2.43.75-.89-.11,1.26,1.13.11.93,3.23,1.01,1.64.4,4.01.62l.3.56c.83.04.97-.11,2.54.58-1.38-.37.7,1.01-.87.65,2.75,2.4,5.08,1.74,5.91,3.62,1.93-.08-2.4-2.03-1.5-1.75-.52-.67,1.57-.03,2.48.64.97.61,1.05,2.08,3.48,3.56-.24-.16-.29-.1-.53-.25.77.79,1.96.82,2.85,1.87.96-.13,1.42.93,2.03.4-.76-.44-1.55-.84-2.32-1.26.69.31,1.45.45,2.28.74.81.31,1.68.76,2.57,1.64-.25.02-.97-.22-1.45-.4.46.6,1.23.65,1.71,1.27-.63.55-2.72-1.69-4.4-2.02.48.66,2.82,1.19,1.69,1.45,1.55-.25,2.25,1.68,4.3,2.12l-.38.31c.29.12.93.32,1.37.66l-1.18-.11c1.56.51,2.14,2.16,3.51,2.81-2.52-1.85-.22-.87-1.07-1.94,1.76.89,2.01,1.49,2.26,2.17.26.67.52,1.41,2.27,2.67-.5-.31-1.53-1.6-.68-1.19.58.6,1.32,1.41,1.54,1.93,2.21,1.81-.01-.66,1.09-.08.36,1.08,1.21.75,2.29,1.44l-.31.37c2.25,2.39,1.34-.18,3.24,2.11l-1.36-.37,1.23.93-.61.18c1.48.86,1.81,1.28,2.86,2.53-.02-.51.77-.47,1.79.57.48.91-.71-.08.77,1.35-.54-.13-1.16-.22-1.47-1.18-.18.04-.53-.12-.71-.07.5.99,1.8,1.96,2.32,2.49-.19-.22-.4-.48-.48-.65.86.55,1.7,1.12,2.52,1.72.18.47-.18.29-.53.11.44.41.88.58,1.5,1.21-.45.09-.71.4-1.68-.41l2.2,1.82c0,.25.61,1.39.25,1.21.8,1.36,3.03,2.47,4.06,4.29.12.04.31.17.62.49,1.08,1.63,1.78,3.24,3.49,4.87l.15,1.48c1.15,1.41-.26-1.96,1.65.39,1.38,1.66-.07.99.18,1.73.85.71,2.44,1.91,2.97,3.88-.45-.49-.63-.97-.99-1.46ZM125.77,92.75c-.25-.37-.84-1.07-.68-1.47.69.27.58.72.68,1.47ZM132.67,126.02c-.16-.32-.09-.83.08-1.4.05.41.03.88-.08,1.4ZM106.57,217.93s0-.03,0-.05c.69-.74.44-.48,0,.05ZM105.27,219.56c-.06.21,0,.23.11.2-.02-.19.23-.58.55-1-.19.05-.41.23-.66.8ZM74.29,25.44l.28.32c-.84-.37-.56-.34-.28-.32Z"/>
        <path class="cls-1" d="M131.93,122.16c.07-.13.16-.16.25-.2-.09-.17-.19-.17-.25.2Z"/>
        <path class="cls-1" d="M107.93,61.44l-.04-.06s-.08-.01-.11,0l.15.06Z"/>
        <path class="cls-1" d="M116.94,189.83c.23-.35.41-.53.55-.63-.1-.07-.27.06-.55.63Z"/>
        <path class="cls-1" d="M99.61,229.03c.24-.38.48-.75.7-1.14-.35.54-.59.65-.85.87.11.04.39-.06.15.28Z"/>
        <path class="cls-1" d="M90.05,236.05c-.08.18-.27.31-.35.49l.2.11c.54-.62.78-1.16.15-.6Z"/>
        <path class="cls-1" d="M97.58,229.03c-.39-.16-.78.57-1.29,1.35.03-.04.06-.09.1-.13.28.57.74-.33,1.19-1.22Z"/>
        <path class="cls-1" d="M96.17,230.56c-.16.24-.33.47-.51.68.11.23.25-.25.51-.68Z"/>
        <path class="cls-1" d="M104.02,221.89c-.33.31.27.52,0,.64.15.7,1.12-2.79,0-.64Z"/>
        <polygon class="cls-1" points="96.07 228.81 96.66 228.85 96.66 228.2 96.07 228.81"/>
        <path class="cls-1" d="M100.67,223.19l-.97,1.11c.08.03.01.21-.09.42.54-.73,1.2-1.47,1.06-1.53Z"/>
        <path class="cls-1" d="M99.61,224.72c-.28.38-.54.75-.62,1.01.14-.21.45-.67.62-1.01Z"/>
        <path class="cls-1" d="M97.17,227.13l.35-.28c.23-.26.43-.54.64-.81-.32.37-.65.74-.99,1.09Z"/>
        <path class="cls-1" d="M109.27,209.94l.69-1.45c-.07-.23-.38.1-.62.65-.09.39-.34.94-.07.81Z"/>
        <path class="cls-1" d="M105.61,213.38c.32-.31.43-.28.7-.4l-.5-.36-.19.76Z"/>
        <path class="cls-1" d="M107.87,209.32c-.07-.22.74-2.24-.25-.48.07.22-.62,1.67.25.48Z"/>
        <polygon class="cls-1" points="119.49 188.27 119.33 188.64 120.28 189 119.49 188.27"/>
        <path class="cls-1" d="M124.59,167.68c-.8,1.71.46.61-.34,2.13.1.49.66-1.24.72-.75.1-1.15.42-1.68-.38-1.38Z"/>
        <path class="cls-1" d="M124.97,169.06c-.02.18-.03.38-.03.6.04-.33.04-.49.03-.6Z"/>
        <polygon class="cls-1" points="3.76 .39 2.57 0 3.31 .46 3.76 .39"/>
        <path class="cls-1" d="M1.31.79l-.2-.69-.81.47c.28.01.82.04,1.01.21Z"/>
        <path class="cls-1" d="M125.56,96.29l.18.04c.11-.23.04-.49-.1-1.03l-.07.99Z"/>
        <polygon class="cls-1" points="120.02 81.24 120.13 81.5 120.43 80.77 120.02 81.24"/>
        <path class="cls-1" d="M112.72,69.9c.3.46.72.95,1,1.43-.7-.97-.47-1.96-1-1.43Z"/>
      </g>
      <g>
        <path class="cls-1" d="M58.59,263.54c-.06.01.24.3.29.36,0-.13-.36-.44-.29-.36Z"/>
        <polygon class="cls-1" points="58.54 262.24 58.65 262.37 58.45 261.98 58.54 262.24"/>
        <path class="cls-1" d="M59.12,261.67c-.57-.44-.12.29-.41.21l-.13-.1.36.45c.06-.19-.05-.62.18-.57Z"/>
        <path class="cls-1" d="M60.54,262.43c-.22-.17-.11-.23-.14.01.03.02.04.02.06.04,0-.02.03-.03.07-.05Z"/>
        <path class="cls-1" d="M60.47,262.48c-.05.08.21.12,0,0h0Z"/>
        <path class="cls-1" d="M60.63,262.07l.1.26c.14.09.23.04.29.15-.02-.18-.16-.27-.4-.41Z"/>
        <path class="cls-1" d="M60.33,261.63l.04.12c.06.04.09.04-.04-.12Z"/>
        <path class="cls-1" d="M60.44,262l-.08-.25c-.1-.07-.27-.22.02.1-.15-.15-.02,0,.06.15Z"/>
        <path class="cls-1" d="M60.31,261.97c-.16-.06-.28-.06-.39-.32-.08.22.31.55.39.32Z"/>
        <path class="cls-1" d="M58.62,261.13l-.21-.09.12.22c-.06-.11.25.02.09-.13Z"/>
        <path class="cls-1" d="M61.39,261.78c-.11-.11-.33-.24-.48-.37l.07.18c.11.04.23.04.4.19Z"/>
        <path class="cls-1" d="M60.91,261.42l-.11-.27c-.1.06-.02.16.11.27Z"/>
        <polygon class="cls-1" points="59.76 261.08 60.02 261.61 59.78 261.05 59.76 261.08"/>
        <polygon class="cls-1" points="61.73 261.43 61.95 261.72 61.64 261.27 61.73 261.43"/>
        <path class="cls-1" d="M61.9,261.14c.18.23.42.27.52.43.02-.1-.12-.32-.24-.52.05.14-.03.17-.28.09Z"/>
        <path class="cls-1" d="M62.01,260.75c.03.07.1.18.17.3-.03-.07-.07-.16-.17-.3Z"/>
        <path class="cls-1" d="M61.01,261.04c.07.05.27.2.39.21l-.35-.25-.04.03Z"/>
        <path class="cls-1" d="M61.03,261h.01s.08-.05.09-.06c-.01,0-.04.02-.1.06Z"/>
        <path class="cls-1" d="M61,261.04h0s-.05-.04,0,0Z"/>
        <path class="cls-1" d="M60.26,261.1c-.13-.22-.22-.5-.58-.64.18.24.39.31.58.64Z"/>
        <path class="cls-1" d="M60.56,260.73l-.16.03c.09.07.22.17.29.27l-.13-.31Z"/>
        <polygon class="cls-1" points="60.5 260.59 60.56 260.73 60.62 260.72 60.5 260.59"/>
        <path class="cls-1" d="M61.55,260.67c-.1-.17-.07-.22-.05-.3-.11,0-.2.03-.25.09.09.1.25.28.3.21Z"/>
        <path class="cls-1" d="M61.27,260.8v-.03s-.06-.02,0,.03Z"/>
        <path class="cls-1" d="M61.96,259.83s-.05-.03-.07-.04l.05.05h.01Z"/>
        <path class="cls-1" d="M61.19,260.42c-.1-.01-.04.08.03.19,0-.06,0-.11.04-.15-.04-.04-.07-.07-.07-.04Z"/>
        <path class="cls-1" d="M61.99,260.47c-.09-.03-.17-.06-.24-.08.12.07.32.16.24.08Z"/>
        <path class="cls-1" d="M61.36,260.84v.02c.09.05.05.02,0-.02Z"/>
        <path class="cls-1" d="M61.36,260.84c-.03-.06-.09-.15-.14-.23,0,.05.01.1.04.17.03.02.07.04.1.06Z"/>
        <path class="cls-1" d="M59.98,257.92c.3.26.49.61.09.43.15.29,1.2,1.06,1.83,1.44-.13-.11-.25-.22-.35-.47-.2-.1-.57-.1-.78-.41-.05-.26.2-.02.41.05-.42-.26-.42-.62-1-1.06l.11.28c-.09-.07-.19-.23-.3-.26Z"/>
        <path class="cls-1" d="M61.7,259.96v.07c.1,0,.24.06.53.2-.09-.2-.19-.3-.29-.39l-.21.17-.03-.05Z"/>
        <path class="cls-1" d="M61.55,260.22c-.3-.31-.36-.53-.76-.77-.08.14.2.32.28.51.09-.26.13.21.44.23.02.09,0,.13,0,.18.07,0,.15,0,.24.03h-.02s0-.01,0-.01h0s-.08-.05-.04-.04c0,0,0,0,0,0-.04-.04-.08-.08-.12-.11.12,0,.09.06.12.11l.05.04h0s-.01-.35-.01-.35c-.08,0-.11.07-.15.19Z"/>
        <path class="cls-1" d="M59.08,259.74s.06.04.08.06c-.03-.05-.05-.08-.08-.06Z"/>
        <path class="cls-1" d="M59.34,259.84c.03.05.15.18.08.19-.13-.05-.15-.14-.26-.23.06.1.15.3.38.36l-.03-.05c.18.03.66.29.7.34-.31-.24-.53-.4-.86-.61Z"/>
        <path class="cls-1" d="M60.36,259.96l-.02-.3-.35-.17.17.14c-.15.03.08.19.2.32Z"/>
        <polygon class="cls-1" points="62.14 259.95 62.47 260.26 62.06 259.75 62.14 259.95"/>
        <polygon class="cls-1" points="62.28 259.69 62.57 259.95 62.44 259.74 62.28 259.69"/>
        <path class="cls-1" d="M65.41,244.3l-.09-.09s.05.07.09.09Z"/>
        <path class="cls-1" d="M65.25,244.68l.18.08c-.09-.06-.17-.09-.18-.08Z"/>
        <path class="cls-1" d="M66.2,254.02c.36.11.91.31.52.09l-.39-.2c.03.1-.03.11-.13.1Z"/>
        <path class="cls-1" d="M66.04,248.75s-.09-.02-.13-.03c.13.08.24.16.35.23-.07-.06-.14-.13-.22-.2Z"/>
        <path class="cls-1" d="M64.44,247.95l.3.02c-.1-.02-.2-.02-.3-.02Z"/>
        <path class="cls-1" d="M65.66,242.03l-.41-.19c-.03.1.2.12.41.19Z"/>
        <path class="cls-1" d="M63.9,257.32c.18.03.28.02.33,0-.26-.07-.61-.22-.33,0Z"/>
        <path class="cls-1" d="M69.69,246.01c-.06-.06-.14-.11-.23-.14.06.06.13.11.23.14Z"/>
        <path class="cls-1" d="M64.37,257.12s-.07-.02-.11-.02c.03.09.04.17-.03.21.19.05.33.05.14-.19Z"/>
        <path class="cls-1" d="M67.52,234.18s.03,0,.05-.01c-.06,0-.06,0-.05.01Z"/>
        <path class="cls-1" d="M72.03,231.94s.03.07.03.11c.03-.02.03-.05-.03-.11Z"/>
        <path class="cls-1" d="M63.14,258.93c-.02.06.03.04,0,0h0Z"/>
        <path class="cls-1" d="M61.61,258.09s-.07-.09-.15-.15c.08.07.13.12.15.15Z"/>
        <path class="cls-1" d="M62.48,255.1h0c-.08-.04-.06-.03,0,0Z"/>
        <path class="cls-1" d="M62.93,258.88c.06.02.11.02.15.02-.03-.01-.08-.02-.15-.02Z"/>
        <path class="cls-1" d="M63.09,258.99s-.05.01-.07.01c.05.05.09.07.07-.01Z"/>
        <path class="cls-1" d="M63.17,258.85s-.05.04-.1.05c.03,0,.05.02.06.03,0-.02.01-.04.03-.08Z"/>
        <path class="cls-1" d="M68.05,238.7s.02,0,.04,0c-.17-.09-.14-.06-.04,0Z"/>
        <polygon class="cls-1" points="63.02 250.51 63.04 250.52 63.05 250.52 63.02 250.51"/>
        <path class="cls-1" d="M62.83,250.18c.44.33.36.34.23.34l1.13.54-1.35-.88Z"/>
        <path class="cls-1" d="M65.61,243.33h-.41c-.56-.35-.31-.39-.87-.44,1.28.44-.04.52,1.24.98h-.3s-.05-.06-.03-.08c-.67-.05.89.44.63.59-.12.04-.33.02-.46-.08l.26.28s-.26-.05-.22-.09l.02.29-.04-.02c.19.11.47.3.59.39-.21,0-.12-.08-.29-.12l.26.26c-.35-.07-.63-.3-.55-.38-1.32-.35.28.24-.57.23l-.11-.19c-.75-.19-.53,0-1.04-.03.25.06,1.24.15,1.5.42-.11,0-.18.04.04.22-.45-.17-.37-.05-.38.05l-.59-.24c.13.17.44.28.68.45-.11.09-.57-.07-.97-.2-.17.15.79.17.81.44-.29.06-.09.27.19.6-.25.02-.35-.17-.54-.2l.43.3s-.16-.05-.23-.08c.15.16.59.26.69.46.64.32-1.06-.15-.4.33-.18-.03-.35-.18-.58-.27.38.43.26.34.83.81l-.45-.02c.49.09.94.47,1.3.79.23.06.43.11.53.12l.22.35c-.11-.02-.3-.13-.52-.28.04.04.08.07.12.1-.25-.03-.56-.22-.86-.42.13.03.26.06.39.09-.33-.21-.7-.44-1.04-.59.06.04.11.1.13.14-.09-.06-.17-.1-.23-.13-.06-.02.05.06.19.16l-.67-.26.25.13-.52.07c.56.49,1.44,1.12,1.56,1.55-.43-.31-.76-.39-1.31-.67.63.21-.14-.35.05-.44-.1.05-.36-.1-.44-.16l.41.53c-.45-.23-.37-.11-.59-.14.92.39.49.49.71.74-.3-.15-.6-.33-.46-.42-.75-.2.95.72.3.57,0-.04.06-.03-.08-.12.23.21-.08.29-.32.11v-.04c-.21.16-.33.64.4,1.08-.09-.06-.88-.52-1.03-.61l2.31,1.76c-.62-.39-2.21-1.1-2.48-1.47-.12,0-.25,0-.09.23.11.02.97.43,1,.51-.79-.27-.43-.12-1.13-.31.17.03,1.13.64,1.05.71-.14-.1-.99-.55-1.07-.64l.86.76c-.15-.15-.82-.48-1.12-.6.2.09-.12.16-.05.27l.27.05c-.28.14,1.23,1.02,1.05,1.22-.18-.15-1.19-.8-1.38-.76.47.34,2.24,1.66,2.49,2.11l-.3-.13.22.36c-.67-.56-2.07-1.79-2.59-2.29-.27-.05-.35-.18-.39-.04-.29-.12-.36-.31-.36-.36l-.34.18c.58.34.44.57.92.86l-.41-.68c.58.33,1.53,1.19,1.28,1.33-.26-.09-.99-.67-1.18-.79.18.15.25.43.1.36l-.25-.28c-.29-.03.63.66,0,.45-.07.02-.82-.33-.49-.11.69.34,2.7,1.61,3.15,1.98-.06,0-.79-.14-1.14-.29-.55-.25-1.12-.91-1.6-1.12.15.1.31.27.36.33-.16-.04-.46-.33-.46-.18.56.39-.19.18.45.37.09.21-.19.03-.25.17.39.21,1.17.95,1.26,1.17-.14-.1-.34-.21-.43-.25-.19.19-.54.12-.68.31-.15-.08-.38-.1-.59-.31.08.1.25.26.22.33-.56-.23.02-.19-.62-.51.32.24.33.47.47.7.51.33.24-.13.1-.36.69.49,1.3,1.15,1.45,1.6.04.29-.49-.25-.42-.15-.35.23.98,1.15.3,1.05-.51-.22-.86-.64-1.18-.85-.06-.26.42,0,.48-.11l-.29-.04c-.11-.15-.15-.32,0-.28-.45-.21-.45.48-.99.43.11.15.2.34.4.44v-.12c.4.2.36.51.6.54.16.29.44.7.14.69l-.5-.36c.14.11.36.14.25-.02.16.23-.82-.3-.25.26l.41.17c.16.29.56.83.31.84.52.32-.03-.07.59.28-.75-.47.3-.31-.53-.76.72.42.4.06,1.05.37-.16-.12-.34-.2-.17-.24-.04-.04-.09-.1-.12-.13h.02s-.02,0-.02,0c-.02-.02-.02-.03,0,0-.09-.03-.19-.07-.29-.13-.32-.34-.17-.5-.32-.7.13,0,.16.17.36.27l-.22-.31c.36.27.72.28.82.59l.12-.13c.26.07.43.01.33-.17.13,0-.27-.47-.04-.2l-.06-.39.09.06c.21-.19-.28-.88.57-.66-.04-.14-.1-.29.1-.35l.34.2c-.04-.17.52-.08.21-.35.94.48.51-.36.77-.43l-.42-.29c.1-.1.06-.3-.02-.55l-.38-.23c-.23-.32.48-.15.57-.38.14.1.07.13-.05.11,1.02.29-.32-.9.45-.74-.11-.14-.04-.15.08-.13,0,0,0,.01.01.03,0,0,.01-.01.02-.02.08.01.17.03.25.04-.11-.03-.2-.06-.24-.06.02-.05,0-.14-.05-.26l.43.22s0-.01,0-.02c.19.03-.17-.17-.5-.32-.05-.07-.11-.15-.2-.23.7.34-.13-.3.63.05-.32-.24-.08-.47-.8-.92.1.05.15.06.14.1.13-.02.25-.04.08-.22l.55.27-.63-.55c.38.09.59.15.95.47-.51-.58-.14-.32-.67-.85l.34.2c.02-.08-.39-.44-.08-.32.75.2.49-.72,1.33-.81-1.08-.44.57.04-.24-.37.26.1.43.11.61.28-.15-.33.54-.13-.08-.6.26.09.34.22.5.27-.05-.04-.19-.17-.03-.12.16.05.19.13.29.22.06-.24-.7-.62-1.41-.97.39.05.37-.03-.07-.32.25.07.53.12.55.29.07-.06.56-.3-.02-.57.16.04.09-.08.03-.13.11-.15.17-.14.19-.33h-.12c-.68-.37-.1-.2-.13-.37l.07.03c.64-.09-.19-.23.52-.29l-.45-.17c-.94-.42.67-.04.38-.36l-.28-.04c-.29-.23,1.41.25,1.57.2.09.01.12.09.17.14.67-.04-.57-.27-.63-.51.33.09.78.36.9.25.28.03-.87-.77-.2-.72-.26-.05-.52-.1-.67-.26-.04-.17,1.06-.04.33-.44.07,0,.14.02.2.04-.16-.18-.21-.46-.61-.67,1.6.44-.54-.91.91-.42l.04-.35.15.06c.17-.18-.17-.37-.49-.55.11-.02.24.06.31.09.39-.22.33-.27-.32-.75l.48.12c-.26-.15.88-.23.41-.69.05.02.14.05.2.09-.45-.49,1.56-.48-.16-1.06l-.38-.34c-.21.26-.75-.24-1.07-.19-.08-.14.6-.16.65,0h-.09c.9.28.41-.28,1.03-.12.09-.59.75-1.04.88-1.59l-.73-.08.08-.18c.18-.02.57.04.52.17.42,0-.3-.3-.45-.33.34-.21.82.27.85.19l-.03-.12h-.09c-.28-.14-.59-.21-.52-.36.16-.08.45.03.49,0,.05,0,.08,0,.03-.06l.11-.23h-.59c-.26-.16.07-.22-.59-.23,1.03.01.52-.84.83-.89-.4-.21-.37-.36-.29-.54-.13.03-.77-.04-.67-.18,1.32.24.62-.21,1.59-.21-.65.03-.09-.48-1.02-.41.13-.12.5.05.83,0-.46-.38.41-.67.28-1.08-.17-.02-.45.02-.7-.09l.89-.13c-.08-.09-1-.16-.38-.25-.15,0-.37.02-.43-.04.94-.72-.59-1.59,1.04-2.32-.34.1-.38.02-.39-.06-.08.05-.43-.01-.67-.01l.67-.31c-.66-.07-.03-.35-.66-.4l.11.1c-.74-.14-1.67.16-2.62.12.84.17-1.27.35-.06.62-.2.05-.31-.05-.53-.03.41.07.49.15.3.28l-.1-.02c.08.38-.31.52-.61.92h.48c-.07.09-.22.09-.34.13.71.15.06-.25.84-.1-.97.06-.07.64-1.17.63-.02.14.55,0,.53.14h-.3s.38.08.38.08c-.07.09-.44.1-.69.08.03-.02-.06-.07-.08-.09-.36.08.09.34-.03.37l.19-.11c.24.4-.18.81.36,1.24h.23c.37.33-.27.19-.13.52l-.05-.02c.21.09.31.19.28.27-.25-.11-.52.07-.8-.07.4.36.32.2,1.12.52h-.37c.32.11.5.14.57.31-.3-.18-.57,0-.97-.2-.84.19.73.61-.47.55.98.32.61-.18.81-.06.34-.01.73.25.61.33-.04.1-1.33-.05-1.35.2,0-.02-.07-.04-.06-.06-.28.05.31.25-.13.29.6.18-.06.14.71.31l-.14-.27c.18.17,1.06.48.58.61-.15-.05-.35-.16-.45-.22-.24.02.13.15-.12.17-.77-.18-.12-.32-.68-.58-.34,0,.51.38-.32.14,1.05.31-.18.22.6.56l-.46-.11c.07.04.28.14.26.19l-.59-.22c.49.25-.5.17-.25.36.05-.27.58.06.94.02.54.48-1.26-.07-1.13.35-.05-.06.32-.13.52,0-.11.05-.31.1-.57.09.04.27.48.07.74.24-.58-.05.2.18.35.33l-.47-.11c-.37.21.96.31.53.49l-.62-.27.14.18-.53-.16c.36.24.25.26.06.37.34.05.84.24.83.37-.3.01-.43-.17-.41.03-.28-.12-.64-.26-.19-.22-.15-.06-.29-.11-.43-.16-.34,0-.13.21-.14.28.02-.02.06-.04.13-.04l.57.43c-.19,0-.32-.08-.45-.15.04.07.24.16.26.25-.37-.12-.76-.23-.91-.38l.35.36c-.17-.03-.49,0-.62-.07-.26.07.63.54.29.63.07.03.13.07.18.12-.13.14-.64.15-.18.51l-.7-.1c.11.2.89.11,1.07.45.16.25-.59-.11-.8-.11.31.2.94.58.33.57-.11-.1,0-.11-.02-.17ZM65.23,245.33c-.08-.07-.34-.26-.07-.18.5.24.24.18.07.18ZM65.07,248.64c-.13-.1-.04-.1.15-.07.02.05-.01.08-.15.07ZM63.22,258.17l-.02-.02c.21.04.13.02.02.02ZM62.94,258.21c.04.06.1.1.15.13-.09-.09-.07-.13-.01-.15-.11-.06-.19-.1-.14.02ZM71.35,238.72l-.13.02c-.12-.11,0-.06.13-.02Z"/>
        <path class="cls-1" d="M64.62,248.04c.08.02.16.06.25.09-.07-.05-.15-.09-.25-.09Z"/>
        <polygon class="cls-1" points="65.74 242.07 65.74 242.06 65.66 242.03 65.74 242.07"/>
        <path class="cls-1" d="M61.31,253.42c.08,0,.16.04.25.08-.1-.07-.19-.11-.25-.08Z"/>
        <path class="cls-1" d="M62.92,259.55l-.02-.18c-.02.06-.12.02-.2,0,.09.07.23.15.21.19Z"/>
        <path class="cls-1" d="M59.92,258.5c.03.05-.02.03.02.09l.17.14c.04-.07-.07-.23-.19-.23Z"/>
        <path class="cls-1" d="M61.59,258.64c-.32-.25-.26-.1-.26.02,0,0,0-.01,0-.01.42.38.34.19.25,0Z"/>
        <path class="cls-1" d="M61.33,258.68s-.01.06-.04.07c.17.15.06,0,.04-.07Z"/>
        <path class="cls-1" d="M63,258.57c-.11-.03.39.34.25.26.38.35-.31-.6-.25-.26Z"/>
        <polygon class="cls-1" points="60.51 257.85 60.92 258.14 60.63 257.85 60.51 257.85"/>
        <path class="cls-1" d="M61.22,257.55l-.2.02c.07.05.09.09.11.13.07-.06.2-.07.08-.16Z"/>
        <path class="cls-1" d="M61.14,257.71s-.05.07,0,.14c.01-.02.03-.07,0-.14Z"/>
        <polygon class="cls-1" points="60.51 257.61 60.62 257.65 60.71 257.59 60.51 257.61"/>
        <path class="cls-1" d="M62.19,256.42l-.03-.21c-.13-.11-.24-.14-.22-.06.08.1.1.18.24.26Z"/>
        <path class="cls-1" d="M60.82,255.97c.11.03.2.09.34.18l-.5-.37.15.2Z"/>
        <path class="cls-1" d="M60.95,255.54c-.13-.11-.28-.46-.35-.29.13.11.16.31.35.29Z"/>
        <polygon class="cls-1" points="62.86 254.17 62.84 254.2 63.7 254.76 62.86 254.17"/>
        <path class="cls-1" d="M61.8,251.26c-.29.02.52.35.18.33.19.16.28.02.43.16-.17-.22-.02-.19-.62-.49Z"/>
        <path class="cls-1" d="M62.41,251.75s.06.07.11.12c-.04-.06-.07-.09-.11-.12Z"/>
        <polygon class="cls-1" points="72.59 231.51 72.81 231.39 72.46 231.47 72.59 231.51"/>
        <path class="cls-1" d="M71.84,231.27l.65-.02-.58-.08s.08.08-.06.1Z"/>
        <path class="cls-1" d="M63.9,245.13l.14.06c.16.05.18.03.23,0l-.37-.06Z"/>
        <polygon class="cls-1" points="64.85 243.96 64.83 243.98 65.4 244.13 64.85 243.96"/>
        <path class="cls-1" d="M64.54,242.59s.07.13.03.17c-.06-.13.67.04-.03-.17Z"/>
      </g>
      <g>
        <path class="cls-1" d="M94.87,270.28c.02.07.29-.26.35-.3-.14,0-.42.39-.35.3Z"/>
        <polygon class="cls-1" points="93.48 270.34 93.61 270.22 93.22 270.44 93.48 270.34"/>
        <path class="cls-1" d="M92.79,269.73c-.39.6.33.13.29.43l-.09.14.43-.39c-.21-.06-.65.06-.63-.18Z"/>
        <path class="cls-1" d="M93.38,268.21c-.15.24-.23.11.04.15.01-.03.02-.05.03-.07-.02-.01-.04-.03-.06-.08Z"/>
        <path class="cls-1" d="M93.45,268.28c.09.05.1-.22,0,0h0Z"/>
        <path class="cls-1" d="M92.98,268.12l.26-.11c.08-.15,0-.25.12-.31-.19.02-.27.17-.38.43Z"/>
        <path class="cls-1" d="M92.56,268.45l.12-.04c.03-.06.03-.09-.12.04Z"/>
        <path class="cls-1" d="M92.93,268.32l-.25.09c-.06.1-.2.28.1-.02-.14.16,0,.02.15-.06Z"/>
        <path class="cls-1" d="M92.93,268.46c-.04.17-.02.3-.28.41.25.08.54-.33.28-.41Z"/>
        <path class="cls-1" d="M92.28,270.27l-.06.22.22-.13c-.11.06-.01-.27-.15-.09Z"/>
        <path class="cls-1" d="M92.55,267.32c-.1.12-.21.35-.32.51l.18-.08c.02-.11,0-.25.14-.43Z"/>
        <path class="cls-1" d="M92.23,267.83l-.27.12c.08.1.18.02.27-.12Z"/>
        <polygon class="cls-1" points="92.05 269.06 92.58 268.77 92.01 269.04 92.05 269.06"/>
        <polygon class="cls-1" points="92.11 266.97 92.38 266.74 91.95 267.07 92.11 266.97"/>
        <path class="cls-1" d="M91.77,266.79c.22-.2.22-.45.38-.56-.11-.02-.33.13-.52.27.14-.05.19.03.14.29Z"/>
        <path class="cls-1" d="M91.33,266.69c.07-.03.18-.11.29-.19-.07.03-.17.08-.29.19Z"/>
        <path class="cls-1" d="M91.8,267.75c.05-.08.17-.29.17-.42l-.21.38.04.04Z"/>
        <path class="cls-1" d="M91.75,267.72h0c-.04-.06-.07-.09-.08-.11,0,.01.03.04.08.11Z"/>
        <path class="cls-1" d="M91.81,267.76h-.01s-.03.04.01,0Z"/>
        <path class="cls-1" d="M91.99,268.53c-.21.14-.51.24-.6.63.23-.2.28-.42.6-.63Z"/>
        <path class="cls-1" d="M91.55,268.23l.06.17c.07-.09.14-.24.25-.31l-.31.14Z"/>
        <polygon class="cls-1" points="91.41 268.29 91.55 268.23 91.52 268.16 91.41 268.29"/>
        <path class="cls-1" d="M91.31,267.18c-.16.11-.23.08-.31.05.02.12.07.21.14.26.09-.1.26-.27.18-.32Z"/>
        <path class="cls-1" d="M91.5,267.47h-.03s-.02.06.03,0Z"/>
        <path class="cls-1" d="M90.33,266.78s-.02.05-.03.07l.04-.06h-.01Z"/>
        <path class="cls-1" d="M91.1,267.57c0,.11.1.05.2-.04-.06,0-.12,0-.17-.03-.04.05-.06.08-.03.07Z"/>
        <path class="cls-1" d="M91.03,266.72c-.02.09-.03.18-.04.26.05-.13.12-.34.04-.26Z"/>
        <path class="cls-1" d="M91.53,267.37h.02c.04-.1.01-.06-.02,0Z"/>
        <path class="cls-1" d="M91.53,267.37c-.06.03-.15.1-.22.16.05,0,.11-.02.17-.05.01-.03.03-.07.05-.11Z"/>
        <path class="cls-1" d="M88.6,268.92c.23-.32.57-.53.45-.11.28-.17.95-1.29,1.25-1.96-.1.14-.19.27-.45.38-.08.21-.01.6-.32.83-.28.06-.05-.2-.02-.43-.21.45-.61.46-.97,1.09l.28-.12c-.06.1-.21.21-.23.32Z"/>
        <path class="cls-1" d="M90.52,267.04h.08c-.02-.1.03-.26.12-.57-.2.1-.3.21-.38.32l.23.21-.05.04Z"/>
        <path class="cls-1" d="M90.83,267.19c-.29.32-.52.39-.71.82.16.08.31-.22.5-.31-.3-.09.21-.15.18-.47.09-.02.14-.01.19,0-.01-.07-.02-.16,0-.25v.03s0,0,0,0h0c-.02.06-.04.09-.03.05,0,0-.01,0-.01,0-.04.05-.07.09-.1.12-.02-.12.05-.1.1-.12l.04-.05h0s-.38.02-.38.02c.02.08.09.11.23.16Z"/>
        <path class="cls-1" d="M90.71,269.8s.03-.06.05-.08c-.05.03-.07.06-.05.08Z"/>
        <path class="cls-1" d="M90.77,269.52c.05-.04.17-.16.2-.09-.03.14-.13.16-.21.28.1-.07.3-.16.33-.4l-.05.03c0-.19.2-.71.25-.74-.21.33-.35.57-.52.92Z"/>
        <path class="cls-1" d="M90.75,268.45l-.32.03-.12.37.13-.19c.06.15.2-.09.31-.22Z"/>
        <polygon class="cls-1" points="90.43 266.58 90.72 266.22 90.23 266.68 90.43 266.58"/>
        <polygon class="cls-1" points="90.13 266.45 90.36 266.13 90.16 266.28 90.13 266.45"/>
        <path class="cls-1" d="M72.6,264.69l-.08.1s.06-.06.08-.1Z"/>
        <path class="cls-1" d="M73.05,264.79l.05-.19c-.04.1-.06.18-.05.19Z"/>
        <path class="cls-1" d="M83.18,262.74c.05-.38.16-.96,0-.54l-.14.41c.1-.04.13.02.14.13Z"/>
        <path class="cls-1" d="M77.39,263.44s0,.09,0,.13c.06-.14.12-.26.18-.38-.05.08-.11.16-.17.25Z"/>
        <path class="cls-1" d="M76.84,265.15l-.05-.3c0,.1.01.2.05.3Z"/>
        <path class="cls-1" d="M70.03,264.81l-.12.43c.11,0,.09-.22.12-.43Z"/>
        <path class="cls-1" d="M87.25,264.87c0-.19-.03-.29-.07-.34-.02.27-.13.64.07.34Z"/>
        <path class="cls-1" d="M73.56,260.18c-.06.07-.09.15-.1.25.06-.07.1-.14.1-.25Z"/>
        <path class="cls-1" d="M86.95,264.4s0,.07,0,.11c.09-.03.18-.05.24.02.02-.2,0-.35-.23-.13Z"/>
        <path class="cls-1" d="M60.92,264.68s-.02-.03-.03-.05c0,.06.02.06.03.05Z"/>
        <path class="cls-1" d="M57.32,260.92s.07-.04.11-.06c-.03-.02-.06-.01-.11.06Z"/>
        <path class="cls-1" d="M89.15,265.58c.07.01.03-.03,0,0h0Z"/>
        <path class="cls-1" d="M88.51,267.21s-.08.08-.14.16c.06-.09.1-.14.14-.16Z"/>
        <path class="cls-1" d="M85.09,266.46h0c-.02.08-.02.06,0,0Z"/>
        <path class="cls-1" d="M89.13,265.8c0-.06,0-.11,0-.16,0,.04,0,.09,0,.16Z"/>
        <path class="cls-1" d="M89.23,265.62s.02.05.03.07c.05-.06.06-.1-.03-.07Z"/>
        <path class="cls-1" d="M89.06,265.55s.06.05.07.1c0-.03.01-.06.02-.07-.02,0-.05-.01-.09-.03Z"/>
        <path class="cls-1" d="M65.79,263.11s0-.02-.01-.04c-.06.18-.03.15.01.04Z"/>
        <polygon class="cls-1" points="79.95 266.29 79.97 266.27 79.96 266.26 79.95 266.29"/>
        <path class="cls-1" d="M79.63,266.52c.28-.48.3-.4.33-.27l.37-1.2-.7,1.46Z"/>
        <path class="cls-1" d="M71.48,264.64l.09.41c-.27.61-.36.37-.3.93.21-1.34.58-.05.81-1.39l.05.3s-.04.06-.07.04c.09.67.29-.95.52-.72.07.12.1.32.01.47l.25-.3c.05.03,0,.27-.05.23l.31-.06v.04c.07-.2.23-.51.3-.64.04.2-.06.14-.08.31l.23-.3c0,.36-.2.67-.3.6-.1,1.36.2-.32.38.53l-.18.14c-.05.78.12.53.19,1.04.01-.25-.1-1.26.14-1.56.03.11.08.17.23-.07-.1.47.02.38.14.38l-.14.62c.16-.15.22-.47.35-.74.13.09.05.58,0,1,.2.15.02-.81.31-.87.13.28.32.05.63-.27.08.24-.11.38-.11.56l.23-.47s-.02.17-.04.24c.14-.17.16-.62.36-.75.22-.68.06,1.07.45.36,0,.19-.12.37-.17.62.39-.43.32-.31.71-.93l.07.46c0-.5.32-1,.6-1.41.01-.24.03-.44.02-.55l.35-.26c0,.11-.08.31-.2.56.03-.05.06-.09.09-.13.02.25-.13.59-.29.92,0-.13.01-.27.02-.4-.17.36-.34.75-.43,1.12.04-.07.08-.12.13-.14-.04.1-.08.19-.09.25-.01.07.05-.06.14-.21l-.14.7.09-.27.18.52c.42-.62.93-1.59,1.39-1.75-.25.47-.28.81-.47,1.4.1-.66-.36.19-.5,0,.08.09-.03.37-.09.46l.5-.48c-.16.48-.05.38-.03.61.24-.98.44-.55.67-.8-.1.32-.24.64-.37.5-.06.78.6-1.04.57-.37-.04,0-.05-.06-.12.09.19-.25.34.05.19.31h-.04c.22.2.78.27,1.11-.51-.04.1-.39.95-.46,1.11.48-.84.97-1.68,1.47-2.52-.3.67-.76,2.35-1.12,2.66.02.12.06.25.27.07,0-.11.28-1.03.36-1.07-.14.82-.05.45-.11,1.18,0-.17.48-1.21.57-1.13-.08.15-.41,1.05-.49,1.15l.66-.94c-.14.16-.37.88-.43,1.2.06-.21.2.11.3.03v-.28c.2.27.88-1.35,1.14-1.17-.13.2-.64,1.28-.56,1.47.29-.5,1.39-2.42,1.83-2.72l-.09.32.35-.26c-.49.73-1.56,2.26-2.01,2.84,0,.28-.13.37.03.4-.07.3-.27.39-.32.39l.26.33c.26-.62.54-.5.76-1.01l-.67.47c.25-.62,1.01-1.66,1.21-1.42-.05.27-.55,1.06-.64,1.27.13-.2.42-.29.37-.13l-.25.27c.03.29.6-.7.49-.04.04.07-.21.86-.03.51.25-.73,1.25-2.88,1.57-3.37,0,.06,0,.82-.11,1.19-.17.59-.78,1.21-.93,1.72.08-.16.24-.34.29-.4-.01.17-.28.5-.11.49.33-.6.24.18.32-.48.22-.11.07.19.24.24.15-.42.82-1.27,1.05-1.37-.09.15-.16.36-.2.46.24.18.23.55.47.69-.06.16-.04.4-.23.63.09-.09.24-.27.32-.24-.15.6-.21-.01-.44.67.2-.34.45-.37.68-.53.27-.55-.19-.24-.41-.08.41-.74,1.02-1.41,1.48-1.59.31-.06-.18.52-.09.44.31.35,1.08-1.08,1.1-.37-.15.53-.55.92-.72,1.27-.27.08-.08-.44-.2-.49v.3c-.13.12-.31.18-.29,0-.14.48.6.44.65,1,.14-.12.33-.22.4-.43h-.13c.15-.42.49-.39.48-.64.28-.18.68-.49.72-.17l-.3.54c.09-.15.08-.38-.07-.26.22-.18-.19.87.33.25l.11-.44c.29-.18.81-.62.86-.35.26-.55-.07.03.2-.63-.39.8-.39-.3-.73.58.33-.77,0-.42.21-1.11-.1.17-.15.36-.23.19-.04.05-.09.1-.12.13v-.02s0,.03,0,.03c-.02.02-.03.03,0,0-.02.1-.05.2-.1.3-.31.35-.51.2-.71.36-.03-.13.15-.18.23-.39l-.29.24c.23-.39.17-.76.5-.87l-.16-.12c.03-.27-.06-.44-.25-.33-.03-.13-.46.31-.21.05l-.41.08.05-.1c-.24-.21-.91.33-.83-.55-.15.05-.3.12-.4-.08l.15-.36c-.18.05-.18-.53-.42-.19.35-.99-.49-.5-.62-.77l-.23.45c-.13-.1-.34-.04-.61.06l-.18.41c-.31.26-.26-.48-.53-.56.09-.15.13-.08.13.04.13-1.07-.93.4-.9-.39-.13.12-.16.05-.16-.07,0,0,.02,0,.03-.01,0,0-.01-.01-.03-.02,0-.08,0-.18,0-.26-.01.11-.02.21-.01.25-.06-.01-.16,0-.28.08l.15-.46s-.01,0-.02,0c0-.2-.15.18-.25.54-.07.06-.14.13-.21.23.24-.74-.3.16-.07-.64-.2.35-.5.12-.86.89.04-.1.04-.16.08-.15-.05-.13-.1-.25-.26-.06l.18-.59-.48.7c.02-.39.04-.61.33-1.01-.54.58-.32.18-.81.77l.15-.37c-.09-.02-.4.44-.34.11.06-.78-.89-.42-1.17-1.26-.26,1.14-.07-.57-.36.29.05-.27.03-.44.18-.65-.34.19-.26-.53-.66.15.05-.27.17-.37.19-.54-.04.05-.15.21-.13.04.02-.16.1-.21.18-.31-.28-.03-.54.78-.78,1.54-.02-.4-.11-.37-.34.11.03-.26.02-.55.21-.59-.08-.06-.45-.53-.63.09.01-.16-.11-.08-.16-.02-.19-.09-.2-.15-.41-.15l.03.12c-.27.72-.21.12-.39.18l.02-.08c-.24-.62-.22.22-.44-.47l-.09.47c-.27,1-.18-.66-.49-.33l.02.28c-.19.32-.02-1.44-.12-1.6,0-.09.07-.13.12-.19-.19-.66-.17.61-.43.7.03-.34.23-.83.08-.93-.03-.28-.67.97-.76.3,0,.26,0,.53-.15.7-.18.07-.27-1.04-.57-.26,0-.07,0-.14,0-.21-.16.19-.47.28-.61.71.13-1.66-.89.67-.67-.84l-.4.02.03-.15c-.24-.14-.37.23-.5.58-.04-.11.01-.25.03-.33-.33-.34-.38-.28-.76.45l.02-.5c-.11.28-.46-.83-.87-.28,0-.06.02-.15.06-.22-.44.53-.89-1.45-1.15.35l-.29.43c.33.15-.09.78.04,1.08-.13.1-.31-.56-.15-.64l.02.09c.1-.94-.41-.35-.37-.99-.68.02-1.33-.53-1.98-.54l.08.73-.22-.04c-.06-.17-.09-.57.07-.54-.09-.41-.26.35-.26.51-.32-.29.1-.86,0-.87l-.13.06.03.08c-.1.3-.1.62-.29.59-.12-.14-.08-.45-.12-.48,0-.05-.02-.08-.07-.02l-.29-.06.14.57c-.11.29-.26-.02-.11.63-.23-1.02-1.06-.32-1.19-.61-.14.44-.31.44-.53.41.06.11.15.76-.04.7-.05-1.34-.38-.55-.62-1.5.2.62-.51.2-.2,1.09-.16-.09-.06-.5-.21-.8-.3.54-.84-.24-1.27,0,.02.18.13.43.07.7l-.36-.83c-.08.1.07,1.02-.18.44.05.14.11.36.06.42-.5-.35-.93-.12-1.35.04-.43.18-.86.26-1.49-.43.2.31.12.36.03.39.08.07.1.42.16.65l-.52-.56c.09.66-.38.13-.27.75l.09-.14c.03.76.61,1.56.81,2.5-.03-.86.7,1.13.69-.11.1.18.02.31.1.52-.02-.42.04-.52.23-.37v.1c.4-.18.66.16,1.17.34l-.12-.46c.11.05.16.19.23.3-.01-.72-.29,0-.33-.79.3.93.72-.1.99.97.15-.02-.13-.53.02-.55l.09.29-.02-.38c.11.05.22.41.26.65-.03-.03-.06.08-.08.11.18.33.35-.17.41-.07l-.17-.16c.38-.34.94-.04,1.28-.66l-.06-.22c.28-.44.28.22.61,0v.05c.04-.23.13-.35.22-.33-.07.27.21.49.12.79.3-.47.14-.36.31-1.21l.08.36c.05-.34.05-.52.22-.63-.12.33.15.55.01.99.41.77.5-.85.72.33.12-1.03-.34-.56-.26-.78-.1-.33.1-.77.23-.67.12.02.26,1.31.55,1.28-.03,0-.03.07-.06.07.12.26.2-.36.35.06.06-.62.17.03.18-.76l-.27.19c.15-.21.28-1.14.54-.7-.02.16-.09.37-.14.49.08.23.14-.16.22.08-.01.79-.33.18-.48.79.08.33.3-.58.23.28.1-1.09.28.13.48-.71v.47c.02-.08.08-.3.14-.29l-.1.62c.16-.53.3.45.45.17-.31,0-.07-.58-.2-.92.4-.63.22,1.25.65,1.04-.06.06-.22-.29-.12-.51.08.1.19.29.23.54.29-.09-.03-.49.1-.78.08.58.15-.23.29-.41l-.02.48c.32.32.13-1,.42-.62l-.16.66.16-.17-.06.55c.19-.4.24-.29.39-.13-.02-.34.07-.87.22-.88.08.29-.08.46.13.39-.07.3-.14.68-.2.23-.03.16-.05.3-.08.46.09.33.26.08.34.08-.03-.02-.06-.05-.07-.12l.35-.64c.03.19-.01.33-.06.47.06-.05.12-.26.22-.3-.05.39-.08.79-.22.96l.32-.41c0,.17.11.48.06.62.13.24.45-.72.63-.4.02-.07.05-.15.1-.2.19.11.31.6.6.09l.05.71c.2-.14-.07-.9.27-1.13.25-.2,0,.6.06.81.15-.33.43-1.02.55-.42-.08.12-.12,0-.19.05ZM73.77,264.71c-.06.09-.21.38-.19.09.15-.53.14-.26.19-.09ZM77.47,264.43c-.08.14-.11.05-.11-.14.05-.03.09,0,.11.14ZM88.31,265.52l-.02.02c0-.22,0-.13.02-.02ZM88.4,265.82c.05-.05.09-.1.11-.17-.08.1-.13.08-.16.02-.05.12-.07.21.04.15ZM65.03,259.89l.05.13c-.09.14-.07.02-.05-.13Z"/>
        <path class="cls-1" d="M76.9,264.95c.01-.08.03-.17.05-.26-.04.07-.06.16-.05.26Z"/>
        <polygon class="cls-1" points="70.05 264.73 70.05 264.73 70.03 264.81 70.05 264.73"/>
        <path class="cls-1" d="M83.47,267.79c0-.08.01-.17.04-.26-.05.1-.08.2-.04.26Z"/>
        <path class="cls-1" d="M89.86,265.79l-.19.02c.07.02.04.12.03.21.06-.1.12-.25.17-.23Z"/>
        <path class="cls-1" d="M89.24,268.95c.05-.04.04.02.09-.02l.12-.19c-.08-.04-.23.08-.21.21Z"/>
        <path class="cls-1" d="M89.1,267.2c-.21.35-.06.28.06.27,0,0-.01,0-.01,0,.34-.46.14-.36-.05-.26Z"/>
        <path class="cls-1" d="M89.19,267.48s.07,0,.08.04c.14-.18,0-.06-.08-.04Z"/>
        <path class="cls-1" d="M88.79,265.74c-.01.12.3-.42.24-.27.32-.41-.6.35-.24.27Z"/>
        <polygon class="cls-1" points="88.43 268.36 88.68 267.93 88.41 268.23 88.43 268.36"/>
        <path class="cls-1" d="M87.99,267.63l.06.2c.04-.07.09-.1.13-.12-.07-.07-.11-.21-.18-.08Z"/>
        <path class="cls-1" d="M88.17,267.71s.08.05.15,0c-.03-.01-.08-.03-.15,0Z"/>
        <polygon class="cls-1" points="88.17 268.37 88.19 268.26 88.12 268.17 88.17 268.37"/>
        <path class="cls-1" d="M86.59,266.69l-.22.04c-.1.14-.11.26-.02.23.09-.08.18-.11.24-.27Z"/>
        <path class="cls-1" d="M86.34,268.13c.01-.11.07-.21.13-.36l-.32.53.19-.17Z"/>
        <path class="cls-1" d="M85.85,268.01c-.1.14-.45.31-.25.38.1-.14.31-.18.25-.38Z"/>
        <polygon class="cls-1" points="84 266.15 84.04 266.16 84.48 265.24 84 266.15"/>
        <path class="cls-1" d="M81.02,267.47c.08.3.29-.56.32-.22.14-.2-.03-.28.09-.46-.21.19-.2.03-.42.67Z"/>
        <path class="cls-1" d="M81.43,266.79s.07-.07.11-.12c-.06.05-.09.08-.11.12Z"/>
        <polygon class="cls-1" points="56.7 260.49 56.52 260.32 56.69 260.63 56.7 260.49"/>
        <path class="cls-1" d="M56.63,261.28l-.19-.62.06.59s.07-.1.13.04Z"/>
        <path class="cls-1" d="M73.84,266.06l.04-.15c.02-.17,0-.19-.06-.23l.02.38Z"/>
        <polygon class="cls-1" points="72.34 265.29 72.37 265.31 72.41 264.72 72.34 265.29"/>
        <path class="cls-1" d="M70.9,265.83c.05.03.13-.09.18-.06-.13.08-.11-.67-.18.06Z"/>
      </g>
    </g>
  </g>
</svg>