<?xml version="1.0" encoding="UTF-8"?>
<svg id="Layer_2" data-name="Layer 2" xmlns="http://www.w3.org/2000/svg" viewBox="0 0 446.05 21.02">
  <defs>
    <style>
      .cls-1 {
        fill: #fff;
      }
    </style>
  </defs>
  <g id="Layer_1-2" data-name="Layer 1">
    <g>
      <path class="cls-1" d="M445.48,10.33c.65.1.46-.34.57-.4-1.11-.02-.55.52-.57.4Z"/>
      <polygon class="cls-1" points="434.54 10.22 434.75 10.07 433.11 10.33 434.54 10.22"/>
      <path class="cls-1" d="M424.4,9.22c.89.8,3.68.24,5.47.67l.28.19.87-.49c-2.2-.12-5.09-.02-6.62-.37Z"/>
      <path class="cls-1" d="M419.13,7.16c.31.31-1.19.12,1.25.21-.12-.04-.15-.06-.22-.09-.22-.02-.52-.05-1.03-.12Z"/>
      <path class="cls-1" d="M420.16,7.27c1.07.08-.68-.3,0,0h0Z"/>
      <path class="cls-1" d="M415.21,7l1.43-.13c-.28-.19-1.53-.33-1.06-.41-1.46.02-1.17.2-.38.54Z"/>
      <path class="cls-1" d="M413.83,7.41l.74-.04c-.12-.08-.31-.12-.74.04Z"/>
      <path class="cls-1" d="M416.14,7.27l-1.57.09c.19.13.2.36.72-.02-.15.2.18.02.85-.07Z"/>
      <path class="cls-1" d="M417,7.45c.78.22,1.79.4.35.53,2.7.15,2.35-.4-.35-.53Z"/>
      <path class="cls-1" d="M423.81,9.91l1.03.31.93-.15c-.47.07-2.01-.39-1.97-.16Z"/>
      <path class="cls-1" d="M406.46,5.91c-.1.14.44.44.53.64l1.06-.09c-.53-.15-1.53-.33-1.58-.56Z"/>
      <path class="cls-1" d="M406.99,6.55l-1.58.13c1.39.14,1.65.04,1.58-.13Z"/>
      <polygon class="cls-1" points="413.51 8.17 416.11 7.84 413.01 8.14 413.51 8.17"/>
      <polygon class="cls-1" points="400.51 5.4 401.42 5.12 399.81 5.52 400.51 5.4"/>
      <path class="cls-1" d="M396.56,5.14c.68-.24-.86-.56-.15-.69-1.08-.04-2.01.14-2.85.29.89-.05,1.82.06,3.01.39Z"/>
      <path class="cls-1" d="M392.14,4.96c.44-.03.91-.12,1.41-.21-.47.03-.94.09-1.41.21Z"/>
      <path class="cls-1" d="M402.76,6.39c-.11-.1-.33-.36-1.19-.53l.58.48c.19.02.4.04.61.06Z"/>
      <path class="cls-1" d="M402.17,6.35l-.02-.02c-.66-.07-1.12-.11-1.32-.13.17.02.57.06,1.34.15Z"/>
      <path class="cls-1" d="M402.92,6.4c-.06,0-.1,0-.15-.01.06.05.09.06.15.01Z"/>
      <path class="cls-1" d="M409.46,7.45c-.94.16-2.86.26-1.05.78.68-.24-.36-.53,1.05-.78Z"/>
      <path class="cls-1" d="M403.63,7l1.65.23c-.02-.12-.31-.3.15-.38l-1.8.15Z"/>
      <polygon class="cls-1" points="402.81 7.07 403.63 7 403.02 6.91 402.81 7.07"/>
      <path class="cls-1" d="M394.95,5.59c-.73.13-1.51.08-2.4.04.94.16,1.92.29,2.84.36.14-.12.57-.33-.45-.4Z"/>
      <path class="cls-1" d="M398.45,6c-.05,0-.11,0-.16.01.09.04.17.06.16-.01Z"/>
      <path class="cls-1" d="M383.85,5.01s.09.06.13.09l.04-.07-.17-.02Z"/>
      <path class="cls-1" d="M395.55,6.08c.71.14,1.14.07,1.55-.03-.54,0-1.1-.02-1.71-.07-.06.06-.08.09.15.09Z"/>
      <path class="cls-1" d="M389.7,4.97c.36.11.78.22,1.22.33-.35-.17-1.08-.43-1.22-.33Z"/>
      <path class="cls-1" d="M398.06,5.87s.07,0,.11-.01c-.23-.11-.2-.06-.11.01Z"/>
      <path class="cls-1" d="M398.06,5.87c-.37.03-.67.11-.96.18.44,0,.84-.01,1.19-.04-.09-.04-.17-.09-.23-.14Z"/>
      <path class="cls-1" d="M381.02,7.57c.15-.39,2.05-.63,3.63-.1,1.61-.19.67-1.56-.67-2.38-.06.17-.07.33-1.73.45.56.25,3.59.75,2.19,1.01-2.18.06-1.76-.26-2.8-.54.86.55-2.81.53-2.38,1.29l1.92-.13c.03.11-.67.25-.15.39Z"/>
      <path class="cls-1" d="M387.1,5.34h.68c-.76-.12-1.3-.32-2.29-.7-1.13.12-1.38.25-1.46.38l3.31.28-.23.04Z"/>
      <path class="cls-1" d="M390.8,5.54c-.56.38-2.19.47-1.23.99,1.98.11,1.41-.25,2.6-.35-3.19-.15.93-.16-1.35-.6.63-.02,1.2,0,1.73.03-.57-.1-1.12-.21-1.63-.33.03.01.05.02.07.03h.01s0,0,0,0c.13.06.18.1.02.06-.01,0-.05,0-.07,0-.03.06-.09.11-.16.15-.92-.16-.14-.12.16-.15.01-.02.04-.04.04-.06h-.01s-3.21,0-3.21,0c.67.11,1.52.14,3.02.21Z"/>
      <path class="cls-1" d="M406.63,9.01c-.1-.05-.09-.08-.09-.11-.21.04-.29.07.09.11Z"/>
      <path class="cls-1" d="M405.34,8.65c.24-.04.44-.2,1.19-.09.64.18-.02.21,0,.35.46-.08,1.61-.18.21-.5l-.23.04c-1.27-.25-2.88-.92-2.65-.96.34.42.65.72,1.47,1.17Z"/>
      <path class="cls-1" d="M397.97,7.2h-2.67s1.32.48,1.32.48l-.05-.23c1.5.21,1.2-.09,1.4-.25Z"/>
      <polygon class="cls-1" points="383.56 4.77 383.95 4.34 382.36 4.88 383.56 4.77"/>
      <polygon class="cls-1" points="380.1 4.59 380.25 4.21 379.32 4.39 380.1 4.59"/>
      <path class="cls-1" d="M184.86,6.51l-.78.14c.37-.05.6-.1.78-.14Z"/>
      <path class="cls-1" d="M190.51,6.31l.13-.2c-.26.12-.36.2-.13.2Z"/>
      <path class="cls-1" d="M295.09.78c-1.13-.39-2.4-.99-2.27-.54l.34.44c.8-.06,1.41,0,1.93.1Z"/>
      <path class="cls-1" d="M236.84,3c.11.04.22.09.33.13.28-.15.53-.29.77-.42-.33.09-.71.19-1.1.29Z"/>
      <path class="cls-1" d="M236.05,4.8l-1.5-.27c.34.09.82.18,1.5.27Z"/>
      <path class="cls-1" d="M154.02,8.41l-.89.49c1.42-.08.78-.27.89-.49Z"/>
      <path class="cls-1" d="M344.66,2.66c-.98-.22-1.75-.33-2.44-.39,1.17.31,2.11.73,2.44.39Z"/>
      <path class="cls-1" d="M186.92,1.82c-.48.1-.68.19-.66.29.49-.09.77-.19.66-.29Z"/>
      <path class="cls-1" d="M339.38,2.13c.17.05.34.08.52.13.72-.04,1.45-.06,2.33.02-.87-.23-1.86-.4-2.84-.14Z"/>
      <path class="cls-1" d="M42.38,17.63c-.08,0-.18,0-.26-.02-.02.06.09.05.26.02Z"/>
      <path class="cls-1" d="M9.41,17.36c.32-.07.84-.14,1.33-.21-.24,0-.64.06-1.33.21Z"/>
      <path class="cls-1" d="M366.2,3.48c.74.02.12-.04,0,0h0Z"/>
      <path class="cls-1" d="M369.66,5.43c-.16.04-.28.09-.31.19.07-.1.17-.16.31-.19Z"/>
      <path class="cls-1" d="M331.95,4.49s-.04,0-.06,0c.21.09.18.08.06,0Z"/>
      <path class="cls-1" d="M367.29,3.75c-.27-.07-.59-.14-.93-.19.15.04.43.1.93.19Z"/>
      <path class="cls-1" d="M367.15,3.53c.25.03.45.06.64.08.1-.07.02-.12-.64-.08Z"/>
      <path class="cls-1" d="M365.18,3.43c.42.02.81.07,1.18.12-.14-.04-.2-.07-.16-.08-.22,0-.52-.02-1.02-.04Z"/>
      <path class="cls-1" d="M102.02,10.48s-.11-.01-.16-.03c-.72.24-.4.19.16.03Z"/>
      <path class="cls-1" d="M275.91,4.92s.05-.02.08-.02c-.03,0-.08-.01-.11-.02l.02.04Z"/>
      <path class="cls-1" d="M273.28,5.23c1.13-.53,1.76-.46,2.61-.34l-.86-1.26-1.76,1.6Z"/>
      <path class="cls-1" d="M171.33,7.18l1.86.32c-2.2.73-3.82.57-2.06,1.05.2-1.37,7.17-.43,7.37-1.79l1.23.24c-.35,0-.4.08-.75.08,2.39.55,1.72-1.05,4.78-.98,1.07.06,1.82.23,1.1.42l2.36-.43c.69,0,.53.24-.16.24l3.61-.25-.03.04c.51-.23,1.67-.61,2.23-.77.93.16-.46.16-.22.32l1.99-.41c.83.32-.82.73-2.2.73,1.91,1.28,1.65-.43,5.71.27l-1.88.22c1.24.74,2.71.42,4.86.85-.51-.24-4.31-1.1-2.15-1.5.62.09,1.42.12,2.59-.19.03.48,1.17.34,2.6.27l-.08.64c1.54-.22,1.41-.55,2.32-.86,1.73.02,2.1.51,2.51.91,2.77.03-1.93-.75,1.34-.95,2.3.19,3.91-.11,6.65-.57,1.61.18-.27.4.31.57l1.42-.55c.35,0,.24.16.18.24,1.2-.23.09-.64,1.97-.86.5-.73,3.9.95,6.22.14.58.18-.27.39-.09.64,3.2-.56,2.75-.41,5.37-1.14l2.25.4c-1.66-.46.45-1.05,2.29-1.54-.59-.23-1.09-.42-1.43-.52l2.95-.37c.36.1.06.32-.42.6.2-.05.39-.11.54-.16,1.06.23.51.6-.24.97-.36-.13-.72-.26-1.07-.38-.72.4-1.4.83-1.25,1.21.19-.08.56-.14.96-.18-.19.11-.31.2-.22.27.1.07.41-.08.89-.25l.68.71.16-.28,3.86.41c2.75-.74,5.15-1.84,9.53-2.14-1.09.52-.23.85-.29,1.47-1.2-.67-3.39.3-5.66.19,1.18.06.93.36.62.46l4.04-.64c-.09.5.86.38,1.92.6-.8-1.01,3.02-.65,4.66-.95.1.34-.29.68-2.3.59,2.22.77,2.87-1.16,5.04-.51-.49,0-.76-.05-.95.12,1.15-.29,3.95-.04,3.29.25h-.49c3.26.14,9.91.07,10.41-.78.03.11-.44,1.02-.64,1.19l5.84-2.83c-.52.73,1.42,2.48-1.28,2.88.77.11,1.73.22,3.37,0-.53-.12-1.3-1.08-.58-1.14,1.97.85,1.37.46,3.81,1.21-.79-.17.11-1.3,1.36-1.24-.2.17.09,1.13-.37,1.24l3.14-1.06c-.78.19-.15.95.54,1.28-.32-.23,2.69.08,3.53-.02l-1.32-.29c3.52.24,3.51-1.51,7-1.38-.43.22-1.08,1.41.7,1.59.83-.56,3.67-2.69,6.78-3.07l.58.34,2.38-.32c-1.5.82-5.7,2.57-7.98,3.23,1.31.29.36.4,2.33.41.69.32-1.09.45-1.67.45l4.58.29c-.19-.68,3.53-.6,3.37-1.15-1.67.16-3.34.39-5.01.58-.19-.66,2.94-1.88,6.19-1.63.82.3-.65,1.17-.59,1.4.43-.22,3.1-.33,3.39-.16l-1.39.31c1.8.32,2.98-.78,5.14-.06.75.07,2.21.95,2.36.55-1.2-.81-1.36-3.19-.52-3.74.26.06,3.92.88,4.77,1.29,1.22.65-1.91,1.37-.88,1.92.05-.18.74-.38,1.03-.45.78.19-.35.56,1.37.54.31-.67,3.48.18.83-.55,1.68-.13,1.78.2,3.75.25-.61-.46,1.83-1.43,3.52-1.57-.11.17.26.41.44.52,3.44.17,5.27.62,8.47.78.29.18,1.82.46,1.15.72.47-.1.9-.31,1.89-.27,1.88.69-2.21-.02-.78.76.14-.39,2.58-.41,4-.59-.4-.63-3.25-.28-4.67-.11.03-.84,2.53-1.6,5.9-1.82,2.68-.07,1.13.6,1.6.51,5,.4,4.34-1.25,8.47-.43,1.62.62.01,1.07.36,1.48-2.18.09-3.31-.51-4.78-.57l1.8.35c-.7.14-2.16.2-2.94,0,1.35.57,8.45.49,12.28,1.21.7-.13,1.89-.24,1.34-.49h-1.22c-1.1-.51,2.33-.45.8-.76,1.66-.19,3.52-.55,5.81-.15l.39.64c-.04-.18-1.48-.47-2.14-.32.98-.21,3.48,1.06,4.59.33l-1.59-.53c1.66-.2,3.74-.71,5.77-.38-.89-.67-.48.04-1.88-.77,1.2.96-5.23-.39-3.26.67-1.44-.92-2.56-.52-4.46-1.35.05.21.67.43-1.04.22-.08.05-.27.12-.39.15-.05-.01-.07-.01-.11-.02.03.01.06.02.09.03-.08.03-.08.03.03.01.4.12.73.24.86.37-.88.41-3.61.21-4.54.39-1.01-.16.44-.2-.1-.46l-1.4.27c-.11-.46-2.66-.88-.25-1.02l-2.16-.13c-1.26-.32-3-.51-4.09-.37-1.01-.15-2.6.36-1.69.06l-3.4.1-.03-.11c-3.34-.23-6.92.39-10.7-.62-1.13.06-2.3.13-4.18-.09l-.35-.41c-1.45.06-4.33-.55-4.97-.18-1.52-1.1-7.01-.48-9.55-.76l-.11.5c-1.75-.09-3.43,0-5.61.12l.12.45c-1.89.3-4.81-.49-7.77-.55.21-.16.96-.09,1.49.03-3.51-1.16-7.49.56-10.69-.26-.8.15-1.38.08-1.94-.05.07,0,.14,0,.2-.02-.08,0-.2,0-.33-.01-.35-.08-.71-.18-1.11-.26.33.12.65.21.93.26-.62,0-1.56.03-2.48.13l-.38-.49c-.07,0-.13,0-.21,0-.9-.2-.73.21-.26.59-.46.07-.89.16-1.22.27-.72-.79-2.41.21-3.4-.64-.63.39-4.62.21-5.12,1.05-.03-.11-.3-.17.2-.17-1.02-.12-2.04-.24-2.96-.02l-.43-.62c-.75.26-1.5.52-2.24.79-1.35-.38-1.91-.6-.56-1.06-3.26.71-2.64.26-5.42.96l.14-.4c-.99,0-2.57.53-3.17.2-2.21-.76-10.95-.17-16.63-.9,1.1,1.16-2.64-.53-2.86.39-.33-.27-1.12-.42-.2-.67-2.9.3-4.36-.4-6.36.39-.33-.27.62-.41.32-.57-.23.06-.92.25-1.22.09-.3-.16.42-.24.88-.36-2.96.07-3.26.93-3.46,1.73-1.5-.36-2.25-.3-3.33.23-.52-.26-1.4-.52.44-.63-1.04-.03-6.33-.32-6.43.32-.33-.16-1.45-.03-1.72.04-2.32-.02-2.53-.07-4.81.01l.63.1c-.89.77-1.89.2-3.73.34l.05-.08c-4.22-.45-1.81.31-5.98-.22l.24.47c-.36,1.04-3.7-.52-6.1-.06l.88.25c-1.31.39-3.72-1.31-5.05-1.41-.29-.08.45-.16.85-.23-3.48-.52-.43.64-3.01.85-.49-.33.59-.88-1.15-.9-.88-.24-5.01,1.2-7.4.66.53.24,1.06.48-.13.72-1.83.17-5-.79-6.63.1-.24-.06-.33-.13-.34-.19-1.4.27-4.55.54-5.38,1.02-1.37-1.6-8.7,1.16-8.73-.37l-4.32.26.11-.16c-2.77.02-3.72.46-4.68.88-.64-.07-.18-.24-.14-.32-4.05-.08-4.45,0-7.79.95l-.38-.48c-.9.34-5.87-.45-9.8.34.04-.06.11-.16.42-.25-2.21.42-4.89.21-7.22.16-2.32-.03-4.28.07-5.04,1.03l-2.9.65c3.8-.13-.51.82,1.07,1.01-1.48.21-3.89-.27-2.07-.49l.29.07c.61-.99-4.74,0-4.68-.65-7.46.58-14.79.54-21.78,1.14l.86.66-2.44.17c-.65-.11-.91-.5.84-.62-.95-.33-2.89.6-2.92.76-3.43,0,1.26-.96.21-.89l-1.41.18.33.06c-1.12.4-1.2.72-3.29.87-1.34-.03-.72-.39-1.24-.37,0-.05-.18-.06-.8.05l-3.08.2,1.28.47c-1.34.4-2.89.22-1.41.75-1.08-.41-3.96-.26-6.72-.02-2.76.27-5.41.63-6.06.54-1.86.61-3.74.8-6.07.98.59.06,1,.67-1.01.8.6-1.41-3.73-.21-5.46-1,1.52.49-5.69.74-3.32,1.41-1.69.06-.15-.49-1.46-.67-3.93.89-8.82.62-13.72,1.37-.06.18.8.35-.23.74l-2.7-.57c-.96.2-.78,1.11-2.62.71.27.12.67.3.02.43-4.87.15-9.78.86-14.7,1.57-4.92.73-9.87,1.38-14.87,1.23,1.37.16.49.31-.52.46.67,0,.04.43.2.65l-4.18-.11c-.66.75-4.38.63-4.72,1.31l1.28-.28c-1.62.97,2.64,1.32,2.51,2.31,1.81-1.1,5.25.57,8.24-1.05.72.1-.55.38-.15.56.75-.51,1.7-.73,3.52-.78l-.19.13c5.02-.75,7.23-.68,12.92-1.1l-.48-.42c1.23-.08,1.5.04,2.08.09,1.31-.88-3.42.36-2.25-.58,1.73.77,8.59-.99,9.81-.03,1.87-.21-.61-.48,1.26-.69l.53.24.43-.43c1.24-.08,1.9.21,1.97.46-.3,0-.84.17-1.16.23,1.63.16,4.47-.64,5.03-.59l-1.82.03c5.08-.88,11.36-1.24,16.24-2.3l-.4-.18c3.74-.79,3.05-.06,7.18-.67l-.15.07c.81-.31,1.9-.53,3.04-.62-1.02.37,2.02.31.68.73,4.05-.86,1.99-.55,4.62-1.65l.66.31c.89-.43.95-.61,3.01-.92-1.67.49,1.38.43-.49,1.04,4.42.35,6.38-1.42,8.49-.42,1.91-1.19-3.82-.24-2.72-.56-.97-.25,1.58-.91,2.96-.92,1.39-.1,2.48,1.1,5.98.78-.35.03-.37.1-.71.13,1.33.15,2.53-.57,4.18-.29.85-.7,2.09-.14,2.28-.96l-3.19.46c1.8-.36,3.43-1.43,6.47-1.24-.22.18-1.09.47-1.7.63.9.16,1.67-.3,2.6-.14-.19.81-3.89.51-5.78,1.28.97.25,3.64-.89,2.73.05,1.32-1.21,3.46-.16,5.76-1.19l-.12.49c.37-.11,1.13-.4,1.82-.44l-1.2.72c1.88-.69,3.73.13,5.55-.27-3.85.29-.91-.51-2.57-.73,4.71-.99,2.83,1.04,8.13.43-.72.12-2.73-.09-1.62-.39,1.02.03,2.37.11,3.01.32,3.52-.35-.58-.45.9-.85,1.24.49,1.71-.36,3.25-.65l.05.48c4.04.02,1-1.08,4.64-.96l-1.48.78,1.87-.31-.35.58c2.02-.55,2.67-.49,4.69-.48-.49-.31.2-.89,1.98-1.03,1.23.2-.65.51,1.87.26-.55.34-1.15.76-2.28.4-.1.16-.54.34-.65.51,1.33.24,3.29-.16,4.2-.23-.35,0-.77.01-.99-.04,1.2-.32,2.41-.6,3.62-.89.59.15.14.32-.3.49.74-.09,1.24-.34,2.33-.44-.26.41-.17.81-1.7,1.08l3.46-.63c.24.16,1.82.37,1.37.54,1.95.12,4.7-1.02,7.28-.86.13-.08.39-.17.93-.26,2.41-.04,4.57.32,7.4-.38l1.66.61c2.23-.28-2.24-.76,1.47-1.23,2.63-.37,1.01.54,1.95.7,1.29-.41,3.54-1.22,5.99-.74-.8.16-1.43.09-2.18.17ZM198.93,5.82c-.53.11-1.59.45-1.99.18.59-.57,1.07-.31,1.99-.18ZM240.92,3.89c-.4.16-1.01.09-1.71-.09.5-.04,1.08-.03,1.71.09ZM358.13,3.4s-.04.01-.06.02c-1.18-.25-.76-.15.06-.02ZM360.6,3.73c.25-.05.24-.12.14-.19-.18.11-.74.09-1.37.03.17.14.48.24,1.23.17ZM93.93,7.92l.49.08c-1.08.23-.78.08-.49-.08Z"/>
      <path class="cls-1" d="M236.16,4.59c-.15-.08-.2-.17-.23-.26-.21.08-.21.18.23.26Z"/>
      <path class="cls-1" d="M154.19,8.32h-.08s-.07.06-.08.09l.16-.09Z"/>
      <path class="cls-1" d="M321.99,6.03c-.51-.09-.79-.19-.98-.28-.03.12.2.22.98.28Z"/>
      <path class="cls-1" d="M373.8,3.77l-1.6.02c.77.03,1.04.15,1.42.25-.03-.11-.32-.3.18-.27Z"/>
      <path class="cls-1" d="M387.38,7.67c.24-.04.49.03.73-.02l-.05-.23c-.99-.05-1.69.08-.68.25Z"/>
      <path class="cls-1" d="M375.17,5.46c.1.41,1.1.34,2.22.34-.07,0-.13,0-.2-.01.37-.54-.83-.44-2.02-.33Z"/>
      <path class="cls-1" d="M377.65,5.81c.34,0,.69.02,1.03.06.15-.22-.41-.08-1.03-.06Z"/>
      <path class="cls-1" d="M363.77,3.65c.52.14.36-.5.65-.31.62-.48-3.56.39-.65.31Z"/>
      <polygon class="cls-1" points="375.98 6.86 375.62 6.33 374.97 6.69 375.98 6.86"/>
      <path class="cls-1" d="M367.23,5.91l1.77.26c-.02-.09.21-.12.49-.14-1.09-.09-2.29-.27-2.25-.12Z"/>
      <path class="cls-1" d="M369.48,6.02c.57.05,1.11.07,1.44.01-.31-.02-.97-.04-1.44-.01Z"/>
      <polygon class="cls-1" points="373.54 6.85 373.03 6.71 371.77 6.59 373.54 6.85"/>
      <path class="cls-1" d="M348.12,4.75l-1.95.04c-.21.16.32.29,1.04.26.47-.1,1.19-.12.9-.31Z"/>
      <path class="cls-1" d="M353.92,6.42c-.52-.13-.55-.24-.83-.42l-.09.62.93-.19Z"/>
      <path class="cls-1" d="M348.25,6.28c-.2.16-2.84.35-.38.44.21-.16,2.16-.2.38-.44Z"/>
      <polygon class="cls-1" points="319.05 4.22 319.54 4.23 319.51 3.21 319.05 4.22"/>
      <path class="cls-1" d="M293.21,5.93c2.29.29.56-.62,2.63-.27.55-.23-1.69-.28-1.13-.48-1.39.22-2.12.07-1.5.75Z"/>
      <path class="cls-1" d="M294.71,5.18c.22-.04.46-.08.71-.14-.4.06-.59.1-.71.14Z"/>
      <polygon class="cls-1" points="3.95 17.53 2.45 17.52 3.45 17.73 3.95 17.53"/>
      <path class="cls-1" d="M1.24,18.66l-.44-.6-.8.7c.33-.07.96-.21,1.24-.1Z"/>
      <path class="cls-1" d="M203.07,7.02l.11-.16c-.23-.16-.58-.17-1.27-.18l1.17.34Z"/>
      <polygon class="cls-1" points="183.02 7.22 183.37 7.22 182.7 6.66 183.02 7.22"/>
      <path class="cls-1" d="M166.25,8.65c.69-.02,1.49-.18,2.18-.18-1.49.16-2.4-.54-2.18.18Z"/>
    </g>
  </g>
</svg>