<?xml version="1.0" encoding="UTF-8"?>
<svg id="Layer_2" data-name="Layer 2" xmlns="http://www.w3.org/2000/svg" viewBox="0 0 88.43 15.65">
  <defs>
    <style>
      .cls-1 {
        fill: #71d9d2;
      }
    </style>
  </defs>
  <g id="Layer_1-2" data-name="Layer 1">
    <g>
      <polygon class="cls-1" points="26.26 13 21.18 15.58 22.07 10.07 18.01 6.11 23.61 5.26 26.15 .22 28.74 5.23 34.38 6.05 30.33 9.98 31.26 15.58 26.26 13"/>
      <polygon class="cls-1" points="62.31 12.86 57.21 15.46 58.12 9.93 54.04 5.98 59.66 5.12 62.21 .07 64.76 5.08 70.39 5.93 66.38 9.87 67.29 15.43 62.31 12.86"/>
      <polygon class="cls-1" points="44.25 12.93 39.2 15.53 40.09 10.02 36.06 6.07 41.65 5.17 44.18 .13 46.75 5.16 52.37 5.99 48.36 9.95 49.27 15.5 44.25 12.93"/>
      <polygon class="cls-1" points="8.25 13.07 3.15 15.65 4.06 10.15 0 6.2 5.6 5.31 8.14 .27 10.69 5.29 16.32 6.13 12.31 10.08 13.23 15.64 8.25 13.07"/>
      <polygon class="cls-1" points="80.32 12.8 75.24 15.39 76.14 9.88 72.08 5.92 77.71 5.03 80.23 0 82.8 5.03 88.43 5.86 84.4 9.8 85.32 15.36 80.32 12.8"/>
    </g>
  </g>
</svg>