<?xml version="1.0" encoding="UTF-8"?>
<svg id="Layer_2" data-name="Layer 2" xmlns="http://www.w3.org/2000/svg" viewBox="0 0 247.66 8.92">
  <defs>
    <style>
      .cls-1 {
        fill: #83ded8;
      }
    </style>
  </defs>
  <g id="Layer_1-2" data-name="Layer 1">
    <g>
      <path class="cls-1" d="M247.34,1.16c.37.03.23-.38.29-.46-.61.1-.27.57-.29.46Z"/>
      <polygon class="cls-1" points="241.31 2.17 241.42 2 240.53 2.43 241.31 2.17"/>
      <path class="cls-1" d="M235.67,2.22c.54.71,2.04-.13,3.05.11l.17.16.45-.58c-1.22.1-2.8.5-3.67.31Z"/>
      <path class="cls-1" d="M232.65.7c.19.28-.65.25.7.08-.07-.03-.09-.05-.13-.07-.12,0-.29,0-.57-.01Z"/>
      <path class="cls-1" d="M233.22.71c.59-.03-.39-.23,0,0h0Z"/>
      <path class="cls-1" d="M230.48.9l.78-.26c-.17-.16-.86-.19-.6-.31-.8.14-.64.3-.18.57Z"/>
      <path class="cls-1" d="M229.74,1.43l.4-.11c-.07-.07-.18-.09-.4.11Z"/>
      <path class="cls-1" d="M231,1.09l-.86.23c.11.11.13.35.39-.08-.07.21.1,0,.46-.15Z"/>
      <path class="cls-1" d="M231.49,1.19c.44.15,1.01.24.23.5,1.5-.11,1.27-.61-.23-.5Z"/>
      <path class="cls-1" d="M235.39,2.96l.59.2.51-.24c-.25.12-1.13-.18-1.09.04Z"/>
      <path class="cls-1" d="M225.6.58c-.05.15.27.4.33.6l.58-.18c-.3-.1-.86-.19-.9-.42Z"/>
      <path class="cls-1" d="M225.92,1.17l-.86.27c.77.02.91-.1.86-.27Z"/>
      <polygon class="cls-1" points="229.61 2.22 231.02 1.66 229.33 2.23 229.61 2.22"/>
      <polygon class="cls-1" points="222.29 .59 222.78 .23 221.91 .77 222.29 .59"/>
      <path class="cls-1" d="M220.1.67c.36-.29-.5-.49-.12-.67-.59.06-1.1.31-1.56.54.49-.13,1-.1,1.68.13Z"/>
      <path class="cls-1" d="M217.66.88c.24-.07.49-.2.77-.33-.26.07-.51.17-.77.33Z"/>
      <path class="cls-1" d="M223.59,1.38c-.07-.09-.2-.33-.69-.43l.34.42c.1,0,.22,0,.34,0Z"/>
      <path class="cls-1" d="M223.26,1.39h-.01c-.37-.02-.63-.03-.74-.03.09,0,.32.01.75.03Z"/>
      <path class="cls-1" d="M223.67,1.38s-.05,0-.09,0c.03.04.05.06.09,0Z"/>
      <path class="cls-1" d="M227.34,1.86c-.51.24-1.56.51-.53.86.36-.3-.23-.5.53-.86Z"/>
      <path class="cls-1" d="M224.1,1.91l.92.09c-.02-.11-.19-.28.06-.4l-.98.31Z"/>
      <polygon class="cls-1" points="223.65 2.05 224.1 1.91 223.76 1.88 223.65 2.05"/>
      <path class="cls-1" d="M219.24,1.26c-.4.19-.83.21-1.32.24.53.08,1.07.12,1.59.11.07-.14.3-.38-.27-.36Z"/>
      <path class="cls-1" d="M221.19,1.36s-.06.02-.09.03c.05.04.1.05.09-.03Z"/>
      <path class="cls-1" d="M213.09,1.55s.05.05.08.08c0-.03.01-.05.02-.07h-.1Z"/>
      <path class="cls-1" d="M219.59,1.7c.4.08.63-.03.85-.16-.3.05-.61.08-.94.08-.03.06-.04.1.09.08Z"/>
      <path class="cls-1" d="M216.31,1.09c.21.09.44.16.69.23-.2-.13-.61-.34-.69-.23Z"/>
      <path class="cls-1" d="M220.97,1.27s.04-.01.06-.02c-.13-.09-.11-.05-.06.02Z"/>
      <path class="cls-1" d="M220.97,1.27c-.2.06-.36.17-.52.27.24-.04.46-.08.66-.15-.05-.03-.1-.08-.13-.12Z"/>
      <path class="cls-1" d="M211.65,4.31c.07-.4,1.1-.77,2-.36.88-.31.29-1.6-.49-2.32-.03.17-.02.33-.93.58.32.21,2.02.49,1.26.85-1.2.22-.99-.13-1.57-.33.5.49-1.52.73-1.25,1.46l1.05-.27c.02.11-.36.3-.07.4Z"/>
      <path class="cls-1" d="M214.9,1.65l.37-.05c-.43-.07-.73-.22-1.3-.53-.62.2-.75.35-.79.48l1.84.04-.13.06Z"/>
      <path class="cls-1" d="M216.95,1.58c-.29.43-1.18.63-.63,1.09,1.1-.04.76-.37,1.42-.56-1.77.12.51-.24-.78-.48.35-.08.66-.1.95-.12-.32-.05-.63-.11-.92-.19.02,0,.03.02.04.03h0s0,0,0,0c.08.05.1.09.02.05,0,0-.03,0-.04,0-.01.06-.04.11-.08.16-.51-.08-.08-.11.08-.16,0-.02.02-.04.02-.06,0,0,0,0,0,0l-1.77.25c.38.06.85.04,1.68-.02Z"/>
      <path class="cls-1" d="M225.87,3.66c-.06-.04-.05-.07-.06-.1-.11.05-.16.09.06.1Z"/>
      <path class="cls-1" d="M225.13,3.4c.13-.06.23-.23.65-.19.36.13,0,.21.02.35.25-.12.88-.32.09-.52l-.12.06c-.72-.14-1.64-.67-1.51-.73.21.39.4.66.88,1.04Z"/>
      <path class="cls-1" d="M220.99,2.6l-1.47.23.76.37-.04-.22c.84.08.66-.19.76-.37Z"/>
      <polygon class="cls-1" points="212.92 1.34 213.11 .88 212.26 1.53 212.92 1.34"/>
      <polygon class="cls-1" points="211 1.41 211.07 1.01 210.56 1.26 211 1.41"/>
      <path class="cls-1" d="M102.79,7.36l-.43.12c.2-.04.34-.08.43-.12Z"/>
      <path class="cls-1" d="M105.93,7.36l.07-.2c-.14.11-.2.19-.07.2Z"/>
      <path class="cls-1" d="M163.88,1.91c-.64-.36-1.35-.93-1.27-.49l.2.43c.44-.08.78-.04,1.07.05Z"/>
      <path class="cls-1" d="M131.64,4.81c.06.04.12.09.19.13.15-.15.3-.29.42-.42-.18.09-.39.19-.61.29Z"/>
      <path class="cls-1" d="M131.21,6.61l-.84-.27c.19.1.46.19.84.27Z"/>
      <path class="cls-1" d="M85.64,7.99l-.5.45c.79-.01.44-.23.5-.45Z"/>
      <path class="cls-1" d="M191.35,1.76c-.55-.16-.98-.23-1.36-.25.66.24,1.19.61,1.36.25Z"/>
      <path class="cls-1" d="M103.98,2.75c-.26.08-.38.17-.37.27.27-.08.43-.16.37-.27Z"/>
      <path class="cls-1" d="M188.41,1.53c.1.04.19.06.29.1.4-.08.8-.14,1.29-.12-.49-.18-1.04-.29-1.57.02Z"/>
      <path class="cls-1" d="M23.43,8.23s-.1-.03-.14-.05c-.01.06.05.06.14.05Z"/>
      <path class="cls-1" d="M5.27,4.02c.18-.03.47-.03.74-.04-.13-.03-.36-.02-.74.04Z"/>
      <path class="cls-1" d="M203.28,1.29c.41-.03.06-.05,0,0h0Z"/>
      <path class="cls-1" d="M205.27,2.99c-.09.05-.15.11-.16.21.03-.1.09-.17.16-.21Z"/>
      <path class="cls-1" d="M184.39,4.27s-.02,0-.04,0c.12.08.1.07.04,0Z"/>
      <path class="cls-1" d="M203.89,1.49c-.15-.05-.33-.09-.52-.12.08.03.24.07.52.12Z"/>
      <path class="cls-1" d="M203.81,1.28c.14.02.25.03.36.04.05-.07,0-.12-.36-.04Z"/>
      <path class="cls-1" d="M202.71,1.32c.23,0,.45,0,.66.04-.08-.03-.11-.05-.09-.07-.12,0-.29.02-.57.03Z"/>
      <path class="cls-1" d="M56.75,6.74s-.06-.02-.09-.04c-.41.18-.23.15.09.04Z"/>
      <path class="cls-1" d="M153.34,6.51s.03-.02.05-.02c-.02,0-.04-.01-.06-.01v.04Z"/>
      <path class="cls-1" d="M151.88,6.85c.62-.55.97-.48,1.44-.37l-.5-1.25-.95,1.62Z"/>
      <path class="cls-1" d="M95.27,7.56l1.03.38c-1.23.65-2.13.44-1.16.98.13-1.36,3.99-.18,4.12-1.54l.68.28c-.19-.01-.22.07-.42.06,1.32.64.97-.99,2.67-.81.59.1,1.01.29.6.46l1.31-.35c.38.02.29.26-.09.24l2.01-.13v.04c.27-.22.92-.55,1.23-.69.51.19-.25.15-.12.31l1.11-.34c.46.35-.46.7-1.23.66,1.05,1.35.92-.35,3.17.42l-1.05.18c.68.76,1.5.48,2.69.95-.28-.25-2.39-1.19-1.18-1.54.34.1.79.14,1.44-.14.01.48.65.36,1.44.32l-.05.64c.86-.19.79-.52,1.29-.81.96.05,1.16.55,1.39.96,1.54.09-1.07-.78.75-.92,1.28.23,2.17-.04,3.7-.44.9.21-.15.39.17.57l.79-.52c.19.01.13.17.1.25.67-.2.05-.64,1.1-.82.28-.71,2.16,1.01,3.45.2.32.18-.15.39-.05.64,1.78-.54,1.52-.4,2.98-1.12l1.25.41c-.92-.47.24-1.05,1.26-1.53-.33-.23-.61-.43-.79-.52l1.63-.36c.2.1.04.32-.23.59.11-.05.22-.11.3-.16.59.23.29.6-.13.96-.2-.12-.4-.26-.59-.39-.4.39-.77.83-.69,1.2.11-.07.31-.14.53-.18-.1.11-.17.2-.12.26.06.07.23-.08.49-.24l.38.71.09-.28,2.14.43c1.52-.73,2.84-1.8,5.27-2.12-.6.53-.12.86-.15,1.48-.67-.65-1.88.3-3.14.18.66.06.52.36.35.46l2.24-.62c-.05.51.48.38,1.07.58-.45-1,1.67-.68,2.58-1,.06.34-.16.68-1.27.61,1.24.74,1.58-1.19,2.79-.56-.27.01-.42-.04-.53.13.63-.31,2.19-.08,1.83.21h-.27c1.81.11,5.5-.04,5.76-.89.02.11-.23,1.03-.33,1.2l3.2-2.89c-.28.73.83,2.46-.66,2.89.43.1.96.22,1.87-.05-.29-.1-.74-1.05-.34-1.12,1.11.8.77.43,2.13,1.11-.44-.15.04-1.3.73-1.27-.11.17.07,1.13-.18,1.25l1.72-1.14c-.43.21-.07.95.32,1.27-.18-.22,1.5,0,1.96-.11l-.74-.25c1.96.15,1.91-1.6,3.85-1.56-.23.23-.57,1.44.42,1.57.45-.58,1.97-2.79,3.68-3.25l.33.33,1.31-.39c-.81.87-3.09,2.72-4.34,3.44.73.25.21.39,1.3.35.39.3-.59.47-.91.5l2.55.17c-.12-.67,1.94-.69,1.84-1.25l-2.76.72c-.12-.67,1.58-1.92,3.39-1.82.46.26-.33,1.2-.29,1.42.23-.23,1.71-.46,1.88-.3l-.76.37c1.01.24,1.63-.91,2.85-.28.42.04,1.25.85,1.32.46-.69-.76-.84-3.13-.4-3.71.15.05,2.2.71,2.68,1.09.69.59-1.02,1.44-.43,1.95.02-.18.4-.41.56-.49.44.15-.18.57.77.48.15-.68,1.94.04.44-.58.93-.2.99.13,2.08.09-.35-.44.97-1.51,1.9-1.71-.05.17.16.4.26.5,1.91.04,2.94.34,4.72.33.17.16,1.03.35.66.65.25-.12.49-.36,1.04-.38,1.07.58-1.22.1-.41.8.07-.4,1.41-.56,2.19-.82-.25-.61-1.81-.1-2.59.15-.01-.84,1.34-1.74,3.2-2.15,1.48-.22.65.54.9.42,2.78.12,2.35-1.5,4.66-.91.92.53.05,1.07.26,1.46-1.2.22-1.85-.32-2.67-.29l1.01.24c-.38.18-1.18.33-1.62.17.77.48,4.69.05,6.84.47.38-.18,1.03-.38.72-.59l-.68.08c-.63-.43,1.27-.61.41-.81.91-.31,1.92-.8,3.2-.57l.25.61c-.03-.18-.84-.36-1.2-.17.53-.28,1.97.81,2.55,0l-.9-.42c.91-.32,2.03-.98,3.17-.8-.52-.6-.26.07-1.07-.63.71.87-2.9,0-1.77.91-.83-.81-1.43-.33-2.52-1.03.04.2.39.38-.57.29-.04.06-.14.14-.21.18-.03,0-.04,0-.06-.01.02,0,.03.02.05.02-.04.03-.04.04.02,0,.23.09.41.19.49.3-.47.47-1.98.47-2.49.71-.57-.09.23-.23-.08-.45l-.76.37c-.08-.45-1.51-.73-.18-1.01h-1.2c-.71-.25-1.68-.34-2.28-.15-.57-.09-1.42.51-.93.15l-1.88.3-.02-.11c-1.85-.04-3.81.78-5.94,0-.62.12-1.27.26-2.31.15l-.21-.39c-.8.14-2.41-.37-2.75.04-.87-1.04-3.89-.19-5.3-.36l-.05.51c-.97-.02-1.9.13-3.1.35l.08.45c-1.03.38-2.67-.29-4.31-.23.11-.17.53-.13.82-.03-1.97-.99-4.13.78-5.92.06-.44.17-.76.11-1.08,0,.04,0,.08-.01.11-.02-.05,0-.11,0-.18,0-.2-.08-.4-.16-.62-.23.19.11.37.2.52.24-.34.01-.86.07-1.37.19l-.22-.48s-.07,0-.12.01c-.5-.17-.4.23-.13.59-.26.08-.49.18-.67.3-.41-.77-1.33.27-1.89-.55-.34.41-2.55.33-2.82,1.18-.02-.11-.17-.16.11-.17-.57-.09-1.14-.18-1.64.06l-.25-.61-1.23.84c-.76-.37-1.07-.58-.33-1.06-1.8.74-1.46.29-2.99,1.02l.07-.4c-.55.02-1.42.56-1.75.23-1.23-.74-6.07-.05-9.22-.71.62,1.16-1.47-.51-1.58.4-.19-.27-.63-.43-.12-.67-1.6.29-2.42-.41-3.52.36-.19-.27.34-.41.17-.57-.13.06-.51.24-.68.08-.17-.16.23-.23.49-.36-1.64.06-1.8.91-1.91,1.71-.83-.37-1.25-.31-1.84.22-.29-.26-.78-.53.24-.63-.57-.03-3.51-.35-3.56.29-.18-.16-.8-.04-.95.04-1.29-.03-1.4-.08-2.66,0l.35.1c-.49.78-1.05.18-2.07.28l.03-.08c-2.34-.53-1.01.28-3.32-.34l.13.48c-.2,1.03-2.05-.59-3.38-.18l.49.27c-.73.36-2.05-1.38-2.79-1.5-.16-.09.25-.15.47-.21-1.93-.59-.24.63-1.67.79-.27-.34.33-.87-.63-.92-.48-.27-2.78,1.13-4.1.49.29.26.58.52-.08.72-1.02.1-2.76-.96-3.68-.13-.13-.07-.18-.14-.19-.2-.78.22-2.53.38-2.99.83-.74-1.65-4.83.85-4.83-.68l-2.39.1.06-.16c-1.53-.09-2.07.28-2.6.66-.35-.1-.1-.25-.07-.33-2.24-.29-2.46-.22-4.33.56l-.2-.49c-.51.29-3.24-.75-5.43-.15.02-.06.07-.15.24-.22-2.46.61-5.92-1.32-6.81.5l-1.62.46c2.11.12-.31.79.56,1.08-.83.11-2.15-.52-1.13-.63l.16.09c.37-.94-2.62-.31-2.57-.95-4.15.09-8.19-.4-12.08-.4l.45.73-1.36-.03c-.36-.17-.48-.57.48-.55-.51-.41-1.62.36-1.64.52-1.9-.28.73-.86.15-.87l-.79.06.18.08c-.64.3-.69.62-1.85.6-.74-.14-.38-.45-.67-.47,0-.05-.1-.08-.44-.02l-1.71-.05.69.57c-.75.29-1.61-.01-.81.63-1.17-1-6.37-.3-7.08-.61-1.06.43-2.1.43-3.4.4.32.12.52.76-.6.7.4-1.34-2.05-.56-2.96-1.52.81.63-3.18.19-1.9,1.08-.93-.1-.06-.5-.77-.81-2.21.54-4.9-.29-7.64-.09-.04.18.42.44-.17.71l-1.46-.87c-.54.09-.49,1.02-1.49.42.14.15.35.37-.01.43-5.38-.81-10.98.81-16.45-.75.74.33.25.37-.31.39.37.08,0,.43.07.67l-2.29-.64c-.41.67-2.45.07-2.68.7l.72-.12c-.96.76,1.36,1.65,1.23,2.61,1.07-.86,2.85,1.23,4.61,0,.39.19-.33.31-.12.53.44-.41.98-.51,1.99-.33l-.11.1c2.82-.13,4.03.27,7.2.5l-.24-.47c.68.06.83.2,1.15.32.77-.73-1.91-.02-1.21-.82.91.96,4.8-.03,5.42,1.06,1.05,0-.31-.55.73-.55l.28.29.26-.38c.69.06,1.04.42,1.06.67-.17-.03-.47.07-.65.1.89.34,2.51-.14,2.81-.03l-1.01-.17c2.85-.3,6.34.05,9.1-.58l-.21-.22c2.1-.43,1.69.23,4,.02l-.08.05c.46-.23,1.08-.35,1.71-.33-.58.27,1.1.5.34.8,2.28-.47,1.13-.36,2.63-1.2l.35.37c.51-.34.55-.52,1.71-.62-.94.33.74.56-.31.99,2.43.79,3.59-.85,4.72.32,1.1-1.04-2.1-.55-1.48-.78-.53-.33.91-.78,1.67-.68.77.02,1.33,1.3,3.28,1.26-.19,0-.21.07-.4.07.73.25,1.43-.37,2.32.05.5-.63,1.16.02,1.3-.77l-1.79.2c1.01-.22,1.95-1.15,3.63-.72-.13.16-.62.38-.96.5.49.23.94-.16,1.45.07-.14.79-2.17.19-3.25.81.53.33,2.05-.59,1.51.27.77-1.1,1.92.12,3.23-.73l-.08.48c.21-.08.64-.3,1.02-.3l-.69.62c1.06-.54,2.06.44,3.09.14-2.15.04-.49-.57-1.4-.9,2.64-.66,1.53,1.23,4.49.97-.4.07-1.51-.27-.88-.5.56.09,1.31.27,1.66.51,1.96-.12-.31-.49.53-.78.67.57.96-.24,1.82-.44v.48c2.25.29.59-1.01,2.61-.66l-.84.68,1.05-.18-.21.55c1.14-.42,1.49-.32,2.61-.17-.26-.34.14-.88,1.13-.9.68.28-.37.46,1.03.38-.31.3-.66.69-1.27.25-.06.16-.31.31-.37.46.73.32,1.83.06,2.34.05-.2-.02-.43-.04-.55-.11l2.03-.69c.32.18.07.33-.18.47.41-.06.69-.28,1.3-.33-.15.39-.11.8-.97.99l1.94-.45c.13.17,1,.46.75.61,1.08.22,2.63-.79,4.06-.5.07-.08.22-.15.52-.21,1.34.08,2.53.55,4.11,0l.91.69c1.24-.17-1.23-.87.84-1.16,1.46-.24.55.59,1.07.79.73-.36,1.99-1.09,3.34-.54-.44.14-.79.04-1.21.09ZM110.6,7.1c-.3.1-.89.42-1.11.14.33-.56.6-.29,1.11-.14ZM133.91,5.71c-.22.16-.56.09-.95-.09.28-.04.6-.03.95.09ZM198.82,1.73s-.02.01-.03.02c-.66-.18-.43-.11.03-.02ZM200.2,1.93c.14-.07.13-.14.07-.2-.09.12-.4.13-.76.1.1.13.28.21.69.1ZM52.37,3.54l.27.12c-.6.14-.44.02-.27-.12Z"/>
      <path class="cls-1" d="M131.27,6.4c-.08-.08-.11-.17-.13-.26-.12.08-.12.18.13.26Z"/>
      <path class="cls-1" d="M85.73,7.9s-.03,0-.05,0c-.03.03-.04.06-.05.09l.09-.08Z"/>
      <path class="cls-1" d="M178.92,6.22c-.28-.07-.44-.15-.55-.24-.01.12.12.22.55.24Z"/>
      <path class="cls-1" d="M207.49,1.04l-.88.13c.43-.03.58.08.8.15-.02-.11-.19-.27.08-.28Z"/>
      <path class="cls-1" d="M215.17,3.95c.13-.06.27,0,.4-.07l-.04-.22c-.55.02-.93.2-.36.29Z"/>
      <path class="cls-1" d="M208.32,2.63c.07.41.63.26,1.24.18-.04,0-.07,0-.11,0,.18-.57-.48-.38-1.13-.18Z"/>
      <path class="cls-1" d="M209.71,2.8c.19-.02.38-.03.57-.02.07-.23-.23-.05-.57.02Z"/>
      <path class="cls-1" d="M201.94,1.64c.29.1.18-.52.35-.36.32-.52-1.95.64-.35.36Z"/>
      <polygon class="cls-1" points="208.83 3.96 208.61 3.46 208.26 3.87 208.83 3.96"/>
      <path class="cls-1" d="M203.95,3.64l.99.13c-.02-.08.11-.13.26-.17-.61-.01-1.28-.1-1.25.04Z"/>
      <path class="cls-1" d="M205.2,3.6c.32,0,.62,0,.79-.09-.17,0-.54.03-.79.09Z"/>
      <polygon class="cls-1" points="207.48 4.13 207.19 4.03 206.49 4 207.48 4.13"/>
      <path class="cls-1" d="M193.34,3.65l-1.08.15c-.11.17.19.28.59.2.26-.12.66-.19.49-.36Z"/>
      <path class="cls-1" d="M196.61,4.99c-.29-.1-.31-.21-.48-.38l-.03.62.51-.25Z"/>
      <path class="cls-1" d="M193.47,5.16c-.11.17-1.56.51-.19.46.11-.17,1.19-.33.19-.46Z"/>
      <polygon class="cls-1" points="177.23 4.53 177.51 4.52 177.46 3.51 177.23 4.53"/>
      <path class="cls-1" d="M162.95,7.11c1.28.23.3-.63,1.45-.34.3-.24-.95-.24-.64-.45-.77.26-1.17.12-.81.79Z"/>
      <path class="cls-1" d="M163.77,6.32c.12-.04.25-.09.39-.16-.22.07-.33.12-.39.16Z"/>
      <polygon class="cls-1" points="2.26 3.5 1.43 3.3 1.97 3.64 2.26 3.5"/>
      <path class="cls-1" d="M.69,4.27l-.2-.65-.49.59c.19-.03.54-.09.69.06Z"/>
      <path class="cls-1" d="M112.9,8.39l.06-.16c-.13-.17-.32-.18-.71-.2l.65.36Z"/>
      <polygon class="cls-1" points="101.76 8.01 101.95 8.02 101.59 7.43 101.76 8.01"/>
      <path class="cls-1" d="M92.42,8.84c.38.02.83-.11,1.21-.09-.83.11-1.32-.64-1.21.09Z"/>
    </g>
  </g>
</svg>