<?xml version="1.0" encoding="UTF-8"?>
<svg id="Layer_2" data-name="Layer 2" xmlns="http://www.w3.org/2000/svg" viewBox="0 0 1252.7 912.2">
  <defs>
    <style>
      .cls-1 {
        fill: #003b71;
      }
    </style>
  </defs>
  <g id="Layer_1-2" data-name="Layer 1">
    <path class="cls-1" d="M1252.7,888.24c-.07-.02-.14-.04-.21-.06.06,0,.14,0,.21,0V2.38c-32.78-1.17-65.76-1.54-98.68-1.91-27.28-.31-54.65-1.22-81.86.88-25.31.09-50.71-.93-75.81,1.59-28.59-2.7-57.08-1.47-85.55.53-8.88-.02-17.86-.52-26.4,1.25-4.36.08-8.72.15-13.08.23-10.31.01-20.73-.51-30.7,1.41h-.02c-22.15-.27-43.84,1.78-65.65,3.24h0c-5.23.15-10.46.3-15.68.45-10.52-2.54-16.27,4.77-26.32,3.2-.65-.02-1.31-.04-1.95-.04-8.64,0-16.25,2.12-24.35,3.25-2.17.05-4.34.09-6.52.14-1.19.04-2.39.08-3.58.12-4.89-1.01-10.25-.91-14.33.33-23.61,7.24-50.25,4.42-75.4,5.46-16.18.67-32.36,1-48.54,1.12.06,0,.1,0,.16-.01v-.08c-1.43.02-2.86.05-4.28.08.15.01.3.02.46.04-4.78.02-9.57.04-14.36.02.5-.02.99-.05,1.49-.06-.57-.08-1.14-.16-1.71-.23-.57.03-1.14.05-1.71.08v.22c-.69,0-1.37,0-2.05,0,.12-.02.23-.04.34-.06h-1.71c.1.02.21.04.3.05-1.48,0-2.96-.02-4.44-.03-.05,0-.1-.02-.14-.02.01,0,.03.01.04.02-.71,0-1.42-.01-2.11-.02-.02,0-.04,0-.06,0h-.87c-3.11-.02-6.22-.05-9.32-.08-.03-.03-.05-.05-.08-.08-.1.04-.18.04-.28.07-4.6-.05-9.19-.12-13.78-.19,1.12-.06,2.24-.12,3.35-.19-.3-.11-.6-.21-.89-.33l-.5-.03c-1.83.42-.71.36-3.31.28-.17.08-.35.15-.52.23h-.19c.09-.05.19-.1.28-.15h-.85c.09.05.18.1.27.15-.21,0-.41,0-.62-.01-.17-.05-.34-.09-.51-.13l-3.51.07c-37.92-.68-75.83-1.9-113.74-2.41-63.12-.85-126.12-.23-189.13,1.62-39.59,1.16-79.13,1.5-118.61.81.25-.02.5-.06.75-.09-.28-.04-.55-.1-.83-.11-.28,0-.59.06-.91.11.23.02.45.06.67.08C50.2,22.79,25.09,21.93,0,20.6v877.67c4.01.06,8.02.12,12.02.19,8-.93,71.59,1.5,86.85,1,.27-.01.52-.02.78-.02.14.13.27.25.39.38v-.32c-.07-.02-.15-.05-.22-.07,1.86-.05,3.69-.09,5.5-.11-.45.42-.03.5-.92.89,1.88,0,1.54-.07,3.87.16-.16-.16-.32-.32-.48-.47.48.05.96.11,1.45.16.32-.2.65-.42.97-.63-.32.05-.65.11-.97.16-1.11-.09-2.23-.18-3.34-.27,8.08-.09,15.66.09,22.38.28.91.12,1.82.25,2.74.38.34-.09.68-.19,1.02-.28,6.89.19,12.71.32,16.95.02.92.06,1.84.11,2.77.17.06.04.12.06.19.1,1.34.08.72.02.84-.18.06.01.14.02.21.04.23.1.45.19.67.29.14-.12.28-.25.42-.38,1.58.05,2.53.09,3.23.13.11.05.21.11.32.16.38-.02.77-.04,1.15-.06.37.02.76.05,1.29.08.71.03,1.43.05,2.13.08v-.08c-.85-.05-1.71-.1-2.56-.15,3.55-.23,9.55-.31,16.86-.29.16.06.32.13.48.19.17-.06.34-.13.5-.19.27,0,.53,0,.8,0-.12.04-.23.07-.35.11.41-.05.77-.08,1.09-.11,10.62.05,23.61.27,36.14.48.01,0,.02.01.04.02.08,0,.16-.02.25-.02.5.01,1.01.02,1.52.03-.1.05-.21.1-.31.15.8-.04,1.6-.08,2.4-.11,19.91.33,37.77.59,41.56.05,6.19.08,12.39.15,18.58.23,4.18.2,8.01.39,11.36.57v.28c.14.02.28.05.43.08.56-.08,1.12-.16,1.68-.24.48.03.92.05,1.38.08.25.2.39.43.27.64h-.91c-.23-.08-.47-.16-.7-.25-.14.14-.27.29-.4.43h-.03v-.36c-.52.07-1.03.13-1.54.2.44.06.88.11,1.32.17-.12.01-.2.01-.4.04-1.43-.05-2.86-.09-4.3-.14.36-.06.72-.13,1.08-.19h-2.15c-.14.02-.28.05-.43.08v.36c-.16-.03-.31-.06-.43-.09v-.27c-.25-.02-.49-.05-.74-.06-.1-.05-.2-.1-.3-.15-.74.1-1.47.2-2.21.3l-.82-.12c-.17-.12-.54,0-1.8-.25h-.48c-.32.16-.65.31-.97.47v-.47c-12.18.47-40.97-1.52-46.45-.86,2.62.22.89.15,2.9.54,4.97-.19,8.75.74,13.06-.08v.39c4.3-.57,6.41.36,10.16-.16.48.29.97.57,1.45.86,1.94.05,3.88.11,5.81.16v.08c-3.12.32-1.25.12-1.45.55-1.78.13-3.56.26-5.33.39,4.71.34,27.46.05,30.48.47,3.63.5,9.53.77,15.8.87.85.1,1.68.18,2.27.13.56.22,1.22.42,1.87.61-.84-.02-1.69-.04-2.53-.05-.51.1-1.02.19-1.53.29-.3-.07-.59-.15-.88-.22v-.16s-.48,0-.48,0c-.32.16-.65.32-.97.47h-.97v-.08c.48-.11.97-.21,1.45-.32-3.74-.11-9.93-.25-12.59-.39v-.32c-.65.05-1.29.11-1.93.16-.32-.02-.64-.05-.96-.08-.09.12.22.29-.48.15,2.24.68,7.85.41,11.61.39,1.12.21,2.26.42,3.39.63.85-.07,1.69-.14,2.54-.2-.36.06-.72.13-1.09.2.32.05.65.11.97.15,2.99.03.57-.08,3.38.16.65-.13,1.29-.26,1.94-.39.18.09-.41.5.97.32.37.07.95.13,1.7.19,2.63.58,5.77,1.08,9.29,1.52-.11.06-.23.12-.34.17.16.03.32.05.48.08v-.23c.62.08,1.25.15,1.91.23,0,0,.02,0,.03,0h0c20.52,2.29,53.23,2.58,85.64,2.46v.05h.97c-.06-.02-.13-.04-.2-.05.84,0,1.67,0,2.51,0-.28.04-.57.09-.85.13,1.93.02,3.48-.23,2.42.08.16.03.32.05.48.08v-.3c.54,0,1.08,0,1.62,0,.27.13.54.26.8.39,2.07-.3-.32-.12,2.42-.23-.12-.06-.23-.11-.35-.17,9.24-.05,18.34-.12,27.03-.17,12.79.98,47.2,1.04,73.47,1.19,0,0,0,.01,0,.01h0c15.02.08,27.37.2,31.45.55,2.41-.13,4.83-.26,7.26-.39l-.97.32,1.94-.32c.48-.02.96-.05,1.44-.08-.48-.05-.96-.11-1.44-.16,11.03-.83,39.05,1.05,51.77-.32,1.1.52,22.33.52,28.07.32,31.77-.26,63.55-.52,95.32-.78,3.9-.19,7.81-.38,11.73-.57,1.34.04,2.59.08,3.65.16-.48.05-.97.11-1.45.16.48.02.97.05,1.45.08.65.11,1.29.21,1.93.32-.32-.11-.64-.21-.96-.32,2.41.13,4.83.26,7.25.39,4.07-.35,16.43-.47,31.45-.56h0s0,0,0,0c29.79-.18,70.09-.22,77.4-1.63,1.6.7,23.19-.02,26.62-.47,1.13.13,2.25.26,3.38.39.36-.58,6.21-.74,9.2-1.25.26.14.52.28.79.43.49.1,1.21.23,1.7.33l3.32-.36h4.84c-.65.08-1.29.16-1.94.23.16.08.32.16.48.23.32-.02.65-.05.97-.08.81-.13,1.62-.26,2.42-.39.96.05,1.93.11,2.9.16-1.62-.16-3.22-.32-4.83-.47v-.16c13.98-.9,75.56-1.21,81.77-2.35,1.36.19.78-.23.96-.32.65.13,1.29.26,1.94.39,2.82-.24.39-.13,3.39-.16.32-.05.65-.11.96-.15l-1.09-.21,2.54.21c1.12-.21,2.26-.42,3.39-.63,3.76.02,9.37.29,11.62-.39-.71.13-.4-.03-.48-.15-.32.02-.65.05-.97.08-.65-.05-1.29-.11-1.94-.16v.32c-2.66.14-8.84.28-12.58.39.48.11.97.2,1.45.31v.08h-.96c-.32-.16-.65-.32-.97-.47h-.48s0,.16,0,.16c-.29.07-.58.14-.87.22-.52-.1-1.03-.2-1.54-.29-6.13.13-12.26.26-18.39.39l-1.23-.31c-.23-.13-.47-.27-.7-.4,2.89-.35,1.85-.07,3.87-.55,10.07.39,26.58.3,33.87-.7,3.02-.42,25.77-.13,30.48-.47-1.78-.13-3.56-.26-5.32-.39-.21-.43,1.67-.23-1.45-.54v-.08c1.93-.05,3.87-.11,5.8-.16.48-.29.97-.57,1.45-.86,3.77.52,5.86-.42,10.17.16v-.39c4.32.81,8.1-.11,13.06.08,2.02-.4.28-.33,2.91-.55-2.51-.3-9.9-.05-18.34.27l.08-.06-.85.04.45.04c-1.11.04-2.24.09-3.37.13.92-.09,1.68-.22,2.31-.39,2.08-.21,2.46-.97,1.38-1.54,26.76-1.11,54.68-2.08,61.42-2.01-.16-.15-.32-.31-.48-.47,11.35-1.19,23.25-1.03,37.26-1.73-.32.16-.65.32-.97.47,5.44.06,11.67-.79,19.31-1.21.54.13,1.07.26,1.98.48,1.25-.19,2.26-.28,2.6-.4.14-.05-.49-.18-.96-.23.43-.01.83-.04,1.26-.05,3.7.05,7.42.11,11.12.16h1.94c2.1-.42,4.2-.84,6.29-1.25,3.39.13,6.78.26,10.16.39.89-.1.41.04.48.16.81-.08,1.62-.16,2.42-.24.8.24,1.61.47,2.41.71,1.62-.05,3.23-.11,4.84-.16.16-.23.32-.47.48-.7-1.13.05-2.26.1-3.39.15v-.23c1.13-.08,2.26-.16,3.39-.23.16-.05.32-.11.48-.16-3.7-.14-7.8-.11-8.22-.23v.47c-3.58-.19-3.31.06-4.36.08-1.65.1-.25.04-2.41-.08v-.31c3.12.25,37.89-2.67,45.96-2.98v.47c-5.24.22-6.83.36-7.74,1.02,2.81-.19,5.62-.37,8.44-.57v-1.02Z"/>
  </g>
</svg>