<?xml version="1.0" encoding="UTF-8"?>
<svg id="Layer_2" data-name="Layer 2" xmlns="http://www.w3.org/2000/svg" viewBox="0 0 60.23 59.32">
  <defs>
    <style>
      .cls-1 {
        fill: #71d9d2;
      }
    </style>
  </defs>
  <g id="Layer_1-2" data-name="Layer 1">
    <path class="cls-1" d="M36.73,4.11c0,.61-.31,2.05-.91,4.34-.61,2.28-1.22,4.03-1.83,5.25-.46.46-.95.88-1.48,1.25-.53.38-.95.8-1.25,1.25-.46.46-.65,1.14-.57,2.05.08.91-.04,1.68-.34,2.28-1.07,1.22-2.47,2.66-4.22,4.34-1.75,1.67-3.23,3.42-4.45,5.25-1.22,1.68-2.74,3.73-4.56,6.16-1.83,2.44-3.42,4.34-4.79,5.7-.91,1.52-1.67,3.46-2.28,5.82-.61,2.36-.76,4.53-.46,6.5,0,.31-.08.46-.23.46-.15.15-.46.23-.91.23s-.61.23-.46.68c.15.46.23.84.23,1.14-.46,0-.72-.19-.8-.57-.08-.38-.57-.57-1.48-.57-1.07,0-1.9-.15-2.51-.46-.61-.3-1.37-1.21-2.28-2.74,0-1.52-.19-3.42-.57-5.7-.38-2.28-.57-3.88-.57-4.79v-2.62c0-.99.23-1.94.68-2.85,1.06-2.89,2.93-6.39,5.59-10.5,2.66-4.11,5.59-8.06,8.78-11.86,3.19-3.8,6.54-7.03,10.04-9.7C28.59,1.79,31.56.31,34,0h1.83c0,.61.15,1.25.46,1.94.3.68.46,1.41.46,2.17ZM60.23,15.06c0,.76-.23,1.83-.68,3.19-.46,1.37-.46,2.43,0,3.19-2.89,3.65-5.93,7.3-9.13,10.95-3.19,3.65-5.93,7.3-8.21,10.95-.91,1.68-2.09,4.03-3.54,7.07-1.45,3.04-3.01,5.78-4.68,8.21-.76,0-1.37.23-1.83.68-.91-.61-1.9-1.48-2.97-2.62-1.07-1.14-2.44-2.24-4.11-3.31-.31,0-.46-.07-.46-.23v-.91c-.15-.46-.27-.83-.34-1.14-.08-.3-.57-.46-1.48-.46-.76,0-1.03.11-.8.34s.11.34-.34.34c-.46-.46-.72-.68-.8-.68-.08,0-.11-.38-.11-1.14,0-.61.49-2.32,1.48-5.13.99-2.81,2.01-5.21,3.08-7.19.61-1.22,1.44-2.43,2.51-3.65,1.06-1.22,1.9-2.51,2.51-3.88.3-.76.72-1.75,1.25-2.97.53-1.22,1.03-2.13,1.48-2.74.46-.46.99-.99,1.6-1.6.61-.61,1.06-1.14,1.37-1.6.46-.3,1.22-.68,2.28-1.14,1.06-.46,1.97-.99,2.74-1.6.61-.61,1.52-1.48,2.74-2.62,1.22-1.14,2.58-2.32,4.11-3.54,1.52-1.22,3.08-2.28,4.68-3.19,1.6-.91,3.08-1.37,4.45-1.37h3.19c-1.07,1.07-1.33,2.25-.8,3.54.53,1.29.8,2.7.8,4.22Z"/>
  </g>
</svg>