<?xml version="1.0" encoding="UTF-8"?>
<svg id="Layer_2" data-name="Layer 2" xmlns="http://www.w3.org/2000/svg" viewBox="0 0 145.71 125.89">
  <defs>
    <style>
      .cls-1 {
        fill: #fff;
      }
    </style>
  </defs>
  <g id="Layer_1-2" data-name="Layer 1">
    <g>
      <g>
        <path class="cls-1" d="M.6,3.2c-.51,0-.3.4-.37.48.83-.14.34-.59.37-.48Z"/>
        <polygon class="cls-1" points="8.96 1.99 8.81 2.16 10.06 1.74 8.96 1.99"/>
        <path class="cls-1" d="M16.85,2.19c-.71-.75-2.87-.02-4.26-.29l-.23-.17-.65.56c1.71-.06,3.94-.36,5.14-.1Z"/>
        <path class="cls-1" d="M20.93,4.01c-.23-.3.92-.17-.96-.16.09.04.12.06.17.08.17,0,.4.03.79.08Z"/>
        <path class="cls-1" d="M20.14,3.93c-.82-.04.52.27,0,0h0Z"/>
        <path class="cls-1" d="M23.94,4.1l-1.1.14c.21.19,1.17.31.8.4,1.12-.03.91-.21.3-.54Z"/>
        <path class="cls-1" d="M25.02,3.68l-.57.05c.09.08.24.12.57-.05Z"/>
        <path class="cls-1" d="M23.24,3.83l1.21-.11c-.15-.13-.14-.36-.55.03.12-.2-.14-.02-.66.08Z"/>
        <path class="cls-1" d="M22.58,3.66c-.59-.21-1.37-.36-.26-.53-2.09-.06-1.82.46.26.53Z"/>
        <path class="cls-1" d="M17.29,1.48l-.81-.25-.72.21c.36-.1,1.58.26,1.54.04Z"/>
        <path class="cls-1" d="M30.6,5.27c.09-.14-.3-.45-.36-.66l-.82.07c.39.16,1.15.35,1.17.59Z"/>
        <path class="cls-1" d="M30.24,4.61l1.23-.08c-1.06-.2-1.27-.09-1.23.08Z"/>
        <path class="cls-1" d="M25.3,2.91l-2.03.35c.8-.1,1.61-.23,2.41-.32l-.38-.04Z"/>
        <polygon class="cls-1" points="35.1 6.02 34.37 6.25 35.65 5.93 35.1 6.02"/>
        <path class="cls-1" d="M38.07,6.52c-.55.19.57.61.02.69.81.11,1.54.02,2.2-.06-.68-.02-1.36-.22-2.22-.62Z"/>
        <path class="cls-1" d="M41.4,7.05c-.34,0-.71.04-1.11.09.36.01.72-.01,1.11-.09Z"/>
        <path class="cls-1" d="M33.48,4.92c.08.11.21.37.86.59l-.39-.5c-.14-.03-.3-.06-.46-.09Z"/>
        <path class="cls-1" d="M33.93,4.99v.02c.52.1.87.17,1.01.2-.13-.03-.43-.09-1.01-.21Z"/>
        <path class="cls-1" d="M33.36,4.9s.07.01.12.02c-.04-.05-.06-.07-.12-.02Z"/>
        <path class="cls-1" d="M28.4,3.66c.73-.14,2.24-.2.86-.75-.54.22.24.54-.86.75Z"/>
        <path class="cls-1" d="M32.87,4.28l-1.25-.29c0,.12.21.31-.15.38l1.4-.09Z"/>
        <polygon class="cls-1" points="33.51 4.24 32.87 4.28 33.33 4.39 33.51 4.24"/>
        <path class="cls-1" d="M39.37,6.2c.57-.06,1.17.05,1.84.17-.69-.24-1.42-.44-2.12-.6-.13.11-.48.28.28.43Z"/>
        <path class="cls-1" d="M36.74,5.54s.09,0,.12,0c-.07-.05-.12-.07-.12,0Z"/>
        <polygon class="cls-1" points="47.66 8.06 47.58 7.95 47.53 8.01 47.66 8.06"/>
        <path class="cls-1" d="M38.98,5.66c-.52-.19-.86-.15-1.2-.08.41.04.84.09,1.3.19.06-.05.07-.09-.1-.1Z"/>
        <path class="cls-1" d="M43.25,7.3c-.25-.15-.55-.3-.86-.45.24.2.74.54.86.45Z"/>
        <path class="cls-1" d="M37.02,5.7s-.05,0-.08,0c.16.12.15.08.08,0Z"/>
        <path class="cls-1" d="M37.02,5.7c.29,0,.53-.07.76-.12-.33-.03-.65-.05-.92-.04.06.04.12.1.16.15Z"/>
        <path class="cls-1" d="M50.42,6.03c-.22.34-1.72.27-2.81-.5-1.29-.04-.83,1.41-.03,2.42.09-.15.13-.31,1.4-.17-.36-.33-2.54-1.29-1.42-1.33,1.67.29,1.28.53,2,.97-.51-.69,2.25-.02,2.14-.82l-1.49-.23c0-.12.58-.12.21-.35Z"/>
        <path class="cls-1" d="M45.29,7.26l-.51-.09c.55.22.92.49,1.58.99.88.04,1.08-.03,1.18-.15-.8-.27-1.62-.49-2.43-.74h.19Z"/>
        <path class="cls-1" d="M42.52,6.61c.49-.32,1.75-.2,1.12-.84-1.5-.34-1.13.09-2.06.06,2.41.48-.74.07.93.72-.49-.04-.91-.13-1.31-.2.42.14.82.32,1.19.49-.02-.02-.03-.03-.05-.04h-.01s0,0,0,0c-.09-.08-.12-.12,0-.06,0,0,.04,0,.05,0,.03-.05.09-.09.15-.13.67.26.08.14-.15.13-.01.02-.04.03-.04.06h0c.81.13,1.63.23,2.43.38-.48-.2-1.12-.34-2.25-.56Z"/>
        <path class="cls-1" d="M30.71,2.17c.07.05.06.08.07.11.17-.03.23-.06-.07-.11Z"/>
        <path class="cls-1" d="M31.69,2.58c-.19.03-.36.18-.94.05-.49-.2.03-.2.02-.35-.37.07-1.28.14-.2.5l.18-.03c.97.3,2.16,1.02,1.98,1.06-.23-.43-.44-.74-1.04-1.22Z"/>
        <path class="cls-1" d="M37.26,4.39l2.07.2-.96-.57v.23c-1.13-.31-.93,0-1.11.15Z"/>
        <polygon class="cls-1" points="47.82 8.33 47.43 8.69 48.74 8.41 47.82 8.33"/>
        <polygon class="cls-1" points="50.35 9.07 50.14 9.41 50.87 9.4 50.35 9.07"/>
        <path class="cls-1" d="M107.79,8.34l.66.05c-.31-.04-.51-.06-.66-.05Z"/>
        <path class="cls-1" d="M103.23,7.29l-.15.17c.23-.07.33-.13.15-.17Z"/>
        <path class="cls-1" d="M70.2,49.09c-.39-.1-.77-.31-1.04-.42-.27-.11-.42-.13-.38.09l.23.41c.48-.12.85-.09,1.19-.08Z"/>
        <path class="cls-1" d="M68.45,17.84c-.1.02-.19.04-.29.06-.06.26-.13.5-.18.72.14-.24.28-.52.47-.79Z"/>
        <path class="cls-1" d="M67.86,16.05l1.16-.51c-.28.08-.66.24-1.16.51Z"/>
        <path class="cls-1" d="M129.47,21.41l.84.26c-.81-.87-.62-.34-.84-.26Z"/>
        <path class="cls-1" d="M73.2,22.04c.35.65.68,1.12,1,1.5-.38-.79-.58-1.58-1-1.5Z"/>
        <path class="cls-1" d="M104.93,12.37c.36.01.53-.04.55-.13-.38-.02-.59.01-.55.13Z"/>
        <path class="cls-1" d="M75.46,25.15c-.04-.12-.1-.23-.15-.36-.38-.36-.73-.75-1.11-1.25.26.6.59,1.24,1.26,1.6Z"/>
        <path class="cls-1" d="M133.39,106.01s-.09.11-.14.15c.04.05.09-.03.14-.15Z"/>
        <path class="cls-1" d="M118.34,124.43c-.72.34-1.77.83-3,1.4.05-.11.11-.27.18-.43-.09.14-.18.29-.27.5.66-.31,1.68-.8,3.09-1.47Z"/>
        <path class="cls-1" d="M60.04,13.18c-.51-.22-.1,0,0,0h0Z"/>
        <path class="cls-1" d="M58.31,10.47c.13,0,.24-.01.29-.1-.09.08-.18.1-.29.1Z"/>
        <path class="cls-1" d="M80.49,28.51s.01.03.02.05c.01-.19,0-.16-.02-.05Z"/>
        <path class="cls-1" d="M59.39,12.63c.16.14.36.29.58.43-.09-.08-.26-.21-.58-.43Z"/>
        <path class="cls-1" d="M59.4,12.86c-.16-.1-.29-.18-.42-.24-.1.04-.05.09.42.24Z"/>
        <path class="cls-1" d="M60.74,13.5c-.29-.13-.54-.28-.78-.44.08.07.11.12.08.12.15.07.35.16.7.32Z"/>
        <path class="cls-1" d="M144.52,60.03s-.01.09-.03.13c.24.57.18.32.03-.13Z"/>
        <path class="cls-1" d="M56.76,45.6s.03.04.05.06c0-.03-.02-.07-.03-.1l-.03.03Z"/>
        <path class="cls-1" d="M55.74,43.44c.75.85.92,1.36,1.04,2.13.3-.4.61-.78.93-1.15-.65-.28-1.36-.6-1.97-.98Z"/>
        <path class="cls-1" d="M118.15,12.64l-1.15-1.09c1.96.33,2.99,1.3,2.03.03-.46.54-1.76-.21-3.13-.86-1.39-.61-2.79-1.22-3.14-.63-.27-.24-.54-.45-.83-.65.27.11.35.04.61.17-1.63-1.29-1.73.42-4.02-.59-.81-.34-1.36-.66-.73-.67l-1.98-.16c-.54-.16-.36-.36.19-.2l-1.46-.31-1.48-.19.03-.04c-.46.14-1.45.31-1.92.38-.71-.31.39-.08.22-.28-.55,0-1.1.06-1.66.14-.63-.38.76-.7,1.88-.42-.67-.8-1.03-.77-1.61-.64-.59.11-1.38.28-3.03-.24l1.58-.06c-.48-.42-1.04-.59-1.7-.72-.66-.11-1.42-.13-2.33-.37.46.23,3.56,1.21,1.75,1.53-.5-.1-1.17-.14-2.13.14-.02-.46-.97-.41-2.14-.26l.04-.65c-1.28.3-1.15.62-1.87.97-1.42.06-1.78-.39-2.18-.73-2.29.3,1.68.51-.97,1.1-.95.06-1.76.17-2.57.45-.81.3-1.64.69-2.67,1.16-1.34.13.11-.43-.4-.49-.33.25-.66.54-.97.84-.27.09-.24-.09-.22-.19-.87.52.12.63-1.26,1.32-.06.42-.9.39-1.89.57-.98.19-2.15.48-2.83,1.24-.51.04.03-.45-.22-.6-2.07,1.73-1.8,1.47-3.27,3.15l-1.71.73c1.36-.4.3,1.08-.57,2.29.52-.09.95-.16,1.22-.24l-.81.81c-.25.29-.49.59-.73.89-.27.1-.25-.21-.14-.67-.08.15-.16.28-.21.4-.76.37-.7-.18-.49-.86.29-.1.59-.18.88-.26.2-.66.39-1.31.06-1.54-.08.15-.28.38-.52.6.06-.17.08-.31-.02-.31-.11,0-.22.25-.4.65l-.87-.18.09.3c-.87.61-1.8,1.17-2.64,1.85-.51,1.11-.88,2.19-1.37,3.34-.39,1.22-.92,2.49-1.73,4.01-.01-1.01-.63-.61-1.14-.97.54-.25.89-.83,1.24-1.57.37-.72.68-1.65,1.37-2.29-.7.68-.76.37-.71.09l-1.45,3.08c-.38-.33-.75.35-1.36,1.06.61-.04.41.59.08,1.41-.31.83-.79,1.86-.86,2.56-.17-.02-.31-.13-.32-.44-.01-.31.1-.81.51-1.56-.76.69-.68,1.39-.61,2.05.06.66.22,1.3-.34,2.07.11-.39.22-.58.1-.79-.04.98-.72,3.17-.9,2.59l.08-.4c-.38,1.31-.63,3.4-.5,5.2.04.45.09.88.15,1.27.08.39.18.75.28,1.05.19.61.42.99.66,1.05-.1.05-1.09-.17-1.27-.32,1.24,1.51,2.57,2.81,4.1,3.62-.41,0-.84.51-1.32.85-.48.33-1.02.46-1.74-.57.22.66.41,1.58,1.51,2.67-.2-.48.25-1.54.65-1.06.12.93.21,1.26.39,1.57.09.16.18.34.31.6.14.26.29.64.63,1.12-.45-.58.95-.9,1.71-.23-.23.03-.59.98-.99.81.47.18,1,.24,1.49.32.5.06.95.17,1.45.14-.7-.07-.54.81-.03,1.36-.09-.18.47.13,1.22.32.73.26,1.63.39,2.02.39-.4-.14-.79-.28-1.17-.44,1.59.37,2.42-.06,3.13-.48.36-.24.7-.47,1.11-.67.41-.25.91-.39,1.58-.58-.24.31-.52,1.64,1.04,1.33.26-.37.77-1.31,1.32-2.31.56-1.02,1.12-2.13,1.83-2.99.18,0,.36,0,.54-.02.35-.48.68-.95.95-1.45-.02.67-.26,1.9-.85,3.14-.27.64-.66,1.22-1.04,1.81-.41.53-.83,1.04-1.22,1.4,1.17-.27.48.24,2.03-.65.35-.04.2.19-.09.47-.3.26-.78.55-1.02.68,1.33-.54,2.55-1.31,3.72-2.16-.29-.2.22-.86.69-1.52.44-.7.87-1.37.59-1.5-.77,1.26-1.72,2.45-2.82,3.52-.27-.23,0-1,.51-1.9.49-.95,1.24-2.01,2.04-3.07.64-.4.65,1.12.85,1.23.1-.42,1.18-2.52,1.38-2.72-.07.43-.15.86-.28,1.27.56-.63.63-1.39.76-2.08.09-.72.23-1.41.78-2.25.22-.6,1.28-1.78.88-1.97-.94.99-3.31.59-3.75-.07.06-.08.33-.76.63-1.53.28-.77.54-1.64.71-1.98.29-.49.66-.16,1.01.23.36.39.7.83.95.38-.18-.04-.42-.61-.5-.84.12-.67.6.25.39-1.2-.67-.17-.37-2.9-.65-.61-.4-1.34-.08-1.48-.53-3.06-.14.31-.6.05-1.09-.41-.52-.45-1.05-1.09-1.4-1.65.19,0,.29-.35.33-.53-.52-1.25-.91-2.22-1.37-3.13-.44-.93-.96-1.8-1.75-2.8-.01-.28-.62-1.39-.07-1.16-.32-.22-.74-.31-1.28-.89-.6-1.54,1.26,1.26,1-.08-.37.18-1.78-1.2-2.79-1.77-.09.34.36.81.94,1.28.55.5,1.26,1,1.73,1.35-.67.55-2.54-.36-4.66-1.79-1.67-1.17-.31-.99-.65-1.13-2.9-2.57-3.41-.86-5.67-3.12-.79-1.11.52-.94.49-1.41.79.34,1.26.81,1.68,1.22.42.42.77.8,1.22,1.14-.31-.36-.66-.69-1-1.02.56.14,1.54.72,1.94,1.22-.14-.26-.53-.65-1.09-1.11-.57-.43-1.3-.96-2.09-1.48-1.6-1.03-3.46-2.1-4.72-2.99-.57-.08-1.48-.33-1.18.06l.89.36c.58.77-1.87-.26-.89.46-1.27-.31-2.74-.45-4.27-1.37l-.07-.69c-.03.18.94.78,1.46.82-.77-.08-2.22-1.82-3.27-1.39l1,.87c-1.29-.21-2.97-.12-4.38-.83.47.8.37.05,1.17,1.1-.3-.58.63-.23,1.5.1.86.34,1.64.67,1.1-.06.74,1.19,1.7,1.06,2.75,2.31.04-.2-.31-.57.82.06.08-.03.24-.04.33-.04.03.02.04.03.07.05l-.05-.05c.06,0,.07,0-.02-.02-.24-.21-.43-.41-.47-.55.79-.17,2.64.79,3.38.9.64.46-.39.05-.12.44l1.09.19c-.12.45,1.42,1.63-.29.99.47.26.94.53,1.39.83.34.36.77.72,1.22,1.03.43.32.87.6,1.26.75.58.49,1.84.7,1.11.59.71.44,1.45.85,2.15,1.32l-.05.1c.46.41.96.79,1.47,1.16.49.4.99.81,1.5,1.22.96.88,1.89,1.9,2.38,3.26.61.57,1.17,1.17,1.75,2.38l-.22.42c.66.81.94,2.86,1.44,3.12-.32.69.02,1.8.3,3.01.29,1.2.54,2.51.44,3.33l.51.07c-.06,1.16-.03,2.27-.22,3.72l.46.03c0,.66-.33,1.48-.84,2.21-.47.76-1.17,1.46-1.76,2.23-.04-.21.28-.57.58-.79-1.06.65-1.76,1.57-2.58,2.49-.81.9-1.8,1.75-2.94,1.77-.43.37-.83.38-1.21.39.05-.02.09-.04.12-.06-.05.01-.13.03-.21.06-.24,0-.49-.07-.74-.09.23.07.45.12.63.13-.39.07-.96.29-1.54.41l-.28-.46s-.08.02-.13.03c-.54-.17-.45.22-.13.6-.3.07-.57.16-.8.27-.22-.37-.58-.4-1-.39-.41,0-.84-.11-1.01-.56-.12.08-.35.04-.65-.01-.15-.03-.31-.07-.48-.1-.17-.07-.34-.13-.51-.2-.34-.14-.74-.22-1.03-.33-.3-.1-.58-.13-.78-.02.05-.1-.05-.26.21-.05-.52-.49-.86-1.1-1.48-1.42.09-.2.2-.41.32-.61-.47-.26-1.05-.5-1.5-.87-.09-1.06-.04-1.43.78-.83-.2-.2-.37-.38-.5-.54-.12-.18-.21-.33-.3-.46-.16-.27-.27-.46-.37-.65-.18-.39-.32-.73-.87-1.66l.4.03c-.1-.69-.77-1.8-.41-2.27.31-.82.41-2.79.92-5.05.49-2.25,1.51-4.75,2.86-6.29-.68.05-.38-.31.11-.73.49-.41,1.07-.89.75-1.22.37-.04.83-.42.63.26.49-.94,1.03-1.54,1.57-2.02.51-.5.91-.97,1.12-1.79.36.01,0,.62.25.57.07-.16.26-.68.54-.71.27-.04-.06.37-.18.71,1.46-1.53,1.11-2.26.69-2.98.55-.24.91-.46,1.17-.74.27-.27.47-.57.64-1.03.48-.03,1.17-.19.11.69.33-.21,1.34-.84,2.22-1.47.92-.58,1.77-1.13,1.64-1.44.29.02.96-.51,1.11-.69,1.58-.78,1.76-.74,3.29-1.55l-.47.11c.3-1.03,1.26-.73,2.55-1.29v.09c1.59-.3,1.89-.46,2.21-.59.31-.14.63-.28,2.23-.38l-.28-.42c.02-.52.74-.62,1.68-.52.94.07,2.05.19,2.93-.17l-.7-.15c.47-.28,1.23-.01,1.97.34.74.34,1.46.75,1.95.77.22.07-.33.18-.62.27,1.29.18,1.36.03,1.35-.22-.01-.25-.11-.6.86-.68.36.34-.43.87.85.92.32.16,1.24-.2,2.32-.34,1.08-.14,2.33-.24,3.16.16-.35-.3-.72-.6.2-.69,1.41.15,3.5,1.51,4.87,1.09.15.11.2.19.19.26.53.04,1.4.12,2.19.26.79.16,1.55.27,1.93.17.09.47.54.79,1.15,1.04.59.3,1.34.54,2.07.76,1.49.4,2.81.95,2.43,1.59.97.48,1.87,1.08,2.81,1.63l-.16.08c1.64,1.27,2.44,1.41,3.24,1.6.31.38-.05.27-.13.31,2.17,2.17,2.37,2.33,4.76,3.6l-.17.54c.33.16.97,1.09,1.75,2.25.79,1.16,1.72,2.54,2.83,3.58-.06,0-.17.01-.37-.14.6.61,1.12,1.37,1.58,2.19.43.84.84,1.68,1.19,2.49.72,1.6,1.34,2.91,2.44,3.06.48.59.91,1.22,1.37,1.83-1.12-2.71.9.06.65-1.16.62,1.01.73,2.97.09,1.69v-.24c-1.06-.1,1.11,3.48.44,3.66,2.11,5.33,2.83,10.93,3.41,16.19l.65-.7c.08.62.1,1.25.15,1.87-.12.51-.51.7-.6-.62-.34.73.56,2.18.7,2.22-.15,2.62-.91-.96-.88-.16l.11,1.07.07-.25c.34.85.69.92.68,2.52-.13,1.01-.44.52-.46.92-.06,0-.06.13-.02.61l-.12,2.33c.21-.3.4-.61.6-.91.28,1.05-.15,2.21.58,1.15-.28.39-.47,1.13-.61,2.03-.19.9-.29,1.97-.45,3.01-.28,2.09-.62,4.1-.88,4.54.09,1.51-.28,2.91-.86,4.61.25-.39.96-.45.4,1.01-1.08-.96-1.47,2.51-2.84,3.32,1.04-.79-1.53,4.12-.02,2.85-.61,1.15-.49-.13-1.17.65-.78,3.04-3.21,5.99-4.88,9.43.13.14.67-.3.51.55l-1.75,1.35c-.3.7.55,1.11-.67,2.02.23-.1.57-.24.36.23-1.11,1.53-2.14,3.2-3.08,4.81-.46.77-.96,1.53-1.5,2.27-.15.21-.24.33-.45.6l-.64.81-1.32,1.59c-.89,1.05-1.74,2.08-2.52,3.07l-2.37,2.99-1.3,1.63-.71.89c-.18.22-.09.14-.09.16.02,0,.03.01.05.02.04.06,0,.18-.17.49-.06.11-.23.37-.4.61l-.75,1.02c.9-1.08,1.09-1.17,1.27-1.23.08,0,.08.1.06.23,0,.07-.02.15-.04.23-.02.08-.03.16-.11.33.18-.28.31-.4.5-.55.18-.15.4-.28.63-.43.47-.3,1.01-.59,1.47-.95l-.36.58,3.36-1.13c1.14-.37,2.17-.73,3.11-.96.42-.26,1.06-.54,1.64-.66.29-.05.59-.09.91-.13.3-.02.6,0,.9,0,.15,0,.3,0,.44.01.12.01.24.02.35.03.17,0,.34.02.48.03.29.01.52-.03.63-.17-.31-.01-.62-.05-.93-.04.66-.28.33-.76-.25-1.27-.6-.51-.99-.96-.67-1.42-.47.26-.94.24-1.28.16-.35-.08-.54-.24-.8-.25-.3-.01-.68.11-2.11.88.1-.13.92-.5,1.21-.72-.58.32-1.05.57-1.43.76-.17.08-.38.21-.43.21.13-.16.31-.36.55-.6l.18-.05c.57-.88,1.32-1.61,2.03-2.24.34-.29.69-.59,1.08-.93.17-.14.34-.3.53-.46.2-.19.25-.18.73-.75h-.59c.66-.77.9-.86,1.28-1.19.04-.69-.37-.1-.82.47-.23.28-.45.57-.63.69-.09.07-.15.07-.19.04-.05-.03-.1-.09-.09-.26.78-.22,1.88-1.66,2.76-3.17.84-1.41,1.66-2.78,2.35-2.89.74-1.29-.69.11.05-1.18l.45-.2-.15-.51c.53-.82,1.09-1.07,1.33-.98-.14.19-.27.62-.37.85.93-.93,1.63-3.19,1.93-3.52l-.85,1.17c1.72-3.69,4.36-7.99,5.36-11.9l-.32.19c.79-2.95,1.19-2.13,2.16-5.34v.13c.03-.7.21-1.58.51-2.44,0,.89.96-1.37.91-.22.48-3.35.15-1.7-.14-4.02l.48-.41c-.15-.8-.32-.89-.11-2.54.06,1.4.75-.95.88.64,1.44-3.37-.06-5.27,1.25-6.76-.47-.85-.64-.09-.75.75-.13.84-.16,1.77-.23,1.31-.43.71-.59-1.39-.45-2.46.09-1.09,1.45-1.81,1.44-4.66,0,.28.08.3.07.58.24-1.07-.36-2.07-.01-3.38-.66-.69-.06-1.69-.86-1.84l.33,2.56c-.28-1.47-1.27-2.74-1.08-5.15.18.17.45.85.62,1.33.16-.72-.27-1.33-.14-2.08.83.11.54,3.1,1.19,4.63.31-.79-.79-2.94.13-2.22-1.18-1.03-.14-2.81-1.26-4.6l.49.05c-.13-.29-.45-.87-.54-1.42l.78.9c-.76-1.45-.09-3.06-.69-4.48.67,3.08-.41.81-.48,2.17-.7-1.81-.52-2.41-.33-3.09.19-.68.47-1.45-.27-3.51.23.55.34,2.2-.13,1.38-.14-.82-.26-1.92-.18-2.48-1-2.71-.32.57-.99-.5.23-1.11-.65-1.27-1.27-2.36l.45-.18c-.87-3.16-1.24-.44-2-3.27l1.1.88-.75-1.34.63.07c-1.07-1.36-1.17-1.87-1.78-3.41-.13.49-.88.21-1.55-1.06-.22-1,.68.26-.39-1.49.48.25,1.1.5,1.11,1.51.18,0,.48.26.66.28-.18-1.12-1.24-2.4-1.61-3.04.13.26.28.57.31.76-.68-.76-1.41-1.48-2.12-2.2-.1-.49.22-.26.54-.02-.37-.48-.77-.72-1.32-1.42.45-.03.78-.32,1.62.65-.63-.73-1.32-1.42-1.98-2.13.04-.26-.51-1.46-.17-1.25-.4-.71-1.13-1.39-1.96-2.07-.41-.34-.82-.7-1.2-1.08-.4-.37-.77-.76-1.07-1.2-.13-.03-.33-.14-.68-.43-.66-.74-1.24-1.5-1.9-2.23-.7-.69-1.46-1.41-2.56-1.94l-.62-1.39c-1.56-1.02.89,1.8-1.71.15-1.89-1.08-.31-.96-.82-1.57-1.12-.33-3.05-.73-4.53-2.18.64.21,1.05.55,1.62.81ZM96.31,6.79c.44-.12,1.34-.33,1.64-.04-.53.53-.9.19-1.64.04ZM65.43,19.31c.13-.33.55-.61,1.09-.85-.27.3-.63.6-1.09.85ZM65.5,15.76s.03,0,.05,0c.66.63.43.4-.05,0ZM64.02,14.61c-.19-.04-.22.03-.18.12.17-.04.53.17.92.45-.05-.18-.21-.38-.74-.58ZM141.58,66.28l.12-.37c.15.83.02.6-.12.37Z"/>
        <path class="cls-1" d="M67.91,16.27c.15,0,.23.04.31.1.09-.17.03-.24-.31-.1Z"/>
        <path class="cls-1" d="M129.31,21.36l.04.05s.08,0,.11,0l-.15-.05Z"/>
        <path class="cls-1" d="M84.17,35.95c-.06.45-.14.69-.23.85.12.02.21-.18.23-.85Z"/>
        <path class="cls-1" d="M54.73,11.07l1.16.34c-.55-.2-.7-.37-.94-.55-.02.11.14.35-.21.22Z"/>
        <path class="cls-1" d="M45.54,4.95c-.19,0-.37-.1-.56-.08v.23c.74.19,1.31.16.56-.15Z"/>
        <path class="cls-1" d="M54.26,9.17c.05-.41-.72-.55-1.55-.78.05.02.1.03.14.05-.43.45.49.59,1.41.73Z"/>
        <path class="cls-1" d="M52.51,8.34c-.26-.07-.52-.14-.76-.24-.17.18.29.14.76.24Z"/>
        <path class="cls-1" d="M61.81,13.7c-.3-.28-.46.34-.58.09-.62.23,2.61.72.58-.09Z"/>
        <polygon class="cls-1" points="54.07 7.68 54.18 8.26 54.78 8.05 54.07 7.68"/>
        <path class="cls-1" d="M60.26,10.66l-1.21-.7c-.02.09-.2.06-.41,0,.77.37,1.58.84,1.61.69Z"/>
        <path class="cls-1" d="M58.65,9.96c-.4-.19-.79-.36-1.05-.38.22.09.7.29,1.05.38Z"/>
        <polygon class="cls-1" points="55.9 8.21 56.25 8.46 57.14 8.87 55.9 8.21"/>
        <path class="cls-1" d="M72.63,18.81c.4.3.79.63,1.18.94.23-.01,0-.38-.44-.72-.34-.17-.8-.5-.74-.22Z"/>
        <path class="cls-1" d="M69.9,14.83c.27.34.23.45.32.72l.41-.47-.73-.25Z"/>
        <path class="cls-1" d="M73.52,17.57c.25-.05,1.98,1.23.52-.15-.24.02-1.52-.89-.52.15Z"/>
        <polygon class="cls-1" points="82.43 38.42 82.44 38.02 81.42 38.01 82.43 38.42"/>
        <path class="cls-1" d="M69.45,54.41c1.12.04,1.23-.16,1.3-.33.08-.17.12-.32,1.1-.35.43-.33-1.59.05-1.12-.25-1.21.43-1.93.29-1.29.93Z"/>
        <path class="cls-1" d="M70.73,53.48c.19-.08.39-.16.6-.27-.34.13-.5.21-.6.27Z"/>
        <path class="cls-1" d="M127.76,122.04c.16.02.3.05.49.09l.23.08c.15.05.3.11.45.18-.18-.15-.36-.29-.55-.43-.06.01-.09.03-.26.03-.11.02-.23.02-.35.04Z"/>
        <path class="cls-1" d="M129.99,121.63c.02.23.04.45.05.69.23-.13.48-.26.73-.39-.23-.03-.65-.12-.79-.3Z"/>
        <path class="cls-1" d="M92.87,5.51l-.09.16c.2.17.49.18,1.07.2l-.98-.35Z"/>
        <polygon class="cls-1" points="109.46 8.19 109.19 8.08 109.51 8.81 109.46 8.19"/>
        <path class="cls-1" d="M122.44,13.96c-.47-.35-1.08-.67-1.56-.99,1.12.62,1.26,1.69,1.56.99Z"/>
      </g>
      <g>
        <path class="cls-1" d="M113.07,109.53s-.25.29-.3.35c.08-.05.36-.43.3-.35Z"/>
        <polygon class="cls-1" points="113.95 109.04 113.83 109.16 114.16 108.89 113.95 109.04"/>
        <path class="cls-1" d="M114.21,109.29c.47-.53-.18,0-.05-.24l.1-.13-.41.4c.11-.02.45-.22.35-.04Z"/>
        <path class="cls-1" d="M113.23,110.5c.19-.2.2-.14.04-.09-.02.02-.03.04-.05.05,0,0,.01,0,0,.03Z"/>
        <path class="cls-1" d="M113.22,110.46s-.15.18,0,0h0Z"/>
        <path class="cls-1" d="M113.43,110.46l-.21.14c-.11.12-.12.17-.21.24.13-.06.24-.18.42-.38Z"/>
        <path class="cls-1" d="M113.84,110.13l-.09.05s-.06.07.09-.05Z"/>
        <path class="cls-1" d="M113.56,110.3l.19-.12c.08-.08.25-.24-.07.04.16-.14,0-.01-.12.08Z"/>
        <path class="cls-1" d="M113.62,110.21c.1-.12.14-.22.36-.35-.13,0-.48.36-.36.35Z"/>
        <path class="cls-1" d="M114.74,108.78l.12-.18-.19.15c.1-.07-.08.19.08.03Z"/>
        <path class="cls-1" d="M113.32,110.89c.11-.1.3-.27.45-.4l-.15.09c-.07.08-.12.16-.29.31Z"/>
        <path class="cls-1" d="M113.77,110.48l.23-.13c0-.05-.1.02-.23.13Z"/>
        <polygon class="cls-1" points="114.44 109.61 113.97 109.91 114.45 109.61 114.44 109.61"/>
        <polygon class="cls-1" points="113.41 111.02 113.12 111.23 113.56 110.93 113.41 111.02"/>
        <path class="cls-1" d="M113.53,111.07c-.24.16-.38.32-.53.41.06-.01.27-.14.46-.26-.11.06-.1.02.07-.16Z"/>
        <path class="cls-1" d="M113.75,111.06c-.06.03-.17.1-.29.16.06-.03.15-.08.29-.16Z"/>
        <path class="cls-1" d="M113.99,110.47c-.07.06-.25.22-.31.3l.32-.28v-.02Z"/>
        <path class="cls-1" d="M114.01,110.47h-.01s0,.05,0,.06c0,0,0-.02,0-.06Z"/>
        <path class="cls-1" d="M113.99,110.46h0s.04-.03,0,0Z"/>
        <path class="cls-1" d="M114.24,109.97c.2-.13.44-.25.67-.54-.24.17-.37.34-.67.54Z"/>
        <path class="cls-1" d="M114.39,110.1l.04-.11c-.09.07-.21.19-.31.25l.27-.15Z"/>
        <polygon class="cls-1" points="114.51 110.04 114.39 110.1 114.37 110.14 114.51 110.04"/>
        <path class="cls-1" d="M114.02,110.75c.16-.09.19-.08.23-.08.05-.07.07-.13.05-.15-.11.08-.31.21-.28.23Z"/>
        <path class="cls-1" d="M114.05,110.59h.02s.03-.04-.02,0Z"/>
        <path class="cls-1" d="M114.41,110.9s.04-.03.06-.05l-.06.04h0Z"/>
        <path class="cls-1" d="M114.35,110.47c.05-.07-.04-.02-.15.05.04-.01.08-.01.09,0,.05-.04.08-.06.06-.05Z"/>
        <path class="cls-1" d="M113.95,111c.06-.06.12-.12.17-.17-.1.09-.26.23-.17.17Z"/>
        <path class="cls-1" d="M113.98,110.66s-.02,0-.02,0c-.07.06-.03.03.02,0Z"/>
        <path class="cls-1" d="M113.98,110.66c.05-.03.14-.09.22-.14-.03,0-.08.03-.13.06-.02.02-.06.05-.09.08Z"/>
        <path class="cls-1" d="M116.74,109.46c-.33.21-.68.35-.37.06-.28.11-1.32.9-1.9,1.34.14-.1.27-.19.5-.27.17-.14.35-.4.67-.56.22-.04-.08.14-.23.29.39-.31.66-.31,1.26-.72l-.26.07c.09-.06.26-.14.33-.21Z"/>
        <path class="cls-1" d="M114.44,110.75h-.05c-.04.07-.16.18-.4.38.18-.08.3-.16.41-.23v-.12s.04-.03.04-.03Z"/>
        <path class="cls-1" d="M114.33,110.68c.36-.24.54-.3.9-.6-.07-.04-.32.17-.5.25.15.02-.21.12-.36.32-.07.03-.1.03-.12.02-.03.05-.07.1-.13.16l.02-.02h0s0,0,0,0c.04-.04.07-.06.04-.03,0,0,0,0,0,0,.05-.03.09-.06.13-.09-.05.08-.09.07-.13.09l-.05.04h0s.25-.05.25-.05c.04-.05,0-.07-.06-.08Z"/>
        <path class="cls-1" d="M115.66,108.88s-.05.05-.07.07c.05-.03.08-.05.07-.07Z"/>
        <path class="cls-1" d="M115.5,109.09c-.05.03-.19.14-.17.08.08-.1.16-.13.26-.23-.1.06-.28.15-.4.33l.05-.03c-.08.14-.45.53-.51.56.29-.26.49-.44.76-.72Z"/>
        <path class="cls-1" d="M115.03,109.84l.23-.05.26-.27-.18.14c.03-.1-.18.08-.32.18Z"/>
        <polygon class="cls-1" points="114.23 111.03 113.85 111.28 114.41 110.96 114.23 111.03"/>
        <polygon class="cls-1" points="114.34 111.09 114.01 111.31 114.22 111.2 114.34 111.09"/>
        <path class="cls-1" d="M120.5,117.97l.11.05s-.07-.04-.11-.05Z"/>
        <path class="cls-1" d="M120.56,117.7l-.19-.03c.11.02.18.04.19.03Z"/>
        <path class="cls-1" d="M115.47,113.62c-.35.13-.9.3-.47.19l.42-.11c-.08,0-.04-.04.05-.08Z"/>
        <path class="cls-1" d="M118.33,115.48s.09-.01.13-.02c-.15,0-.29-.01-.42-.02.09.01.18.02.28.04Z"/>
        <path class="cls-1" d="M120.13,115.45l-.28.08c.1-.02.19-.05.28-.08Z"/>
        <path class="cls-1" d="M120.73,119.55l.42.13c.01-.07-.21-.08-.42-.13Z"/>
        <path class="cls-1" d="M115.03,112.02c-.14.1-.19.15-.2.18.21-.14.54-.32.2-.18Z"/>
        <path class="cls-1" d="M115.94,117.37c.08.03.16.04.26.05-.07-.03-.15-.05-.26-.05Z"/>
        <path class="cls-1" d="M114.87,112.28s.06-.04.09-.06c-.08,0-.14.01-.13-.03-.16.1-.25.17.04.08Z"/>
        <path class="cls-1" d="M118.74,124.63s-.03,0-.05,0c.05.03.06.02.05,0Z"/>
        <path class="cls-1" d="M114.32,123.53s0-.03,0-.04c-.03-.02-.03,0,0,.04Z"/>
        <path class="cls-1" d="M114.41,111.56s-.04.02,0,0h0Z"/>
        <path class="cls-1" d="M115.83,110.59s.1-.05.19-.1c-.09.05-.15.08-.19.1Z"/>
        <path class="cls-1" d="M117.46,111.49h0c.08-.04.06-.03,0,0Z"/>
        <path class="cls-1" d="M114.56,111.43s-.07.07-.1.09c.03-.02.06-.05.1-.09Z"/>
        <path class="cls-1" d="M114.39,111.54s.02-.03.03-.04c-.06.03-.1.06-.03.04Z"/>
        <path class="cls-1" d="M114.44,111.58s0-.03.02-.05c-.02.02-.04.03-.06.04,0,0,.02,0,.04.02Z"/>
        <path class="cls-1" d="M118.65,121.56s-.02,0-.04,0c.16.09.14.06.04,0Z"/>
        <path class="cls-1" d="M120.04,113.47s-.02,0-.02,0c0,0,0,0-.01,0h.04Z"/>
        <path class="cls-1" d="M120.38,113.55c-.54.03-.48,0-.38-.07l-1.23.26,1.6-.19Z"/>
        <path class="cls-1" d="M120.54,118.65l.4-.03c.62.2.39.26.94.25-1.34-.21-.09-.39-1.43-.58l.29-.02s.06.03.05.04c.66-.04-.96-.21-.75-.33.11-.04.31-.05.47,0l-.32-.15s.26,0,.23.03l-.09-.19h.04c-.21-.04-.53-.13-.67-.17.2-.03.14.03.31.04l-.32-.12c.35,0,.69.1.63.16,1.36.03-.33-.11.47-.24l.16.11c.77,0,.5-.1.99-.18-.25.01-1.22.13-1.55,0,.1-.02.16-.06-.11-.13.48.03.37-.03.35-.11l.64.04c-.18-.09-.5-.1-.79-.16.07-.08.56-.08.98-.08.11-.14-.8.06-.91-.11.25-.1,0-.2-.39-.34.22-.07.39.02.57,0l-.51-.08s.17,0,.25,0c-.2-.06-.64-.02-.81-.11-.7-.03,1.03-.18.23-.29.18-.03.39.01.64,0-.52-.15-.38-.13-1.09-.24l.42-.12c-.48.09-1.05,0-1.52-.05-.23.03-.43.06-.53.08l-.35-.11c.1-.02.32-.02.59,0-.05,0-.11-.01-.15-.02.23-.05.6-.05.96-.03-.13.02-.26.04-.39.06.39.02.82.03,1.19.01-.07,0-.14-.02-.17-.04.11,0,.2,0,.26,0,.07,0-.07-.02-.24-.03l.71-.06h-.28s.44-.21.44-.21c-.73-.1-1.79-.13-2.1-.29.52,0,.85-.06,1.47-.11-.65.11.29.14.17.26.06-.06.36-.07.46-.06l-.61-.15c.51-.04.38-.07.58-.14-.99.13-.68-.09-.99-.13.33-.04.68-.06.61.05.74-.19-1.19-.02-.56-.18.01.02-.04.04.13.03-.3-.02-.08-.18.21-.18v.02c.11-.17-.05-.48-.89-.37.11-.01,1.02-.14,1.19-.16-.96.05-1.91.13-2.86.22.72-.1,2.42-.51,2.85-.45.1-.06.21-.13-.06-.16-.1.05-1.03.26-1.1.23.78-.24.42-.14,1.07-.39-.15.07-1.28.25-1.25.19.17-.03,1.11-.23,1.23-.23l-1.13.08c.21,0,.93-.19,1.24-.3-.21.06,0-.14-.13-.15l-.24.12c.12-.21-1.58.2-1.56.04.23-.04,1.4-.3,1.51-.42-.57.1-2.72.54-3.18.56l.31-.11-.39.02c.84-.2,2.65-.52,3.37-.58.24-.13.37-.12.32-.21.29-.12.47-.07.49-.04l.13-.29c-.64.19-.7.01-1.23.18l.74.05c-.65.18-1.88.38-1.8.21.24-.11,1.15-.32,1.37-.38-.23.05-.47-.02-.31-.08l.36-.04c.21-.17-.89.13-.32-.17.03-.05.78-.38.4-.26-.7.31-2.95,1.06-3.51,1.22.05-.02.64-.38.99-.55.55-.26,1.38-.4,1.85-.62-.17.06-.4.1-.47.12.14-.09.54-.18.43-.23-.65.22,0-.18-.55.16-.21,0,.1-.13.04-.21-.4.18-1.43.46-1.63.48.16-.06.37-.16.46-.2,0-.16.26-.36.2-.49.15-.08.3-.22.58-.32-.12.03-.34.11-.37.07.5-.33.13.06.74-.3-.36.16-.55.12-.8.16-.54.28-.05.18.21.14-.77.34-1.62.61-2.02.67-.23,0,.47-.28.36-.24.04-.25-1.39.52-.92.11.45-.31.94-.51,1.28-.7.22-.01-.24.28-.19.32l.19-.18c.17-.06.32-.06.2.04.4-.27-.08-.36.22-.72-.17.06-.36.11-.53.24h.09c-.35.26-.57.22-.71.38-.3.09-.74.28-.57.08l.52-.33c-.15.1-.28.24-.11.16-.25.11.64-.55-.07-.17l-.33.28c-.29.11-.88.4-.76.24-.49.35.07-.02-.5.4.72-.51.06.16.81-.38-.68.47-.25.26-.83.67.17-.1.32-.22.26-.12.05-.03.12-.06.16-.08h-.01s.02,0,.02,0c.03-.01.03-.02,0,0,.07-.06.16-.12.25-.18.41-.21.45-.12.68-.21-.07.08-.21.1-.39.22l.34-.13c-.39.22-.61.44-.88.5v.07c-.19.16-.25.25-.07.19-.07.07.48-.15.15-.02l.3-.03-.1.05c0,.12.77-.1.09.35.12-.01.26-.03.17.08l-.35.16c.14,0-.31.27.07.14-.95.42-.13.28-.28.42l.48-.17c0,.06.15.07.36.07l.42-.14c.37-.05-.25.26-.18.34-.17.04-.13,0-.04-.04-.94.4.79.05.1.36.16-.01.12.02.01.07,0,0-.01,0-.02,0,0,0,0,.01,0,.01-.07.03-.15.07-.22.09.1-.04.19-.07.23-.09.01.02.08.04.19.04l-.46.13s0,0,.01,0c-.17.07.23-.03.58-.13.08,0,.18,0,.29-.02-.75.2.28.03-.53.24.4-.07.33.09,1.17-.05-.11.02-.16.04-.17.03-.09.06-.17.11.07.1l-.6.13.83-.07c-.36.12-.57.17-1.04.21.73,0,.28.04,1.01.03l-.39.06s.55.01.23.09c-.73.19-.05.43-.72.7,1.16-.14-.51.14.39.07-.27.03-.43.07-.67.06.28.08-.43.18.34.2-.28.03-.41,0-.57.02.06,0,.24.02.08.04-.16.02-.23,0-.35-.01.05.09.9.07,1.7.04-.38.08-.32.1.2.12-.26.03-.53.07-.63,0-.04.04-.37.24.27.24-.16.01-.05.06.03.07-.04.09-.1.1-.04.19l.1-.02c.77.04.17.08.26.15h-.08c-.56.15.27.08-.37.22h.48c1.03.06-.61.13-.22.24l.27-.02c.35.07-1.4.07-1.54.11-.09,0-.14-.02-.21-.04-.62.09.63.05.76.16-.34,0-.86-.08-.93-.02-.28,0,1.08.27.43.3.26,0,.52,0,.71.07.08.08-1,.09-.19.24-.07,0-.14,0-.2,0,.21.08.33.21.77.3-1.65-.17.75.45-.76.24l.06.18-.15-.03c-.12.09.24.18.59.28-.11,0-.24-.03-.32-.05-.33.1-.27.12.46.4l-.49-.08c.27.09-.81.07-.27.33-.05-.01-.15-.04-.21-.06.53.3-1.43.08.31.56l.4.22c.17-.12.75.21,1.06.22.09.09-.57.03-.64-.07h.09c-.91-.24-.37.12-.99-.05-.03.3-.61.43-.73.68l.71.18-.07.08c-.17-.03-.56-.14-.51-.19-.41-.09.3.21.45.26-.32.04-.8-.31-.83-.27l.04.07h.09c.27.15.57.25.51.32-.16,0-.44-.11-.47-.1-.05-.02-.07-.02-.03.02l-.1.09.56.14c.25.14-.07.1.57.25-.98-.24-.49.32-.81.27.37.21.34.29.26.36.12.02.74.23.63.28-1.24-.5-.6-.06-1.52-.35.62.17.07.27.94.51-.13.02-.47-.18-.78-.25.42.34-.44.19-.34.4.16.07.42.15.64.3l-.84-.28c.07.06.91.46.33.25.14.06.34.14.39.18-.46-.03-.37.17-.38.35,0,.16-.12.31-.8-.13.28.19.3.23.29.25.07.04.34.28.52.43-.2-.11-.38-.23-.57-.36.48.46-.03.1.4.56l-.05-.11c.49.57,1.25,1.1,1.96,1.74-.27-.33,0-.16.26-.05.26.11.5.16.08-.28.18.09.22.22.41.34-.29-.29-.33-.38-.12-.36l.08.07c.09-.3.49-.18.9-.34l-.42-.21c.09-.03.23.03.35.06-.59-.41-.13.15-.78-.3.89.39.22-.39,1.23.05.05-.09-.51-.21-.46-.3l.28.1-.33-.19c.08-.03.43.1.66.2-.03,0,.04.07.06.1.35.07,0-.27.11-.25h-.21c-.14-.34.33-.48-.14-.92l-.21-.07c-.32-.31.28-.04.17-.29l.05.03c-.19-.11-.28-.2-.24-.24.23.14.51.09.76.25-.35-.33-.29-.21-1.03-.61l.36.1c-.3-.15-.47-.22-.53-.33.27.18.55.13.92.35.83.08-.68-.55.48-.25-.94-.42-.59-.02-.79-.14-.33-.07-.7-.32-.59-.34.04-.05,1.28.32,1.31.16,0,.01.06.04.05.05.27.02-.3-.22.13-.16-.58-.23.06-.08-.69-.33l.13.2c-.17-.14-1.03-.49-.57-.49.15.06.34.16.44.22.23.03-.13-.12.12-.09.75.24.11.22.66.49.33.06-.5-.34.31-.04-1.02-.39.18-.12-.58-.46l.45.14c-.07-.04-.27-.14-.25-.16l.57.23c-.48-.24.49-.04.24-.21-.04.18-.56-.12-.91-.14-.55-.39,1.23.22,1.08-.09.05.05-.31.05-.51-.06.11-.02.3-.03.55,0-.05-.19-.48-.1-.74-.25.57.09-.21-.14-.37-.26l.47.12c.35-.11-.96-.3-.56-.37l.63.23-.15-.13.53.15c-.37-.2-.26-.2-.09-.26-.34-.06-.85-.22-.84-.3.29.01.44.14.4,0,.29.09.65.21.21.16.15.05.29.09.44.14.33.01.11-.14.11-.18-.02.01-.05.03-.12.02l-.61-.32c.18.01.32.07.45.12-.04-.05-.25-.12-.28-.18.38.1.78.18.94.29l-.39-.26c.17.02.48.01.61.06.25-.05-.7-.38-.38-.45-.07-.02-.14-.05-.19-.08.11-.1.6-.12.1-.35l.71.04c-.14-.14-.89-.04-1.12-.26-.2-.16.6.05.8.03-.34-.12-1.04-.34-.45-.37.13.06.02.07.06.12ZM120.38,117.27c.1.03.41.11.12.11-.55-.07-.28-.07-.12-.11ZM119.25,115.25c.16.01.08.04-.1.08-.04-.02-.02-.05.1-.08ZM114.88,111.6s.01,0,.02,0c-.15.12-.09.08-.02,0ZM115.02,111.43c-.06.02-.12.06-.18.09.11-.05.13-.04.11,0,.11-.07.18-.12.07-.09ZM115.46,120.89l.13.02c.12.08,0,.03-.13-.02Z"/>
        <path class="cls-1" d="M119.92,115.45c-.08,0-.17.01-.26.02.08,0,.18,0,.26-.02Z"/>
        <polygon class="cls-1" points="120.65 119.53 120.64 119.53 120.73 119.55 120.65 119.53"/>
        <path class="cls-1" d="M119.41,111.25c-.06.05-.14.09-.22.13.11-.04.2-.08.22-.13Z"/>
        <path class="cls-1" d="M114.1,111.47l.13-.02s.05-.07.11-.12c-.1.06-.23.15-.24.15Z"/>
        <path class="cls-1" d="M116.31,109.41c-.05.03-.02-.01-.07.01l-.18.13s.2-.06.25-.15Z"/>
        <path class="cls-1" d="M115.44,110.58c.34-.22.2-.18.12-.17,0,0,0,0,0,0-.48.3-.3.23-.12.17Z"/>
        <path class="cls-1" d="M115.54,110.41s-.04,0-.03-.03c-.19.12-.03.04.03.03Z"/>
        <path class="cls-1" d="M114.74,111.47c.08-.07-.46.25-.32.16-.46.24.6-.21.32-.16Z"/>
        <polygon class="cls-1" points="116.55 109.84 116.13 110.12 116.49 109.93 116.55 109.84"/>
        <path class="cls-1" d="M116.42,110.35l.08-.13c-.07.04-.12.06-.16.07,0,.05-.05.14.07.06Z"/>
        <path class="cls-1" d="M116.35,110.28s-.02-.04-.1,0c.01,0,.04.02.1,0Z"/>
        <polygon class="cls-1" points="116.73 109.85 116.65 109.92 116.65 109.99 116.73 109.85"/>
        <path class="cls-1" d="M116.71,111.09h.16c.16-.05.24-.12.17-.12-.12.03-.19.04-.33.12Z"/>
        <path class="cls-1" d="M117.82,110.25c-.08.07-.18.12-.32.21l.56-.28-.23.07Z"/>
        <path class="cls-1" d="M118.07,110.42c.16-.07.5-.09.42-.18-.16.06-.33.04-.42.18Z"/>
        <polygon class="cls-1" points="117.85 111.95 117.83 111.93 116.87 112.27 117.85 111.95"/>
        <path class="cls-1" d="M120.53,112.46c.21-.18-.62.12-.35-.06-.24.03-.22.14-.43.17.26,0,.13.08.78-.11Z"/>
        <path class="cls-1" d="M119.76,112.57s-.09,0-.16,0c.07,0,.12,0,.16,0Z"/>
        <polygon class="cls-1" points="113.85 123.24 113.68 123.1 113.93 123.34 113.85 123.24"/>
        <path class="cls-1" d="M114.34,123.81l-.46-.46.39.44s-.04-.08.06.02Z"/>
        <path class="cls-1" d="M121.7,117.15l-.16-.02c-.17,0-.18.02-.21.05l.37-.04Z"/>
        <polygon class="cls-1" points="121.13 118.14 121.14 118.12 120.55 118.09 121.13 118.14"/>
        <path class="cls-1" d="M121.74,119.1s-.09-.09-.06-.12c.09.09-.66.02.06.12Z"/>
      </g>
    </g>
  </g>
</svg>