<svg xmlns="http://www.w3.org/2000/svg" viewBox="0 0 133.7 209.9">
  <defs>
    <style>
      .curly-arrow {
        fill: #035182;
      }
    </style>
  </defs>
  <g>
    <g>
      <g>
        <path class="curly-arrow" d="M88.57,1.75c-.24-.59-.52-.2-.63-.25.54.92.72.18.63.25Z"/>
        <polygon class="curly-arrow" points="93.75 11.02 93.52 10.91 94.5 12.21 93.75 11.02"/>
        <path class="curly-arrow" d="M97.28,20.31c.36-1.13-1.32-3.35-1.72-5.09l.05-.33-.82-.54c.86,1.97,2.18,4.46,2.5,5.96Z"/>
        <path class="curly-arrow" d="M97.5,25.81c.17-.39.58,1.01-.29-1.19,0,.12,0,.16,0,.23.07.2.16.48.29.96Z"/>
        <path class="curly-arrow" d="M97.2,24.85c-.34-.98-.01.72,0,0h0Z"/>
        <path class="curly-arrow" d="M98.79,29.38l-.63-1.24c-.07.32.24,1.5,0,1.1.53,1.3.61.98.64.14Z"/>
        <path class="curly-arrow" d="M99.66,30.48l-.31-.65c-.03.14,0,.33.31.65Z"/>
        <path class="curly-arrow" d="M98.71,28.45l.65,1.38c.05-.22.27-.31-.28-.64.24.06-.04-.17-.37-.74Z"/>
        <path class="curly-arrow" d="M98.57,27.6c-.08-.78-.3-1.76.36-.52-.9-2.47-1.25-1.95-.36.52Z"/>
        <path class="curly-arrow" d="M98.15,20.55l-.15-1.05-.53-.76c.26.38.5,1.95.68,1.81Z"/>
        <path class="curly-arrow" d="M100.7,37.69c.17.05.28-.54.44-.69l-.43-.93c.03.53.19,1.5-.02,1.63Z"/>
        <path class="curly-arrow" d="M101.14,37l.61,1.41c-.28-1.32-.47-1.53-.61-1.41Z"/>
        <path class="curly-arrow" d="M100.49,30.49l-1.24-2.24c.46.9.94,1.79,1.38,2.7l-.14-.46Z"/>
        <polygon class="curly-arrow" points="101.98 43.3 101.45 42.54 102.3 43.91 101.98 43.3"/>
        <path class="curly-arrow" d="M102.8,47.02c-.41-.56-.32.94-.62.32.25,1,.63,1.83.99,2.57-.28-.81-.38-1.7-.37-2.89Z"/>
        <path class="curly-arrow" d="M103.73,51.17c-.14-.41-.34-.82-.55-1.26.14.43.32.85.55,1.26Z"/>
        <path class="curly-arrow" d="M102.28,40.93c-.06.13-.25.41-.17,1.26l.29-.67c-.04-.18-.08-.38-.12-.58Z"/>
        <path class="curly-arrow" d="M102.41,41.49v.02c.12.63.21,1.07.24,1.26-.03-.16-.1-.55-.24-1.28Z"/>
        <path class="curly-arrow" d="M102.25,40.78c.01.05.02.09.03.15.03-.07.03-.1-.03-.15Z"/>
        <path class="curly-arrow" d="M101.19,34.44c.46.8,1.18,2.54,1.07.7-.45-.55-.38.5-1.07-.7Z"/>
        <path class="curly-arrow" d="M102.6,39.94l-.28-1.59c-.1.06-.19.38-.41-.02l.7,1.61Z"/>
        <polygon class="curly-arrow" points="102.92 40.68 102.6 39.94 102.71 40.53 102.92 40.68"/>
        <path class="curly-arrow" d="M103.65,48.41c.3.65.45,1.39.62,2.23-.07-.92-.19-1.86-.35-2.75-.15-.1-.46-.45-.28.52Z"/>
        <path class="curly-arrow" d="M103.12,45.03s.04.1.05.15c.02-.1.01-.18-.05-.15Z"/>
        <path class="curly-arrow" d="M105.38,58.99s.04-.09.06-.14l-.08-.02v.17Z"/>
        <path class="curly-arrow" d="M103.98,47.72c-.04-.7-.23-1.08-.44-1.44.14.5.28,1.03.39,1.61.07.05.11.05.05-.17Z"/>
        <path class="curly-arrow" d="M104.27,53.46c.04-.37.05-.78.06-1.21-.08.37-.18,1.1-.06,1.21Z"/>
        <path class="curly-arrow" d="M103.11,45.43s-.02-.06-.04-.1c-.05.24,0,.2.04.1Z"/>
        <path class="curly-arrow" d="M103.11,45.43c.13.34.29.59.43.85-.11-.41-.24-.78-.36-1.1-.01.09-.04.18-.07.25Z"/>
        <path class="curly-arrow" d="M108.36,61.3c-.4-.1-.94-1.89-.67-3.52-.49-1.52-1.63-.35-2.24,1.06.18.03.34.01.72,1.57.16-.57.16-3.57.65-2.27.41,2.09.03,1.74-.08,2.78.43-.92.91,2.63,1.6,2.13l-.38-1.85c.11-.04.34.62.4.09Z"/>
        <path class="curly-arrow" d="M105.14,55.84l-.13-.64c.02.75-.07,1.29-.26,2.3.32,1.05.47,1.26.61,1.32-.07-1.07-.21-2.13-.32-3.19l.09.21Z"/>
        <path class="curly-arrow" d="M104.6,52.3c.5.44.92,1.97,1.23.95-.32-1.9-.55-1.28-.91-2.39.57,3.05-.37-.84-.28,1.41-.17-.59-.26-1.13-.37-1.63.05.56.05,1.1.05,1.61,0-.03.01-.05.02-.07h0s0-.01,0-.01c.03-.14.06-.19.05-.03,0,0,.01.05.02.06.06.01.12.06.18.11.04.9-.09.16-.18-.11-.02,0-.05-.03-.07-.03h0c.22,1.02.48,2.03.67,3.04-.01-.66-.15-1.47-.42-2.9Z"/>
        <path class="curly-arrow" d="M103.59,36.53c-.01.1-.04.11-.07.12.1.18.16.25.07-.12Z"/>
        <path class="curly-arrow" d="M103.64,37.84c-.11-.21-.32-.35-.46-1.08-.04-.65.2-.05.33-.11-.22-.41-.7-1.44-.54-.03l.11.2c.15,1.26,0,2.96-.1,2.76.29-.45.48-.82.66-1.73Z"/>
        <path class="curly-arrow" d="M104.41,45.15l.7,2.51c.05-.46.08-.91.12-1.37l-.21.11c-.2-1.47-.41-1.1-.61-1.25Z"/>
        <polygon class="curly-arrow" points="105.2 59.3 104.71 59.01 105.5 60.42 105.2 59.3"/>
        <polygon class="curly-arrow" points="105.54 62.62 105.13 62.52 105.43 63.38 105.54 62.62"/>
        <path class="curly-arrow" d="M132.5,129.15l.21.79c-.08-.38-.15-.61-.21-.79Z"/>
        <path class="curly-arrow" d="M131.58,123.4l-.22-.1c.16.24.26.33.22.1Z"/>
        <path class="curly-arrow" d="M67.27,105.14c-.12-.49-.12-1.03-.16-1.4-.04-.37-.11-.57-.29-.43l-.26.43c.36.54.54,1.01.71,1.41Z"/>
        <path class="curly-arrow" d="M103.3,87.9c-.07-.09-.15-.18-.23-.27-.31,0-.6.02-.87.02.33.07.71.15,1.09.25Z"/>
        <path class="curly-arrow" d="M104.88,86.74l1.18,1.01c-.24-.26-.62-.58-1.18-1.01Z"/>
        <path class="curly-arrow" d="M127.57,160.21v1.04c.62-1.34.15-.84,0-1.04Z"/>
        <path class="curly-arrow" d="M101.24,95.66c-.55.75-.93,1.37-1.22,1.93.69-.87,1.43-1.52,1.22-1.93Z"/>
        <path class="curly-arrow" d="M127.65,127.58c.15.43.27.61.36.59-.15-.45-.27-.7-.36-.59Z"/>
        <path class="curly-arrow" d="M98.73,99.87c.12-.12.21-.24.32-.36.26-.62.56-1.21.96-1.91-.54.63-1.11,1.35-1.29,2.27Z"/>
        <path class="curly-arrow" d="M31.82,204.75c-.08-.03-.17-.05-.24-.08-.03.06.08.07.24.08Z"/>
        <path class="curly-arrow" d="M6.67,199.11c-.73-.69-1.93-1.81-3.05-2.87.23.24.59.59,1.12,1.08.5.46,1.13,1.05,1.93,1.79Z"/>
        <path class="curly-arrow" d="M105.42,75.94c.02-.7-.04-.11,0,0h0Z"/>
        <path class="curly-arrow" d="M107.3,72.59c.04.15.1.27.2.29-.1-.06-.17-.16-.2-.29Z"/>
        <path class="curly-arrow" d="M96.62,106.95s-.03.03-.05.04c.21-.09.18-.08.05-.04Z"/>
        <path class="curly-arrow" d="M105.7,74.9c-.07.26-.14.56-.19.88.04-.14.11-.41.19-.88Z"/>
        <path class="curly-arrow" d="M105.48,75.03c.04-.24.06-.43.08-.61-.08-.09-.1-.01-.08.61Z"/>
        <path class="curly-arrow" d="M105.37,76.91c.02-.4.07-.77.13-1.12-.04.13-.07.19-.08.15,0,.2-.02.49-.05.97Z"/>
        <path class="curly-arrow" d="M90.34,196.12s-.1.03-.16.04c-.57.5-.3.33.16-.04Z"/>
        <path class="curly-arrow" d="M65.83,87.88s-.03.05-.05.08c.03-.02.06-.06.09-.07h-.05Z"/>
        <path class="curly-arrow" d="M67.85,85.78c-.69,1.14-1.18,1.59-1.98,2.11.53.09,1.05.19,1.55.31.1-.78.21-1.64.43-2.42Z"/>
        <path class="curly-arrow" d="M132.39,143.08l.62-1.85c.39,2.38-.18,4.03.69,2.32-.67-.24-.43-2.09-.3-3.96.13-1.88.1-3.76-.57-3.9.11-.42.2-.84.28-1.26,0,.36.08.42.07.78.59-2.48-.98-1.8-1.02-4.91-.01-1.09.09-1.87.34-1.15-.21-.8-.4-1.59-.66-2.36-.09-.7.17-.57.26.13l-.36-1.82-.43-1.8.04.02c-.3-.48-.94-1.55-1.21-2.07-.04-.95.25.42.36.14-.26-.63-.55-1.26-.86-1.87.08-.89.95.61,1.22,2.01.42-1.1.23-1.5-.13-2.13-.35-.64-.83-1.5-1.16-3.59l.8,1.79c.16-.72.04-1.42-.15-2.23-.21-.8-.51-1.69-.71-2.83,0,.61.49,4.58-.63,2.6-.14-.61-.37-1.42-1.11-2.41.43-.19-.12-1.24-.8-2.55l.62-.19c-.89-1.35-1.1-1.1-1.8-1.78-.79-1.58-.55-2.15-.41-2.72-1.4-2.5.34,2.09-1.51-.73-1.07-2.12-2.21-3.37-4.27-5.32-.85-1.43.48-.02.26-.6-.43-.28-.88-.55-1.33-.8-.22-.28-.03-.29.07-.3-.96-.79-.54.33-1.95-.97-.44.06-.9-.84-1.6-1.87-.35-.51-.75-1.06-1.21-1.55-.47-.47-1-.88-1.58-1.12-.33-.53.47-.11.49-.42-2.87-1.69-2.44-1.5-5.01-2.48l-1.68-1.59c1.16,1.31-.95.62-2.76.15.39.49.71.91.94,1.16-.88-.39-1.77-.76-2.68-1.07-.26-.25.09-.32.64-.34-.2-.04-.39-.08-.54-.1-.81-.68-.18-.77.65-.75.25.28.51.56.76.83.82,0,1.62-.02,1.68-.42-.21-.03-.56-.17-.93-.34.22,0,.37-.02.32-.12-.05-.11-.39-.15-.91-.22l-.28-.94-.28.18c-.55-.37-1.11-.73-1.69-1.05-.58-.33-1.14-.7-1.74-.99-.73-.09-1.44-.15-2.16-.19-.73-.02-1.46-.04-2.24-.08-.78-.01-1.6-.03-2.48-.1-.9-.02-1.86-.13-2.94-.21,1.15-.37.37-.81.53-1.42.55.42,1.4.53,2.41.6.99.12,2.17.17,3.26.6-1.13-.44-.81-.62-.48-.64-1.4-.17-2.79-.34-4.19-.38.18-.48-.78-.57-1.88-.9.35.56-.46.59-1.55.58-.55,0-1.17,0-1.77,0-.59,0-1.15.08-1.57.16-.06-.17.01-.34.36-.47.35-.13.98-.23,2.02-.11-1.15-.46-1.92-.11-2.64.21-.73.31-1.4.71-2.55.51.5-.06.77-.04.96-.23-1.15.35-3.99.65-3.39.24l.5-.1c-1.68.19-4.19.89-6.2,1.86-.5.25-.97.5-1.4.74-.42.26-.78.54-1.09.78-.62.48-.98.89-.96,1.15-.09-.07-.19-1.13-.08-1.37-1.26,1.93-2.28,3.88-2.7,5.91-.11-.42-.81-.57-1.31-.87-.5-.3-.8-.78.07-2.04-.62.58-1.56,1.22-2.33,2.93.43-.45,1.67-.57,1.29.1-.93.62-1.24.89-1.5,1.25-.14.18-.28.37-.5.65-.21.29-.56.64-.9,1.26.41-.79,1.19.56.78,1.75-.11-.24-1.13-.15-1.1-.68-.02.6.11,1.22.21,1.8.12.59.17,1.15.38,1.7-.2-.83-.95-.22-1.27.6.13-.19.05.59.18,1.51.05.94.32,2,.49,2.45-.04-.51-.08-1.01-.1-1.5.34,1.95,1.11,2.73,1.85,3.38.39.32.78.62,1.17,1.03.45.37.83.9,1.37,1.58-.43-.17-1.85-.03-.75,1.58.24.09.66.19,1.19.31.53.11,1.11.29,1.8.4.65.14,1.35.29,2.08.45.69.19,1.41.34,2.07.6.1.19.21.38.32.55.72.21,1.42.41,2.14.52-.38.08-.96.2-1.62.2-.33,0-.7.01-1.08,0-.38-.02-.77-.07-1.18-.12-.83-.08-1.64-.32-2.44-.53-.76-.27-1.5-.55-2.06-.86.42.6.46.71.56.89.12.16.28.41,1.17,1.04.22.35-.09.27-.53.05-.43-.24-.96-.65-1.21-.85,1.23,1.24,2.67,2.24,4.16,3.16.06-.35,1.02-.06,1.97.2.98.2,1.93.41,1.93.1-1.78-.35-3.54-.91-5.23-1.71.09-.34,1.03-.31,2.26-.07,1.27.2,2.83.62,4.44,1.04.78.48-.91.99-.93,1.22.51-.03,3.38.27,3.71.37-.51.1-1.03.17-1.56.19.49.16.95.19,1.4.14.45-.04.88-.09,1.3-.18.85-.19,1.71-.33,2.91-.17.79-.04,2.58.43,2.62-.02-1.51-.43-2.09-2.78-1.48-3.47.13.02,1.05-.03,2.07-.11.51-.06,1.05-.12,1.51-.17.46-.07.85-.12,1.08-.12.68.03.42.53.11,1.05-.31.52-.69,1.04-.08,1.06-.02-.19.54-.68.78-.87.81-.21-.06.68,1.51-.22-.04-.7,3.15-1.8.46-.91.69-.53,1.1-.72,1.54-.97.43-.24.94-.45,1.72-1.1-.39.02-.25-.55.1-1.27.33-.75.88-1.62,1.38-2.27.05.19.47.09.68.04,1.2-1.2,2.12-2.13,2.95-3.12.85-.97,1.6-1.99,2.38-3.38.29-.17,1.24-1.42,1.17-.71.13-.46.08-.96.51-1.86,1.37-1.48-.88,2.04.39,1.03-.29-.29.66-2.56.91-3.98-.37.09-.69.83-.98,1.72-.33.87-.63,1.9-.83,2.6-.77-.41-.4-2.93.36-6.06.62-2.49.87-.88.9-1.34,1.58-4.62-.25-4.31,1.15-8.06.78-1.48,1.07.11,1.5-.17-.05,1.07-.34,1.85-.59,2.54-.26.69-.5,1.29-.69,1.98.25-.54.44-1.1.65-1.66.06.7-.18,2.12-.54,2.83.2-.3.46-.94.71-1.81.22-.88.48-1.97.72-3.14.43-2.35.79-5.02,1.16-6.91-.13-.69-.23-1.87-.49-1.33v1.2c-.52,1.06-.45-2.29-.76-.8-.17-1.62-.59-3.4-.3-5.63l.61-.42c-.17.05-.36,1.46-.21,2.1-.21-.93.85-3.45.06-4.47l-.42,1.58c-.29-1.6-1.03-3.54-.93-5.51-.54.93.1.45-.55,1.88.42-.62.45.63.49,1.8.02,1.16,0,2.24.47,1.26-.82,1.44-.33,2.49-1.11,4.33.2-.05.41-.64.25.99.06.08.13.26.16.37-.01.05-.01.07-.02.11.01-.03.02-.06.03-.09.03.07.03.08.01-.03.11-.39.22-.7.34-.82.46.84.23,3.46.39,4.37-.21.97-.18-.43-.46.08l.21,1.36c-.46.08-1.03,2.47-1.04.17-.08.68-.17,1.36-.3,2.03-.22.57-.42,1.26-.56,1.94-.16.67-.29,1.32-.3,1.83-.27.92-.07,2.47-.2,1.58-.2,1.04-.34,2.11-.59,3.14h-.12c-.26.73-.47,1.5-.68,2.28-.25.77-.5,1.55-.76,2.34-.59,1.55-1.35,3.13-2.61,4.43-.2.49-.42.97-.74,1.48-.29.53-.72,1.08-1.27,1.73l-.51.02c-.67,1.15-2.88,2.6-3.02,3.24-.88.07-2.04,1.04-3.37,1.96-1.32.94-2.8,1.83-3.83,2.15l.11.5c-1.43.51-2.77,1.05-4.61,1.48l.17.43c-.4.13-.88.24-1.4.22-.52,0-1.09-.02-1.66-.14-1.15-.16-2.36-.61-3.58-.95.22-.1.82.09,1.23.32-1.35-.81-2.81-1.26-4.29-1.86-1.46-.59-2.9-1.42-3.57-2.7-.62-.36-.85-.84-1.07-1.26.04.05.08.09.12.12-.04-.06-.1-.14-.17-.22-.13-.28-.2-.6-.32-.91.06.29.13.57.23.79-.27-.44-.81-1.04-1.22-1.7l.28-.5c-.03-.05-.06-.09-.09-.15-.11-.73-.43-.47-.62.06-.21-.33-.43-.64-.64-.87.23-.41.1-.88-.11-1.38-.18-.5-.26-1.08.09-1.51-.12-.12-.17-.41-.24-.8-.03-.19-.06-.41-.09-.64,0-.23.01-.47.02-.72.03-.48-.05-.99-.02-1.39,0-.4-.05-.74-.22-.91.11,0,.23-.21.11.22.3-.87.85-1.59.98-2.45.23-.02.49-.01.73-.01l.21-1.03c.07-.36.15-.72.29-1.05,1.13-.69,1.57-.86,1.14.32.17-.32.31-.6.45-.83.17-.21.31-.39.43-.55.25-.31.44-.52.62-.73.39-.39.74-.71,1.62-1.72l.1.4c.77-.45,1.83-1.64,2.51-1.53,1.07-.12,3.46-.97,6.37-1.47,2.9-.51,6.32-.52,8.82.23-.42-.63.17-.46.9-.15.74.31,1.6.68,1.8.27.25.34.92.68.03.7,1.34.21,2.29.56,3.13.9.86.3,1.6.58,2.61.56.19.37-.69.17-.49.42.22.02.89.07,1.08.34.19.26-.45.06-.89.03,2.52.99,3.13.39,3.67-.24,1.12.99,1.75,1.25,2.91,1.34.31.48.88,1.12-.68.33.21.13.62.4,1.14.73.5.35,1.09.77,1.67,1.15,1.13.8,2.21,1.49,2.44,1.28.14.32,1.05.9,1.3,1,1.67,1.47,1.78,1.63,3.4,3.1l-.36-.49c1.17.04,1.42,1.16,2.69,2.39h-.09c1.13,1.73,1.45,2.01,1.76,2.32.29.31.66.58,1.56,2.39l.26-.46c1.09-.3,1.57,3.25,3.04,5.04l-.2-.86c.99.92.52,3.78.93,4.93.04.28-.32-.32-.55-.63.89,3.18.77.09,1.92,2.26-.13.55-1.02-.18-.42,1.34,0,.43.74,1.41,1.4,2.62.69,1.2,1.3,2.65,1.3,3.81.11-.54.23-1.09.73-.04.57,1.7.11,4.8,1.14,6.22-.03.23-.09.32-.15.34.18.65.42,1.71.62,2.72.18,1.01.42,1.95.64,2.35-.41.33-.55,1-.55,1.84-.05.83.06,1.83.11,2.8.12,1.93.08,3.73-.66,3.62-.1,1.37-.38,2.71-.58,4.07l-.13-.14c-.67,2.53-.55,3.52-.48,4.52-.27.56-.28.09-.35.02-.66,1.82-1.13,2.77-1.37,3.73-.24.96-.43,1.85-.69,3.52l-.59.11c-.07.45-.8,1.66-1.74,3.15-.94,1.5-2.08,3.27-2.83,5.03-.03-.06-.06-.18.04-.47-.46.97-1.09,1.95-1.82,2.89-.76.91-1.52,1.83-2.28,2.63-1.48,1.65-2.73,3.02-2.55,4.21-.49.82-1.05,1.6-1.57,2.4,2.6-2.62.2.94,1.45.02-.9,1.18-3.01,2.36-1.81,1.02l.26-.14c-.21-1.1-3.47,3.03-3.87,2.46-5.23,5.01-11.34,8.65-17.21,11.85l1.03.26c-.68.39-1.4.72-2.1,1.08-.63.14-1-.12.5-.87-.97.04-2.33,1.61-2.32,1.76-3.1,1.15.78-1.32-.14-.9l-1.2.63.31-.05c-.87.74-.81,1.11-2.69,1.86-1.23.37-.78-.16-1.25.02-.02-.06-.18,0-.72.27l-2.78.99c.44.06.87.08,1.31.13-1.12.76-2.65.89-1.12,1.08-.56-.07-1.51.09-2.63.38-1.14.23-2.43.64-3.73.95-1.29.33-2.56.66-3.59.85-1.03.22-1.81.35-2.13.31-1.74.73-3.56.96-5.81,1.11.57.08.97.7-1,.77.62-1.36-3.62-.36-5.22-1.33.71.31-.67.37-1.96.44-1.29.07-2.48.14-1.38.62-1.64-.14-.09-.5-1.32-.84-3.91.41-8.53-.79-13.34-1.14-.09.17.68.52-.38.67l-2.44-1.17c-.96-.03-1,.9-2.66.08.23.18.57.45-.08.42-2.3-.51-4.7-.88-7.02-1.21-1.12-.16-2.24-.39-3.37-.67-.56-.13-1.13-.29-1.7-.44l-.88-.26-1.22-.39-4.8-1.56-4.57-1.32-2.43-.69-1.32-.36-.34-.09c-.11-.03-.26-.08-.21-.05,0,.03,0,.05,0,.08-.11.17-.5.23-3.34-.41l.58.59c-.21-.22-.37-.41-.43-.5.99.29,1.27.42,1.44.53.07.05.12.1.09.14-.05.03-.15.06-.29.08.59.54,1.39,1.27,2.22,2.03-.65-.67-.25-.44.41,0,.66.44,1.44.98,1.75,1.1l2.62,3.11.55.73c.17.24.45.52.53.73.23.45.55.92.74,1.39.32.25.72.75,1.01,1.29.14.27.28.56.41.87.11.26.17.46.25.69.31.91.48,1.8.83,1.93-.12-.38-.22-.76-.37-1.13.55.67.84.06,1.05-.81.11-.43.17-.92.28-1.32.11-.36.28-.56.53-.58-.53-.47-.73-1.14-.83-1.7-.12-.57-.07-.9-.52-1.42-.26-.31-.7-.71-1.6-1.44.12-.02.9.71,1.2.86-.57-.45-1.04-.82-1.41-1.15-.17-.15-.41-.33-.44-.4.24.07.56.18.92.32l.11.15c1.31.27,2.48.76,3.52,1.24.48.23.97.47,1.51.74.12.06.24.12.37.18.07.03.1.05.21.1.14.05.29.11.43.16.58.22,1.23.44,1.93.67l-.3-.57c1.19.39,1.42.59,1.98.84.79-.19-.08-.39-.95-.62-.87-.24-1.73-.52-.99-.72.65.68,2.82,1.27,4.98,1.56,2.04.29,4.02.59,4.49,1.2,1.85.24-.47-.61,1.38-.37l.45.36.51-.32c1.21.21,1.77.65,1.79.91-.29-.07-.85-.03-1.17-.05,1.53.55,4.47.41,5,.57l-1.77-.38c5.09.31,11.33,1.23,16.33.68l-.37-.23c3.79-.38,3.04.3,7.21-.04l-.15.06c.83-.25,1.93-.44,3.07-.51-1.04.36,2.03.33.67.75,4.1-.92,2.03-.54,4.61-1.78l.68.27c.86-.47.9-.67,2.91-1.18-1.61.65,1.42.29-.37,1.08,4.52-.13,6.11-2.37,8.38-1.85.8-.82-.15-.63-1.17-.35-1.03.26-2.13.65-1.62.38-1-.08,1.38-1.16,2.69-1.53.66-.21,1.32-.09,2.25-.07.91-.01,2.09-.09,3.72-.78-.33.13-.32.22-.64.35,1.32-.29,2.26-1.32,3.9-1.63.56-.95,1.92-.88,1.81-1.7l-2.83,1.55c.79-.49,1.46-1.13,2.3-1.75.84-.63,1.8-1.3,3.24-1.79-.13.25-.82.85-1.31,1.24.89-.21,1.43-.91,2.33-1.17.08.41-.75.94-1.81,1.51-.53.29-1.1.59-1.64.92-.55.31-1.06.63-1.44.98,1.03-.09,3.08-2.18,2.59-.96.38-.82,1.17-1.18,2.07-1.6.89-.44,1.92-.9,2.73-1.87l.11.49c.28-.27.83-.87,1.43-1.23l-.75,1.19c.69-.75,1.55-1.13,2.41-1.52.85-.4,1.71-.78,2.41-1.42-3.24,2.22-1.05.02-2.61.66,1.81-1.6,2.54-1.74,3.37-1.91.82-.17,1.78-.3,3.82-2.1-.54.51-2.33,1.49-1.57.6.86-.57,2.05-1.26,2.69-1.48,2.66-2.42-.73-.01.24-1.23,1.3-.36,1.19-1.31,2.2-2.51l.34.35c1.6-1.27,1.62-1.65,1.6-1.98-.02-.33-.06-.61,1.35-1.77l-.61,1.56,1.22-1.48.12.66c1.14-1.8,1.67-2.18,3.12-3.64-.56.14-.49-.78.65-2.15.99-.77-.06.84,1.46-1.22-.12.63-.19,1.4-1.26,1.96.05.19-.14.63-.09.82,1.14-.79,2.16-2.58,2.73-3.31-.24.27-.52.6-.71.73.6-1.11,1.13-2.26,1.67-3.39.49-.37.34.09.19.55.4-.64.52-1.19,1.08-2.15.16.45.57.64-.19,2.04.58-1.05,1.07-2.16,1.61-3.22.29-.1,1.34-1.34,1.23-.86.6-.81,1.08-1.94,1.51-3.19.22-.62.46-1.25.73-1.87.24-.63.52-1.24.87-1.81-.01-.16.04-.44.22-.96.53-1.12,1.1-2.15,1.61-3.27.45-1.14.92-2.35,1.07-3.84l1.15-1.41c.48-2.27-1.45,1.94-.71-1.82.4-2.68.82-.85,1.23-1.73-.07-1.42-.34-3.81.49-6.21.03.83-.15,1.47-.19,2.24ZM128.91,115.19c.31.47.94,1.41.81,1.88-.74-.41-.62-.95-.81-1.88ZM100.07,85.29c.43.02.97.34,1.52.8-.47-.19-.99-.43-1.52-.8ZM104.91,83.57s0,.04.01.06c-.38,1.08-.23.7-.01-.06ZM105.49,81.27c-.03-.24-.1-.24-.18-.15.09.18.02.7-.11,1.3.15-.15.29-.44.29-1.15ZM82.02,196.44l.47-.07c-.91.54-.69.3-.47.07Z"/>
        <path class="curly-arrow" d="M104.68,86.87c.09.15.09.25.07.34.23.04.28-.04-.07-.34Z"/>
        <path class="curly-arrow" d="M127.57,160.02l-.04.08c0,.06.02.09.04.12v-.19Z"/>
        <path class="curly-arrow" d="M89.52,114.33c-.53.16-.84.19-1.06.19.02.12.28.12,1.06-.19Z"/>
        <path class="curly-arrow" d="M105.4,68.69l.13,1.52c-.03-.73.08-1,.15-1.37-.11.04-.28.33-.28-.15Z"/>
        <path class="curly-arrow" d="M107.37,55.11c-.09-.22-.07-.48-.15-.7l-.21.09c.13.96.4,1.62.37.6Z"/>
        <path class="curly-arrow" d="M106.97,67.24c.4-.13.23-1.1.11-2.18,0,.07,0,.13,0,.19-.58-.29-.35.85-.12,1.99Z"/>
        <path class="curly-arrow" d="M107.06,64.81c-.03-.33-.07-.67-.07-1-.24-.11-.02.41.07,1Z"/>
        <path class="curly-arrow" d="M105.57,78.25c.16-.49-.48-.36-.29-.63-.43-.61.25,3.39.29.63Z"/>
        <polygon class="curly-arrow" points="108.27 66.32 107.78 66.73 108.21 67.33 108.27 66.32"/>
        <path class="curly-arrow" d="M107.85,74.95l.2-1.74c-.08.02-.13-.2-.16-.47-.05,1.07-.19,2.24-.05,2.21Z"/>
        <path class="curly-arrow" d="M107.9,72.74c.03-.56.04-1.09-.04-1.4,0,.3,0,.95.04,1.4Z"/>
        <polygon class="curly-arrow" points="108.49 68.71 108.38 69.23 108.35 70.47 108.49 68.71"/>
        <path class="curly-arrow" d="M104.29,93.24c-.17.61-.38,1.21-.57,1.81.09.25.38-.2.58-.88.07-.46.24-1.15-.01-.93Z"/>
        <path class="curly-arrow" d="M107.27,88.08c-.24.48-.35.49-.59.73l.59.21v-.95Z"/>
        <path class="curly-arrow" d="M105.78,93.56c.13.25-.59,2.83.31.5-.1-.25.39-2.15-.31-.5Z"/>
        <polygon class="curly-arrow" points="86.02 113.87 86.48 113.7 86.09 112.76 86.02 113.87"/>
        <path class="curly-arrow" d="M61.89,106.15c.49,1.26.73,1.31.93,1.33.2.03.36.03.88,1.1.52.36-.84-1.74-.32-1.33-1-1.19-1.2-2.06-1.49-1.1Z"/>
        <path class="curly-arrow" d="M63.38,107.25c.17.19.35.38.55.57-.29-.33-.45-.48-.55-.57Z"/>
        <path class="curly-arrow" d="M11.12,206.58c.04.42.1.84.11,1.25.06-.28.1-.57.14-.86l-.24-.39Z"/>
        <path class="curly-arrow" d="M12.39,208.81c-.2.13-.4.26-.61.38l.65.71c-.06-.29-.15-.85-.05-1.09Z"/>
        <path class="curly-arrow" d="M128.47,110.77l-.19-.04c-.06.29.08.62.35,1.29l-.16-1.25Z"/>
        <polygon class="curly-arrow" points="133.32 131.01 133.3 130.65 132.77 131.36 133.32 131.01"/>
        <path class="curly-arrow" d="M132.6,148.57c.18-.7.28-1.54.42-2.25-.21,1.57-1.19,2.27-.42,2.25Z"/>
      </g>
      <g>
        <path class="curly-arrow" d="M18.56,183.61s-.36-.12-.43-.15c.08.07.54.18.43.15Z"/>
        <polygon class="curly-arrow" points="19.32 184.35 19.16 184.29 19.53 184.5 19.32 184.35"/>
        <path class="curly-arrow" d="M19.14,184.79c.68.23-.04-.2.22-.19l.16.04-.52-.24c.05.12.36.39.14.38Z"/>
        <path class="curly-arrow" d="M17.63,184.39c.26.1.2.14.1,0-.03,0-.05-.01-.07-.02,0,0,0,.02-.03.03Z"/>
        <path class="curly-arrow" d="M17.66,184.36s-.23-.07,0,0h0Z"/>
        <path class="curly-arrow" d="M17.72,184.61l-.2-.15c-.15-.06-.21-.03-.31-.1.1.11.25.17.51.25Z"/>
        <path class="curly-arrow" d="M18.17,184.88l-.08-.07c-.06-.02-.09-.03.08.07Z"/>
        <path class="curly-arrow" d="M17.92,184.65l.17.15c.11.04.32.14-.06-.06.19.09.01,0-.11-.09Z"/>
        <path class="curly-arrow" d="M18.03,184.67c.15.04.26.03.46.19-.04-.15-.51-.33-.46-.19Z"/>
        <path class="curly-arrow" d="M19.81,185.09l.21.03-.2-.13c.1.07-.22.02,0,.1Z"/>
        <path class="curly-arrow" d="M17.24,184.75c.13.07.37.17.54.25l-.13-.12c-.1-.03-.21-.04-.41-.14Z"/>
        <path class="curly-arrow" d="M17.78,185.01l.2.18c.06-.04-.05-.1-.2-.18Z"/>
        <polygon class="curly-arrow" points="18.88 185.23 18.43 184.89 18.88 185.25 18.88 185.23"/>
        <polygon class="curly-arrow" points="17.12 184.94 16.82 184.75 17.26 185.06 17.12 184.94"/>
        <path class="curly-arrow" d="M17.09,185.11c-.24-.17-.44-.22-.59-.33.02.06.22.21.4.36-.09-.09-.04-.11.19-.03Z"/>
        <path class="curly-arrow" d="M17.16,185.35c-.05-.05-.15-.13-.25-.22.05.05.12.11.25.22Z"/>
        <path class="curly-arrow" d="M17.86,185.25c-.08-.04-.3-.15-.4-.16l.39.18.02-.02Z"/>
        <path class="curly-arrow" d="M17.86,185.27h-.01s-.04.03-.05.03c0,0,.02-.01.06-.03Z"/>
        <path class="curly-arrow" d="M17.87,185.24h0s.05.03,0,0Z"/>
        <path class="curly-arrow" d="M18.46,185.23c.19.14.38.34.75.43-.25-.16-.45-.21-.75-.43Z"/>
        <path class="curly-arrow" d="M18.36,185.47l.12-.02c-.1-.05-.25-.12-.35-.19l.23.21Z"/>
        <polygon class="curly-arrow" points="18.46 185.56 18.36 185.47 18.31 185.47 18.46 185.56"/>
        <path class="curly-arrow" d="M17.56,185.46c.14.12.14.16.15.2.09,0,.15,0,.17-.04-.11-.07-.31-.21-.32-.17Z"/>
        <path class="curly-arrow" d="M17.74,185.39l.02.02s.05.02-.02-.02Z"/>
        <path class="curly-arrow" d="M17.51,185.98s.05.03.07.04l-.06-.04h0Z"/>
        <path class="curly-arrow" d="M17.96,185.66c.09.01,0-.05-.1-.13.03.04.04.08.03.1.05.03.09.05.07.03Z"/>
        <path class="curly-arrow" d="M17.28,185.54c.08.03.16.06.23.08-.12-.06-.32-.14-.23-.08Z"/>
        <path class="curly-arrow" d="M17.65,185.36s-.01-.01-.01-.01c-.08-.04-.05-.02.01.01Z"/>
        <path class="curly-arrow" d="M17.65,185.36s.13.11.21.16c-.02-.03-.05-.07-.1-.11-.03-.01-.07-.03-.11-.05Z"/>
        <path class="curly-arrow" d="M19.72,187.61c-.32-.23-.57-.51-.17-.35-.2-.23-1.33-.89-1.97-1.24.14.1.28.18.43.38.19.1.52.14.78.39.11.2-.17,0-.37-.08.44.24.52.52,1.13.91l-.15-.23c.09.06.22.19.32.23Z"/>
        <path class="curly-arrow" d="M17.69,185.92l-.03-.05c-.08,0-.22-.07-.5-.21.14.14.25.23.36.31l.13-.09.04.04Z"/>
        <path class="curly-arrow" d="M17.73,185.76c.36.24.47.41.89.61.02-.1-.27-.25-.4-.39.02.18-.18-.16-.45-.2-.05-.06-.06-.09-.06-.12-.06,0-.13-.02-.2-.04h.02s0,.01,0,.01h0s.08.04.05.03c0,0,0,0,0,0,.05.03.09.06.14.09-.1-.01-.1-.05-.14-.09l-.05-.03h0s.13.24.13.24c.07,0,.07-.03.07-.11Z"/>
        <path class="curly-arrow" d="M19.99,186.15s-.06-.03-.09-.04c.04.03.07.05.09.04Z"/>
        <path class="curly-arrow" d="M19.72,186.09s-.2-.13-.14-.14c.13.03.18.09.31.16-.09-.07-.24-.21-.46-.25l.05.04c-.16,0-.67-.19-.72-.23.35.17.6.28.96.42Z"/>
        <path class="curly-arrow" d="M18.81,186.02l.12.22.36.13-.2-.11c.12-.02-.13-.14-.28-.24Z"/>
        <polygon class="curly-arrow" points="17.32 185.87 16.95 185.61 17.45 186.01 17.32 185.87"/>
        <polygon class="curly-arrow" points="17.29 186.02 16.96 185.79 17.14 185.96 17.29 186.02"/>
        <path class="curly-arrow" d="M11.52,195.51v.12s0-.08,0-.12Z"/>
        <path class="curly-arrow" d="M11.86,195.44l-.05-.19c.02.11.03.19.05.19Z"/>
        <path class="curly-arrow" d="M14.73,188.69c-.26-.27-.64-.7-.37-.34l.27.34c-.02-.08.03-.06.11,0Z"/>
        <path class="curly-arrow" d="M13.54,192.36l.07.11c-.05-.14-.09-.27-.14-.39.02.09.04.18.06.28Z"/>
        <path class="curly-arrow" d="M14.24,194.01l-.2-.22c.06.08.12.15.2.22Z"/>
        <path class="curly-arrow" d="M9.82,196.4l.03.44c.09-.02,0-.23-.03-.44Z"/>
        <path class="curly-arrow" d="M16.45,187.32c-.15-.08-.23-.11-.26-.1.22.13.52.36.26.1Z"/>
        <path class="curly-arrow" d="M10.37,191.05c0,.08.01.17.04.26,0-.08,0-.16-.04-.26Z"/>
        <path class="curly-arrow" d="M16.1,187.31s.06.04.09.05c-.03-.07-.05-.14,0-.15-.16-.1-.27-.15-.08.09Z"/>
        <path class="curly-arrow" d="M3.14,196.58s0-.03-.01-.05c0,.06,0,.06.01.05Z"/>
        <path class="curly-arrow" d="M2.13,192.02s.03-.02.05-.02c0-.03-.01-.03-.05.02Z"/>
        <path class="curly-arrow" d="M16.79,186.38s-.03-.03,0,0h0Z"/>
        <path class="curly-arrow" d="M18.25,187.3s.08.08.16.14c-.08-.07-.13-.11-.16-.14Z"/>
        <path class="curly-arrow" d="M17.76,189.47h0c.07.05.05.04,0,0Z"/>
        <path class="curly-arrow" d="M16.97,186.47s-.09-.04-.13-.05c.03.02.07.03.13.05Z"/>
        <path class="curly-arrow" d="M16.8,186.35s.04,0,.05,0c-.06-.05-.09-.07-.05,0Z"/>
        <path class="curly-arrow" d="M16.78,186.43s.03-.02.07-.01c-.03-.01-.05-.03-.06-.04,0,.01,0,.03,0,.05Z"/>
        <path class="curly-arrow" d="M6.6,195.32s0-.02-.01-.04c-.03.18-.01.15.01.04Z"/>
        <path class="curly-arrow" d="M16.43,192.98s0-.02,0-.02c0,0,0,0-.01,0l.02.03Z"/>
        <path class="curly-arrow" d="M16.46,193.34c-.22-.5-.16-.46-.05-.39l-.71-1.03.76,1.42Z"/>
        <path class="curly-arrow" d="M10.76,195.84l.2.35c.02.66-.13.47.1.97-.31-1.32.41-.25.08-1.56l.14.26s0,.07-.03.06c.31.59-.15-.97.07-.84.09.08.18.26.19.43l.04-.36s.1.24.06.23l.18-.16v.04c-.02-.21-.05-.55-.06-.69.11.17.02.15.08.3v-.35c.17.32.17.68.08.65.51,1.26,0-.36.46.32l-.06.2c.31.71.31.42.59.83-.11-.23-.63-1.07-.61-1.43.07.09.13.12.11-.16.15.46.18.32.26.27l.2.61c.03-.2-.08-.51-.12-.8.12.02.3.48.47.87.2.04-.38-.71-.23-.89.21.18.22-.1.24-.51.17.17.12.37.22.53l-.1-.51s.07.15.1.23c0-.21-.23-.6-.19-.8-.24-.66.6.87.42.08.1.15.14.37.24.59-.03-.56,0-.42-.14-1.13l.29.33c-.28-.4-.4-.97-.5-1.43-.13-.2-.24-.37-.29-.45v-.38c.06.09.14.29.22.55-.01-.05-.03-.1-.04-.15.15.19.28.54.39.88-.07-.11-.14-.22-.22-.33.13.37.27.78.43,1.12-.02-.07-.03-.14-.02-.18.03.1.07.19.1.25.03.06,0-.08-.05-.24l.33.63-.11-.26.4.31c-.16-.72-.5-1.73-.43-2.1.19.49.38.77.66,1.32-.36-.55-.05.34-.23.28.09.03.21.3.24.4l-.05-.64c.23.45.22.32.37.47-.5-.87-.15-.67-.21-.99.17.29.31.61.16.59.48.6-.41-1.12,0-.61-.02.02-.06-.02.01.14-.09-.29.17-.17.28.11l-.02.02c.23.01.52-.3.09-1.03.05.1.51.89.59,1.04-.39-.88-.81-1.74-1.24-2.6.37.63,1.4,2.04,1.48,2.47.1.06.21.13.16-.14-.08-.07-.64-.84-.64-.92.54.62.3.32.81.82-.13-.1-.72-1.09-.64-1.1.09.15.64.94.68,1.05l-.48-1.03c.08.19.53.79.75,1.03-.14-.17.15-.07.13-.2l-.22-.17c.27.01-.75-1.41-.57-1.47.12.2.8,1.19.97,1.24-.3-.5-1.49-2.33-1.66-2.77l.23.24-.14-.37c.49.72,1.44,2.3,1.75,2.95.22.16.25.3.33.2.22.22.23.41.21.45l.36-.02c-.42-.52-.25-.67-.61-1.1l.19.74c-.42-.53-1.04-1.61-.83-1.63.21.18.73.95.87,1.12-.12-.2-.13-.46-.02-.34l.16.33c.25.12-.43-.79.08-.39.06,0,.67.56.42.26-.56-.53-2.12-2.32-2.46-2.78.04.03.63.42.92.67.45.4.88,1.14,1.27,1.48-.12-.14-.24-.33-.28-.4.14.09.37.44.39.31-.45-.52.19-.09-.35-.46-.06-.21.17.03.24-.07-.33-.3-.96-1.16-1.03-1.36.12.13.29.28.37.34.17-.09.47.07.6-.06.13.1.33.18.52.41-.07-.1-.22-.28-.19-.33.51.32-.02.16.55.58-.28-.28-.3-.48-.42-.71-.47-.4-.21.05-.09.28-.61-.58-1.16-1.29-1.34-1.66-.07-.23.44.32.37.23.28-.1-.98-1.12-.39-.88.46.28.83.68,1.13.92.08.22-.37-.09-.41-.02l.25.09c.11.14.16.29.02.22.41.26.37-.28.84-.17-.12-.14-.23-.31-.42-.42l.02.1c-.38-.22-.4-.46-.61-.53-.19-.25-.52-.61-.26-.55l.51.35c-.15-.1-.34-.16-.21-.02-.19-.2.78.35.16-.16l-.39-.19c-.2-.24-.68-.7-.47-.66-.52-.31.04.06-.57-.3.75.47-.16.16.64.63-.7-.43-.35-.11-.96-.47.16.12.33.21.2.21.04.04.1.09.13.12h-.01s.02,0,.02,0c.02.02.03.03,0,0,.08.04.17.09.27.16.35.31.26.4.42.59-.1-.02-.17-.16-.35-.27l.24.28c-.36-.27-.66-.38-.8-.62l-.08.06c-.23-.12-.35-.13-.24.03-.1-.03.31.41.06.15l.11.3-.08-.07c-.14.06.33.73-.37.3.05.12.11.25-.04.22l-.29-.26c.05.14-.4-.15-.14.16-.77-.71-.37.04-.58-.03l.33.38c-.08.03-.03.18.02.4l.3.34c.17.34-.38-.1-.45.02-.1-.14-.05-.13.04-.06-.75-.69.19.8-.38.3.07.15.01.12-.07.05,0,0,0-.01,0-.02,0,0-.01,0-.02,0-.06-.05-.13-.11-.18-.16.08.08.14.14.18.17-.02.02-.02.09.01.21l-.3-.38s0,0,0,.02c-.14-.12.11.2.34.49.03.08.07.17.12.27-.48-.61.06.28-.46-.37.21.35,0,.37.45,1.09-.06-.09-.1-.13-.09-.15-.1-.05-.19-.11-.1.12l-.35-.5.36.75c-.26-.28-.39-.45-.59-.88.25.69.04.29.3.98l-.2-.34s.17.53-.02.27c-.47-.59-.52.18-1.08-.32.58,1.01-.35-.41.05.4-.14-.24-.24-.36-.31-.59,0,.3-.37-.3-.12.42-.13-.24-.15-.38-.23-.52.02.06.07.24-.02.09-.08-.14-.08-.22-.12-.34-.1.1.25.87.57,1.6-.23-.31-.24-.25-.07.25-.13-.23-.28-.46-.24-.58-.06-.01-.43-.22-.18.36-.08-.14-.08-.02-.07.06-.12,0-.15-.04-.23.06l.07.08c.25.73-.02.2-.08.32l-.03-.07c-.4-.44,0,.29-.41-.24l.18.45c.34.97-.39-.51-.36-.1l.13.24c.05.36-.64-1.26-.74-1.36-.04-.08-.03-.14-.03-.21-.35-.53.18.6.11.78-.13-.31-.25-.83-.34-.86-.12-.25.11,1.12-.19.54.1.24.2.48.2.69-.06.12-.51-.88-.36-.07-.03-.07-.05-.13-.07-.19,0,.22-.12.4-.04.84-.49-1.59-.23.89-.6-.59l-.19.13-.03-.15c-.15-.07-.12.3-.09.67-.05-.09-.06-.24-.08-.32-.26-.26-.26-.19-.28.59l-.12-.48c0,.29-.43-.71-.52-.1,0-.06-.02-.15-.02-.22-.13.61-.73-1.27-.53.52l-.08.46c.21.11.09.78.21,1.06-.07.12-.28-.51-.2-.62l.03.09c-.1-.94-.29-.3-.37-.93-.37.1-.79-.38-1.14-.39l.11.72-.13-.03c-.05-.17-.09-.57,0-.54-.08-.41-.12.36-.11.52-.2-.28,0-.86-.06-.87l-.07.06.02.08c-.03.3-.01.62-.12.59-.08-.14-.07-.45-.1-.47,0-.05-.01-.08-.04-.02l-.16-.05.1.57c-.05.29-.15-.02-.03.63-.17-1-.61-.33-.69-.64-.08.42-.18.42-.3.38.03.12.07.77-.03.69,0-1.34-.21-.58-.32-1.54.09.64-.29.17-.15,1.07-.09-.11-.01-.5-.08-.82-.2.52-.44-.33-.66-.16,0,.18.02.45-.03.71l-.09-.88c-.04.08-.09,1.01-.14.4,0,.15,0,.37-.02.43-.2-.44-.41-.28-.63-.23-.21.05-.44-.01-.35-.83-.06.34-.09.36-.13.36,0,.08-.13.42-.2.64.01-.23.04-.45.07-.67-.25.61-.15,0-.4.57l.09-.09c-.36.66-.52,1.58-.86,2.47.21-.37.18-.05.19.24,0,.29.07.54.34-.02,0,.2-.12.29-.16.51.17-.38.25-.45.33-.24l-.04.1c.36-.02.43.41.79.73l.03-.47c.07.07.07.22.1.34.17-.7-.22-.07-.04-.84,0,.97.54.07.53,1.16.12.01,0-.55.12-.54l.02.3.05-.38c.07.07.1.44.09.69-.02-.03-.06.07-.08.09.09.35.3-.11.33,0l-.11-.19c.33-.27.71.12.99-.49l-.03-.22c.21-.42.18.24.41.04v.05c.03-.22.09-.34.16-.31-.05.26.13.51.06.8.22-.45.11-.35.22-1.19l.05.37c.04-.34.03-.51.14-.62-.08.32.1.56.01.99.29.8.32-.84.5.34.05-1.03-.25-.55-.2-.78-.07-.33.05-.77.13-.67.08.02.22,1.3.42,1.27-.02,0-.02.07-.04.07.1.26.12-.36.25.05,0-.62.12.02.07-.77l-.17.2c.09-.22.1-1.15.31-.71,0,.16-.03.37-.05.49.07.23.08-.16.15.07.06.79-.21.19-.27.8.08.33.16-.59.18.27-.02-1.09.21.12.27-.72l.04.47c.01-.08.04-.3.08-.29v.62c.05-.53.25.43.33.14-.23.04-.11-.56-.24-.9.2-.66.29,1.22.58.95-.04.07-.19-.26-.15-.49.07.09.17.26.24.51.2-.12-.09-.48-.04-.78.14.56.07-.25.13-.44l.06.48c.27.27-.07-1,.18-.66v.67s.09-.19.09-.19l.06.55c.06-.42.11-.32.25-.19-.08-.33-.12-.87-.02-.9.11.27.03.46.17.37.02.3.04.68-.09.26.01.16.02.3.03.46.13.31.21.04.26.03-.02-.01-.05-.04-.08-.1l.1-.69c.06.17.06.32.06.47.03-.06.03-.28.08-.33.05.39.13.79.06.98l.13-.46c.04.17.19.44.19.59.16.2.14-.8.35-.53,0-.08,0-.15.02-.21.16.06.39.5.44-.06l.25.66c.1-.19-.32-.84-.17-1.14.1-.25.19.57.29.75,0-.36-.04-1.1.24-.58-.01.14-.08.05-.11.11ZM12.28,195.09c0,.11.03.42-.07.16-.13-.54-.03-.29.07-.16ZM14.14,193.11c.05.15-.02.1-.13-.05,0-.05.05-.04.13.05ZM16.88,186.9l.02.02c-.18-.08-.11-.05-.02-.02ZM17.11,186.95c-.04-.05-.1-.09-.15-.13.09.08.08.11.04.11.1.07.18.12.12.02ZM5.93,192.12l.03.12c-.04.14-.04.02-.03-.12Z"/>
        <path class="curly-arrow" d="M14.16,193.82c-.04-.07-.08-.15-.12-.23.02.08.06.16.12.23Z"/>
        <polygon class="curly-arrow" points="9.81 196.31 9.8 196.31 9.82 196.4 9.81 196.31"/>
        <path class="curly-arrow" d="M18.64,191.25c-.07-.03-.14-.09-.21-.15.08.09.15.15.21.15Z"/>
        <path class="curly-arrow" d="M16.8,186l.06.13s.09.01.16.05c-.09-.07-.23-.15-.23-.17Z"/>
        <path class="curly-arrow" d="M19.64,187.14s0-.03-.04-.07l-.19-.12c-.01.05.12.18.23.19Z"/>
        <path class="curly-arrow" d="M18.14,186.89c.33.23.25.11.22.02,0,0,0,0,0,0-.46-.34-.33-.19-.21-.03Z"/>
        <path class="curly-arrow" d="M18.36,186.89s0-.04.02-.05c-.18-.13-.05-.01-.02.05Z"/>
        <path class="curly-arrow" d="M16.99,186.67c.1.05-.4-.33-.26-.24-.39-.34.4.51.26.24Z"/>
        <polygon class="curly-arrow" points="19.26 187.63 18.84 187.35 19.15 187.61 19.26 187.63"/>
        <path class="curly-arrow" d="M18.68,187.78h.17c-.07-.04-.1-.08-.12-.11-.05.04-.16.02-.05.11Z"/>
        <path class="curly-arrow" d="M18.73,187.67s.03-.05-.02-.11c0,.02-.01.05.02.11Z"/>
        <polygon class="curly-arrow" points="19.3 187.82 19.2 187.78 19.13 187.81 19.3 187.82"/>
        <path class="curly-arrow" d="M17.97,188.48l.04.17c.12.12.22.17.19.1-.07-.1-.1-.17-.23-.27Z"/>
        <path class="curly-arrow" d="M19.21,189.15c-.1-.04-.18-.12-.32-.21l.47.41-.15-.2Z"/>
        <path class="curly-arrow" d="M19.11,189.49c.12.12.25.45.32.32-.12-.12-.15-.3-.32-.32Z"/>
        <polygon class="curly-arrow" points="17.38 190.09 17.4 190.07 16.72 189.3 17.38 190.09"/>
        <path class="curly-arrow" d="M17.7,192.95c.26.11-.34-.53-.06-.36-.12-.21-.23-.14-.33-.33.08.26-.04.17.38.69Z"/>
        <path class="curly-arrow" d="M17.32,192.26s-.03-.09-.06-.15c.02.07.04.11.06.15Z"/>
        <polygon class="curly-arrow" points="2.17 191.45 2.22 191.24 2.11 191.57 2.17 191.45"/>
        <path class="curly-arrow" d="M1.81,192.12l.26-.6-.27.53s.06-.07.01.07Z"/>
        <path class="curly-arrow" d="M12.93,196.25l-.04-.15c-.07-.16-.09-.16-.14-.17l.19.32Z"/>
        <polygon class="curly-arrow" points="11.58 196.16 11.61 196.16 11.41 195.61 11.58 196.16"/>
        <path class="curly-arrow" d="M10.75,197.14s.07-.12.12-.11c-.07.12-.29-.6-.12.11Z"/>
      </g>
    </g>
  </g>
</svg>