<svg class="left-accent" xmlns="http://www.w3.org/2000/svg" viewBox="0 0 67.56 87.93">
  <defs>
    <style>
      .left-accent .cls-1 {
        fill: #fff;
      }

      .left-accent .cls-2 {
        fill: #ef4d86;
      }
    </style>
  </defs>
  <g>
    <g>
      <g>
        <path class="cls-2" d="M64.64,25.76c.06-.13-.36-.15-.43-.18.05.24.54.19.43.18Z"/>
        <polygon class="cls-2" points="65.16 28.17 65 28.1 65.35 28.51 65.16 28.17"/>
        <path class="cls-2" d="M64.68,30.27c.74-.03.06-.79.4-1.1l.17-.03-.52-.29c-.02.47.22,1.15-.05,1.42Z"/>
        <path class="cls-2" d="M62.9,30.99c.29,0,.17.3.15-.23-.04.02-.05.02-.08.03,0,.04-.03.11-.07.2Z"/>
        <path class="cls-2" d="M62.98,30.79c.04-.22-.26.08,0,0h0Z"/>
        <path class="cls-2" d="M62.86,31.82l-.16-.35c-.17.02-.28.26-.37.13.05.32.22.31.53.22Z"/>
        <path class="cls-2" d="M63.29,32.23l-.06-.18c-.07,0-.11.04.06.18Z"/>
        <path class="cls-2" d="M63.1,31.68l.13.37c.12-.01.35.05-.04-.16.2.08.02-.03-.09-.21Z"/>
        <path class="cls-2" d="M63.25,31.53c.19-.12.35-.3.5.05.06-.57-.45-.62-.5-.05Z"/>
        <path class="cls-2" d="M65.37,30.55l.25-.17-.19-.25c.09.12-.29.38-.07.42Z"/>
        <path class="cls-2" d="M62,33.47c.14.06.42.02.61.06l-.1-.26c-.13.08-.29.25-.51.2Z"/>
        <path class="cls-2" d="M62.61,33.53l.15.39c.12-.27.01-.36-.15-.39Z"/>
        <polygon class="cls-2" points="64.04 32.49 63.65 31.83 64.02 32.6 64.04 32.49"/>
        <polygon class="cls-2" points="61.61 34.65 61.33 34.37 61.74 34.84 61.61 34.65"/>
        <path class="cls-2" d="M61.42,35.45c-.23-.22-.53.02-.65-.17-.02.23.15.49.31.72-.06-.21.04-.39.34-.55Z"/>
        <path class="cls-2" d="M61.29,36.39c-.04-.11-.12-.24-.21-.38.03.11.09.24.21.38Z"/>
        <path class="cls-2" d="M62.52,34.43c-.1,0-.34-.03-.49.12h.45s.03-.07.04-.12Z"/>
        <path class="cls-2" d="M62.49,34.55h-.01c-.05.13-.09.22-.11.26.02-.03.05-.11.12-.26Z"/>
        <path class="cls-2" d="M62.53,34.4v.03s.05,0,0-.03Z"/>
        <path class="cls-2" d="M63.44,33.22c.17.25.3.71.76.44-.24-.22-.5-.06-.76-.44Z"/>
        <path class="cls-2" d="M63.09,34.41l.2-.31c-.11-.03-.29-.01-.37-.14l.17.45Z"/>
        <polygon class="cls-2" points="63.17 34.61 63.09 34.41 63.02 34.52 63.17 34.61"/>
        <path class="cls-2" d="M61.86,35.95c.13.2.09.36.05.55.15-.16.26-.34.32-.53-.12-.07-.32-.23-.37-.02Z"/>
        <path class="cls-2" d="M62.21,35.28v.04c.05,0,.07-.02,0-.04Z"/>
        <path class="cls-2" d="M61.31,38.24s.06,0,.08,0l-.07-.03-.02.03Z"/>
        <path class="cls-2" d="M62.32,35.96c.13-.12.06-.23-.04-.36,0,.12,0,.24-.05.36.05.03.09.05.09,0Z"/>
        <path class="cls-2" d="M61.31,36.93c.11-.04.21-.1.31-.17-.15.03-.4.11-.31.17Z"/>
        <path class="cls-2" d="M62.1,35.33s0-.02-.01-.03c-.1.02-.06.03.01.03Z"/>
        <path class="cls-2" d="M62.1,35.33c.04.09.12.18.19.27,0-.1-.02-.19-.06-.28-.03,0-.08.01-.13.01Z"/>
        <path class="cls-2" d="M63.68,39.71c-.36-.16-.56-.67-.04-.85-.17-.43-1.46-.65-2.25-.63.16.07.31.12.41.53.25-.04.75-.56.98-.16.03.51-.27.31-.54.45.53-.01.47.81,1.18.96l-.09-.48c.11.03.22.23.36.16Z"/>
        <path class="cls-2" d="M61.65,37.63v-.15c-.12.13-.31.19-.67.28.1.29.22.38.34.44l.29-.64.04.07Z"/>
        <path class="cls-2" d="M61.86,36.87c.37.25.43.63.94.59.11-.41-.24-.4-.34-.7-.12.68-.16-.26-.55.12-.03-.15,0-.27.01-.38-.09.1-.19.19-.3.27h.03s0,0,0,0h0c.06,0,.09,0,.05.02,0,0,0,.02,0,.02.06.02.1.05.14.08-.15.16-.12,0-.14-.08l-.06-.03h0s0,.72,0,.72c.1-.12.15-.29.21-.61Z"/>
        <path class="cls-2" d="M64.98,34.28s-.07,0-.1,0c.04.06.07.08.1,0Z"/>
        <path class="cls-2" d="M64.64,34.47c-.04-.07-.2-.16-.1-.3.17-.1.2.06.34.09-.08-.13-.19-.42-.49-.18l.04.06c-.22.22-.84.4-.89.34.39.04.68.05,1.1-.01Z"/>
        <path class="cls-2" d="M63.36,35.75l.02.61.45-.16-.22-.06c.19-.28-.1-.3-.25-.39Z"/>
        <polygon class="cls-2" points="61.08 38.22 60.68 38 61.17 38.52 61.08 38.22"/>
        <polygon class="cls-2" points="60.88 38.93 60.52 38.77 60.67 39.03 60.88 38.93"/>
        <path class="cls-2" d="M54.84,66.55l-.02-.19c0,.08,0,.14.02.19Z"/>
        <path class="cls-2" d="M54.23,67.53l.15.13c-.06-.1-.12-.16-.15-.13Z"/>
        <path class="cls-2" d="M53.83,55.82c-.44.09-1.07.12-.65.27l.43.1c0-.19.09-.3.22-.36Z"/>
        <path class="cls-2" d="M52,68.65s.09-.04.14-.05c-.14-.08-.27-.16-.39-.22.08.09.16.18.25.28Z"/>
        <path class="cls-2" d="M53.76,69.02l-.3.23c.1-.05.2-.12.3-.23Z"/>
        <path class="cls-2" d="M57.2,60.65l-.34-.34c-.1.27.15.24.34.34Z"/>
        <path class="cls-2" d="M58.2,46c-.24.13-.37.25-.45.38.33-.14.75-.18.45-.38Z"/>
        <path class="cls-2" d="M58.58,69.29c-.01-.13-.07-.22-.15-.27,0,.13.05.23.15.27Z"/>
        <path class="cls-2" d="M57.51,46.95c.05-.02.09-.04.14-.06,0-.17,0-.34.1-.5-.24.1-.43.25-.24.56Z"/>
        <path class="cls-2" d="M62.03,37.84s.03-.04.05-.05c-.06,0-.06.02-.05.05Z"/>
        <path class="cls-2" d="M66.62,30.92c.03.07.03.19.03.29.03-.05.03-.14-.03-.29Z"/>
        <path class="cls-2" d="M59.64,41.62c.03-.16-.04-.04,0,0h0Z"/>
        <path class="cls-2" d="M61.51,41.54s.08.1.17.14c-.09-.05-.15-.1-.17-.14Z"/>
        <path class="cls-2" d="M59.37,49.47s0,0,0,.01c.1,0,.08,0,0-.01Z"/>
        <path class="cls-2" d="M59.91,41.47c-.07.03-.14.08-.19.14.04-.02.1-.06.19-.14Z"/>
        <path class="cls-2" d="M59.7,41.43s.06-.08.09-.11c-.06-.04-.11-.05-.09.11Z"/>
        <path class="cls-2" d="M59.58,41.83c.03-.09.08-.16.14-.22-.04.02-.07.02-.08,0-.01.04-.03.11-.06.21Z"/>
        <path class="cls-2" d="M61.7,50.64s.03-.02.05-.02c-.15-.19-.13-.12-.05.02Z"/>
        <path class="cls-2" d="M56.42,61.36s-.01-.02-.01-.02l-.02.02h.04Z"/>
        <path class="cls-2" d="M56.51,62c-.42-.42-.3-.52-.13-.65l-1.23-.29,1.36.94Z"/>
        <path class="cls-2" d="M56.04,64.04l-.52.17c-.37-.7-.03-.88-.68-.81,1.2.66-.53,1.34.64,2.02l-.37.08c.05-.06-.02-.1.03-.16-.8.11.69.79.21,1.25-.2.14-.45.17-.51-.04l.05.59c-.09.11-.28-.04-.19-.15l-.3.69-.03-.03c.13.2.28.58.33.76-.27.06-.07-.16-.24-.21l.06.53c-.39-.05-.49-.52-.3-.74-1.34-.4.11.48-1.01.73l.07-.41c-.78-.22-.71.18-1.34.26.26.07,1.48-.03,1.51.52-.16.05-.28.16-.2.51-.4-.27-.44-.02-.59.24l-.51-.39c-.03.36.25.53.37.85-.26.25-.7,0-1.08-.18-.42.38.87.18.56.77-.32.15-.42.38-.47.72l3.04-.42c-.08.03-.21.09-.35.13.08-.25.29-.26.4-.42-.13.1-.28.19-.45.28,0-.03.12-.12.19-.16-.21.04-.51.39-.78.3-.31.14-.17-.11,0-.34.17-.24.36-.43-.06-.51.17-.11.39-.03.63-.1-.29-.15-.4-.25-.52-.33-.12-.09-.28-.16-.62-.4.14-.13.29-.26.44-.38-.49.27-1.06-.14-1.46-.6-.25.09-.46.18-.57.25-.09-.23-.18-.47-.25-.72.12-.06.32.04.57.19-.05-.05-.09-.1-.13-.14.27-.19.61,0,.94.21-.14.05-.28.11-.42.16.37.21.78.38,1.15.39-.07-.04-.12-.12-.15-.2.1.05.19.08.26.07.07,0-.06-.08-.21-.2h.72s-.27-.09-.27-.09c.18-.21.38-.41.57-.6-.58-.65-1.46-1.44-1.41-2.44.42.39.79.33,1.37.54-.71.04.02.77-.22,1.13.13-.2.4-.06.48.02-.12-.3-.23-.6-.31-.95.47.18.42-.05.69-.19-1-.17-.41-.83-.58-1.26.32.09.62.29.4.66.87-.19-.9-.97-.14-1.2-.03.1-.1.14.05.24-.2-.33.23-.82.46-.58l-.03.1c.36-.61.77-1.98.01-2.39.1.03.92.46,1.07.56l-2.2-2.22c.64.37,2.41.63,2.58,1.32.16-.12.35-.26.24-.68-.14.07-1.09-.13-1.09-.3.91-.09.51-.11,1.35-.34-.21.1-1.2-.51-1.06-.75.14.1,1.05.41,1.13.54l-.79-1.05c.12.23.87.39,1.22.38-.23-.02.24-.53.21-.73l-.35.16c.45-.63-1.17-1.3-.82-1.98.18.18,1.23.77,1.51.47-.46-.39-2.24-1.8-2.38-2.6h.35s-.14-.61-.14-.61c.67.64,1.99,2.19,2.45,2.91.35-.16.39.08.53-.32.34-.02.34.4.31.52l.57-.83c-.64-.23-.32-.96-.85-1.15l.21,1.26c-.63-.22-1.51-1.33-1.12-1.93.32-.06,1.05.6,1.26.67-.18-.18-.14-.79.04-.78l.21.42c.39-.26-.56-.94.22-1.12.1-.13.99-.1.63-.28-.81-.06-3.01-.96-3.46-1.36.07-.03,1.01-.49,1.44-.51.66,0,1.15.94,1.72.94-.16-.08-.31-.31-.35-.39.21-.09.49.29.57-.08-.6-.33.36-.67-.46-.39-.03-.41.28-.3.43-.7-.46-.05-1.22-.95-1.25-1.36.15.09.39.1.5.11.35-.66.8-.9,1.08-1.54.18,0,.49-.22.71.02-.07-.14-.25-.32-.18-.52.71-.15-.1.48.67.46-.35-.18-.28-.73-.39-1.1-.6-.15-.39.6-.28.98-.78-.33-1.38-1.17-1.45-1.99.03-.61.6-.02.53-.16.55-.94-1.01-1.42-.1-2.01.63-.12,1,.39,1.38.47,0,.51-.59.54-.7.84l.39-.26c.11.21.11.55-.1.65.56-.09.8-1.65,1.51-2.27-.11-.21-.19-.51-.44-.48l-.03.27c-.49.06-.37-.68-.68-.45-.15-.44-.45-.98-.04-1.35l.61.14c-.17-.05-.46.17-.34.37-.18-.29,1.06-.41.38-.91l-.52.17c-.16-.44-.62-1.08-.29-1.42-.64-.03.03.12-.74.16.92.06-.42,1.03.59.96-.88,0-.53.39-1.33.52.19.06.41,0,.19.31.05.04.1.1.14.14-.01,0-.01.01-.02.02h.03s.03.02.01-.01c.11-.05.24-.07.36-.06.36.34.13.88.28,1.15-.17.17-.18-.17-.43-.14l.22.41c-.43-.14-.91.26-.96-.32l-.19.42c-.34.16-.57.46-.49.75-.17.16.25.7,0,.39l-.02.78-.11-.04c-.32.64.1,1.65-.96,2.09,0,.27.04.55-.24.87l-.39-.08c0,.34-.73.7-.41.99-1.09-.11-.81,1.3-1.2,1.73l.46.22c-.18.34-.19.73-.19,1.24l.42.15c.18.52-.71.83-.92,1.44-.14-.11-.03-.24.11-.31-1.24.31.03,1.78-.92,2.14.08.23-.02.32-.17.39,0-.02,0-.03,0-.05-.01.01-.02.04-.03.06-.1.04-.21.08-.31.13.13-.03.24-.05.3-.09-.04.13-.07.34-.05.57l-.48-.11s0,.03,0,.05c-.24.11.15.23.52.28.03.12.09.25.17.36-.78-.15.04.58-.81.47.32.28-.1,1.05.64,1.47-.1-.04-.18,0-.14-.1-.17.17-.35.34-.2.62l-.6-.14.58.76c-.46.14-.71.17-1.03-.28.41.93.03.64.49,1.46l-.36-.17c-.06.21.31.72-.04.73-.89.18-.95,2.2-2.01,3.15,1.18.15-.69.38.15.72-.28-.01-.49.12-.65-.17.03.75-.74.93-.12,1.6-.29.02-.35-.25-.53-.21.04.07.18.28,0,.32-.18.04-.2-.16-.29-.3-.13.78.71,1.02,1.48,1.2-.44.29-.4.51.08.81-.27.1-.57.3-.61-.18-.04.12-.17.52-.19.91-.02.39.08.76.4.75-.16.1-.01.39.08.45.07.63.02.71.3,1.32l.04-.21c.8-.04.33.42.7.84l-.07.03c.1.65.3.72.42.78.13.07.23.09.52.66l1.84-.26s.05,0,.08-.02l-.4-.26c-.75-.71.98-.26,1-.94h-.34c-.1-.45,1.61.17,1.9,0,.11,0,.06.17.05.28.96-.29-.45-.45-.22-1.01.34.11.62.61.91.32.34-.02-.26-1.57.57-1.67-.28-.04-.56-.08-.59-.42.13-.4,1.44-.44.92-1.19.09,0,.16,0,.21.04-.02-.38.21-1.07-.09-1.45,1.6.53.2-2.09,1.54-1.39l.36-.91.13.09c.36-.52.11-.88-.13-1.22.15-.09.24.07.31.11.66-.69.62-.82.21-1.8l.49.12c-.19-.29,1.21-.93.97-1.97.05.03.13.08.18.17-.2-1.12,2.09-1.84.48-2.74l-.24-.75c-.38.76-.71-.35-1.1-.1,0-.34.76-.65.74-.24l-.1.03c.86.41.62-.9,1.22-.71.41-1.61,1.28-3.07,1.63-4.6l-.75.03.15-.52c.2-.11.6-.08.49.3.45-.12-.21-.71-.37-.74.43-.69.78.45.84.23v-.32s-.09.05-.09.05c-.25-.31-.56-.39-.44-.84.2-.26.47-.07.52-.18.05,0,.08-.02.05-.17l.17-.67-.61.18c-.23-.34.13-.63-.56-.42,1.08-.29.73-2.45,1.07-2.68-.37-.47-.3-.88-.2-1.39-.13.11-.79.11-.66-.31,1.31.31.67-.74,1.66-1-.67.26-.04-1.27-.99-.86.14-.36.5.02.84-.23-.44-.92.49-1.91.38-3.02-.17-.03-.45.14-.7-.11l.91-.52c-.07-.22-1-.25-.37-.61-.15.05-.38.12-.43-.03.97-2.09-.53-4.34,1.1-6.47-.34.29-.38.09-.39-.13-.08.14-.43,0-.67.02l.67-.89c-.66-.17-.04-.96-.67-1.06l.11.28c-.74-.38-1.66.52-2.62.46.85.43-1.27,1.09-.06,1.79-.2.15-.31-.13-.53-.06.41.18.49.39.3.78l-.1-.05c.08,1.09-.34,1.55-.65,2.76l.48-.07c-.07.26-.22.31-.35.43.71.33.07-.74.85-.43-.97.32-.09,1.86-1.19,2.04-.02.4.55-.09.53.31l-.3.09.38.12c-.08.26-.46.37-.71.37.03-.06-.06-.18-.08-.25-.37.32.07.97-.05,1.08l.2-.37c.21,1.11-.27,2.41.23,3.52l.23-.06c.33.85-.3.62-.2,1.53l-.05-.04c.2.2.29.45.24.69-.24-.25-.55.36-.81.04.34.92.3.47,1.05,1.15l-.38.09c.31.24.48.28.52.74-.27-.4-.6.21-.96-.26-.93.8.62,1.49-.62,1.73.95.58.69-.71.87-.44.36-.15.71.47.56.74-.07.29-1.37.29-1.48,1.03.02-.07-.06-.09-.04-.16-.31.23.25.6-.23.86.58.3-.11.43.65.63l-.06-.71c.14.42.98.96.41,1.5-.15-.08-.31-.31-.4-.46-.27.14.08.38-.19.53-.77-.21,0-.85-.52-1.37-.36.13.42.87-.39.51,1.01.5-.28.68.44,1.34l-.46-.13c.06.09.24.3.2.44l-.54-.39c.42.51-.62.65-.42,1.09.16-.79.6-.05,1.01-.3.4,1.13-1.34.28-1.38,1.4-.03-.16.41-.48.57-.2-.15.18-.39.41-.66.47-.1.73.5.02.7.39-.63.09.13.41.22.78l-.47-.13c-.52.73.92.49.34,1.12l-.55-.5.05.43-.5-.23c.27.52.13.63-.14.98.35,0,.82.31.72.68-.35.16-.39-.28-.49.25-.25-.21-.57-.45-.07-.53-.14-.07-.25-.2-.39-.27-.4.16-.28.62-.34.81.04-.06.09-.14.17-.16l.39.94c-.21.05-.32-.08-.42-.22,0,.16.17.34.13.56-.35-.19-.74-.31-.8-.67l.17.82c-.18-.01-.56.19-.67.05-.35.29.36,1.18-.11,1.56.06.05.11.13.11.26-.28.43-.88.64-.63,1.39h-.78c-.04.5.99-.03.92.78-.02.59-.63-.07-.88.02.21.39.64,1.13-.09,1.33-.05-.21.1-.28.13-.44ZM53.47,69.1c-.02-.15-.16-.5.12-.41.39.41.12.35-.12.41ZM53.05,67.98c.14.11.04.21-.17.31-.02-.11.02-.22.17-.31ZM59.36,43.36l.02.02c-.27.16-.17.11-.02-.02ZM59.76,42.94c-.04-.07-.11-.1-.18-.1.1.08.06.19-.02.31.13.01.24-.02.2-.21ZM65.2,49.56l-.14.08c-.09-.26.02-.17.14-.08Z"/>
        <path class="cls-2" d="M53.55,68.98c-.08.02-.17.02-.27.01.08.05.17.06.27-.01Z"/>
        <path class="cls-2" d="M57.26,60.72s0,0,.01-.01c-.02-.02-.05-.04-.07-.05l.06.06Z"/>
        <path class="cls-2" d="M60.25,52.2c-.11.07-.21.09-.31.1.11.05.22.05.31-.1Z"/>
        <path class="cls-2" d="M60.03,40.04v.36c.04-.16.15-.18.25-.23-.11-.03-.28-.03-.25-.13Z"/>
        <path class="cls-2" d="M63.85,38.3c-.04-.07.03-.1-.01-.17l-.22-.06c-.06.21.06.41.23.23Z"/>
        <path class="cls-2" d="M61.63,40.32c.39.12.34-.13.35-.38,0,.01,0,.03-.01.04-.51-.27-.42.04-.33.34Z"/>
        <path class="cls-2" d="M61.99,39.88c0-.08.02-.15.07-.21-.2-.11-.08.07-.07.21Z"/>
        <path class="cls-2" d="M59.76,42.22c.14-.07-.46-.26-.28-.26-.43-.31.3.93.28.26Z"/>
        <polygon class="cls-2" points="62.95 40.61 62.45 40.52 62.78 40.79 62.95 40.61"/>
        <path class="cls-2" d="M61.92,42.25l.27-.31c-.08-.03-.11-.09-.12-.16-.1.21-.29.42-.15.46Z"/>
        <path class="cls-2" d="M62.07,41.79c.05-.11.09-.22.04-.32-.02.06-.06.2-.04.32Z"/>
        <polygon class="cls-2" points="62.91 41.16 62.77 41.23 62.64 41.47 62.91 41.16"/>
        <path class="cls-2" d="M60.26,46.04l-.03.44c.14.11.28.04.28-.13-.07-.14-.07-.31-.25-.31Z"/>
        <path class="cls-2" d="M62.02,45.4c-.14.07-.25.03-.42.03l.57.25-.15-.28Z"/>
        <path class="cls-2" d="M61.67,46.59c.14.11.21.76.39.25-.14-.11-.11-.55-.39-.25Z"/>
        <polygon class="cls-2" points="58.43 52.11 58.47 52.01 57.53 51.62 58.43 52.11"/>
        <path class="cls-2" d="M58.47,58.19c.42-.36-.53-.35-.08-.65-.18-.2-.37.24-.52.05.12.37-.07.46.6.6Z"/>
        <path class="cls-2" d="M57.87,57.59c-.02-.06-.04-.13-.08-.2.02.1.05.16.08.2Z"/>
        <polygon class="cls-2" points="67.17 29.73 67.39 29.41 67.05 29.62 67.17 29.73"/>
        <path class="cls-2" d="M66.42,29.11l.65-.07-.59-.2c.03.07.08.21-.06.27Z"/>
        <path class="cls-2" d="M51.92,69.03l.11.11c.16.06.22.01.32-.09l-.43-.02Z"/>
        <polygon class="cls-2" points="54.48 65.91 54.43 65.96 55.01 66.13 54.48 65.91"/>
        <path class="cls-2" d="M55.36,62.55c-.08.11-.03.32-.11.43.04-.31.79-.16.11-.43Z"/>
      </g>
      <g>
        <path class="cls-1" d="M52.34,24.28c.19-.14-.16-.38-.19-.46-.22.35.27.53.19.46Z"/>
        <polygon class="cls-1" points="50.23 27.71 50.16 27.54 50.04 28.24 50.23 27.71"/>
        <path class="cls-1" d="M47.62,30.29c.75.26.86-1.02,1.5-1.3l.19.04-.2-.62c-.5.62-.96,1.62-1.5,1.87Z"/>
        <path class="cls-1" d="M45.15,30.57c.28.11-.13.47.38-.26-.05,0-.07,0-.11,0-.05.06-.13.13-.28.25Z"/>
        <path class="cls-1" d="M45.42,30.31c.26-.29-.34.01,0,0h0Z"/>
        <path class="cls-1" d="M44.27,31.68l.19-.53c-.19-.04-.54.25-.5.05-.27.46-.08.5.32.49Z"/>
        <path class="cls-1" d="M44.29,32.39l.11-.26c-.08-.02-.15.02-.11.26Z"/>
        <path class="cls-1" d="M44.65,31.58l-.24.55c.13.03.3.19.13-.24.12.18.05-.04.11-.31Z"/>
        <path class="cls-1" d="M44.95,31.44c.31-.09.64-.28.45.25.62-.75.17-1.01-.45-.25Z"/>
        <path class="cls-1" d="M48.01,30.94l.42-.12.07-.4c-.03.2-.66.38-.48.52Z"/>
        <path class="cls-1" d="M41.76,33.65c.08.13.41.17.57.28l.14-.39c-.21.06-.54.25-.71.11Z"/>
        <path class="cls-1" d="M42.33,33.93l-.22.58c.38-.33.36-.48.22-.58Z"/>
        <polygon class="cls-1" points="44.79 33.02 45.06 31.98 44.67 33.15 44.79 33.02"/>
        <polygon class="cls-1" points="40.22 35.15 40.2 34.67 40.17 35.45 40.22 35.15"/>
        <path class="cls-1" d="M39.26,36.19c-.04-.37-.58-.12-.53-.43-.24.31-.3.72-.35,1.09.14-.31.4-.53.87-.66Z"/>
        <path class="cls-1" d="M38.26,37.44c.06-.16.09-.36.12-.58-.07.17-.12.35-.12.58Z"/>
        <path class="cls-1" d="M41.38,35.13c-.1-.03-.32-.15-.62,0l.46.15s.1-.1.16-.15Z"/>
        <path class="cls-1" d="M41.24,35.29h-.02c-.18.16-.3.27-.36.31.05-.04.16-.13.37-.31Z"/>
        <path class="cls-1" d="M41.42,35.09l-.04.04s.06.02.04-.04Z"/>
        <path class="cls-1" d="M43.47,33.78c-.07.4-.37,1.07.35.86-.04-.37-.45-.25-.35-.86Z"/>
        <path class="cls-1" d="M41.99,35.28l.49-.35c-.09-.07-.28-.11-.25-.31l-.25.66Z"/>
        <polygon class="cls-1" points="41.88 35.58 41.99 35.28 41.81 35.41 41.88 35.58"/>
        <path class="cls-1" d="M39.26,37.01c-.05.31-.24.52-.45.77.3-.18.58-.4.82-.63-.06-.13-.13-.4-.38-.13Z"/>
        <path class="cls-1" d="M40.25,36.2l-.02.06c.05,0,.08-.01.02-.06Z"/>
        <polygon class="cls-1" points="36.59 39.98 36.68 40 36.64 39.94 36.59 39.98"/>
        <path class="cls-1" d="M39.74,37.16c.24-.12.28-.3.29-.5-.11.17-.23.33-.38.48.03.06.05.09.1.02Z"/>
        <path class="cls-1" d="M37.78,38.2c.16-.03.32-.08.48-.15-.19,0-.53.03-.48.15Z"/>
        <path class="cls-1" d="M40.08,36.23s0-.03.01-.04c-.12,0-.09.02-.01.04Z"/>
        <path class="cls-1" d="M40.08,36.23c-.05.14-.05.28-.06.42.09-.13.16-.27.2-.4-.04,0-.1,0-.14-.02Z"/>
        <path class="cls-1" d="M37.85,42.6c-.25-.31-.03-1.05.69-1.16.2-.61-.99-1.28-1.85-1.44.11.14.22.25-.03.83.3,0,1.29-.56,1.18.04-.41.7-.55.35-.97.47.58.12-.2,1.21.43,1.61l.31-.66c.09.07.04.37.25.31Z"/>
        <path class="cls-1" d="M37.51,39.24l.14-.21c-.25.15-.5.17-.97.21-.15.42-.11.58-.03.7l.89-.8-.02.1Z"/>
        <path class="cls-1" d="M38.42,38.26c.17.44-.12.98.47,1.06.48-.52.1-.61.27-1.04-.74.89.07-.4-.7,0,.11-.21.24-.37.36-.52-.18.11-.37.2-.56.28.01,0,.02,0,.04,0h0s0,0,0,0c.07,0,.11.01.05.03,0,0,0,.02-.01.02.04.05.06.1.08.15-.3.17-.12-.04-.08-.15-.01-.02-.02-.04-.03-.06h0s-.65.98-.65.98c.21-.13.42-.35.77-.77Z"/>
        <path class="cls-1" d="M44.04,35.73c-.05,0-.07-.02-.1-.05-.02.09-.01.14.1.05Z"/>
        <path class="cls-1" d="M43.52,35.88c.02-.1-.05-.27.17-.43.26-.07.14.15.25.24.04-.2.19-.62-.32-.41l-.02.1c-.43.22-1.23.26-1.22.16.37.18.65.29,1.14.35Z"/>
        <path class="cls-1" d="M41.02,37.17l-.53.83.61-.08-.18-.14c.45-.32.17-.43.1-.6Z"/>
        <polygon class="cls-1" points="36.36 39.9 36.13 39.49 36.19 40.34 36.36 39.9"/>
        <polygon class="cls-1" points="35.51 40.82 35.27 40.51 35.2 40.91 35.51 40.82"/>
        <path class="cls-1" d="M11.91,77.92l.1-.29c-.06.12-.09.21-.1.29Z"/>
        <path class="cls-1" d="M10.55,79.43l.11.17c-.02-.14-.05-.22-.11-.17Z"/>
        <path class="cls-1" d="M13.96,62.71c-.55.06-1.29.02-.93.28l.41.2c.14-.27.32-.4.52-.48Z"/>
        <path class="cls-1" d="M3.34,81.02c.07-.05.15-.1.23-.15-.16-.03-.3-.08-.4-.13.05.09.1.19.18.28Z"/>
        <path class="cls-1" d="M5.7,80.51c-.17.12-.34.26-.51.41.17-.12.34-.26.51-.41Z"/>
        <path class="cls-1" d="M18.86,69.22l-.12-.54c-.33.39-.02.36.12.54Z"/>
        <path class="cls-1" d="M26.57,49.92c-.37.13-.62.28-.81.44.48-.12.99-.1.81-.44Z"/>
        <path class="cls-1" d="M14.85,81.55c.05-.18.04-.3-.04-.35-.06.18-.06.31.04.35Z"/>
        <path class="cls-1" d="M25.03,51.08c.07-.01.13-.04.21-.06.13-.23.28-.46.52-.66-.35.09-.69.26-.73.72Z"/>
        <path class="cls-1" d="M45.22,38.68s.06-.03.1-.04c-.04-.04-.07-.02-.1.04Z"/>
        <path class="cls-1" d="M56.09,32.4c-.05.11-.17.25-.28.39.08-.05.17-.16.28-.39Z"/>
        <path class="cls-1" d="M31.82,44.22c.17-.21,0-.06,0,0h0Z"/>
        <path class="cls-1" d="M33.94,44.53c0,.07,0,.15.07.22-.06-.09-.08-.16-.07-.22Z"/>
        <path class="cls-1" d="M25.07,54.85l-.02.02c.12,0,.09,0,.02-.02Z"/>
        <path class="cls-1" d="M32.24,44.08c-.11.03-.22.08-.33.15.06-.01.17-.06.33-.15Z"/>
        <path class="cls-1" d="M32.06,43.97c.08-.05.14-.09.19-.13-.03-.07-.08-.09-.19.13Z"/>
        <path class="cls-1" d="M31.58,44.49c.1-.11.22-.2.34-.27-.06.02-.09.01-.09,0-.05.06-.12.14-.24.28Z"/>
        <path class="cls-1" d="M32.2,55.98s.04-.01.07-.02c.04-.32-.02-.21-.07.02Z"/>
        <path class="cls-1" d="M12.81,70.85s0-.02,0-.04l-.04.02.03.02Z"/>
        <path class="cls-1" d="M12.47,71.78c-.16-.65.03-.79.31-.94l-1.16-.56.85,1.5Z"/>
        <path class="cls-1" d="M15.02,74.16l-.73.25c.04-1.03.59-1.32-.23-1.21.96.96-1.59,2.04-.63,3l-.5.14c.09-.09.05-.15.14-.24-1.05.22.32,1.12-.55,1.82-.33.22-.65.29-.6-.01l-.31.86c-.18.17-.32-.03-.14-.2l-.78,1.05-.02-.03c.04.28,0,.81-.02,1.06-.36.12,0-.22-.18-.27l-.23.76c-.46-.01-.32-.69.05-1.03-1.41-.45-.36.93-1.17.66.02-.11.03-.21.03-.3-.3-.25-.39-.33-.46-.38-.07-.05-.12-.07-.22-.32.04.14.18.44.38.69.19.26.43.47.41.76-.12-.02-.19,0-.23.44-.17-.54-.22-.3-.36-.13l-.1-.84c-.06.33-.03.77-.12,1.27-.13.05-.18-.23-.17-.61,0-.22.02-.47.04-.71-.05-.04-.09.27-.1.61-.02.34,0,.71-.22.93-.22-.27-.44.26-1.28.91-.07-.42.4-.69.47-1.02-.21.29-.45.58-.71.86-.05-.04.14-.3.23-.44-.4.28-.69,1.13-1.28,1.25-.48.57-.4,0-.23-.55.16-.57.41-1.07-.26-.8.27-.33.63-.43,1.01-.77-.46.08-.58.03-.75.04-.16,0-.37.04-.8,0,.27-.28.55-.53.81-.75-.84.63-1.51.57-1.85.1-.4.27-.68.51-.85.67,0-.3.01-.62.04-.97.18-.16.39-.08.63.02-.03-.05-.06-.11-.09-.15.45-.41.8-.25,1.17-.14-.22.14-.45.28-.67.42.41.1.94.07,1.47-.14-.08,0-.14-.06-.14-.14.12,0,.24,0,.33-.05.1-.05-.06-.05-.23-.1.34-.12.67-.23.99-.32l-.35.04c.31-.26.6-.48.86-.64-.29-.22-.61-.56-.76-1.07-.16-.48-.06-1.26.26-1.97.21.62.66.55,1.15.93-.76-.06-.52,1.26-.79,1.46.19-.18.43,0,.49.09l-.04-.21c-.02-.07-.02-.15.01-.29l.14-.75c.4.31.48-.03.86-.21-.98-.35.06-1.25.17-1.9.29.17.48.49,0,1.01,1.06-.18-.35-1.51.63-1.75-.1.14-.2.19-.1.35,0-.51.81-1.15.9-.79l-.1.14c.79-.85,2.19-2.76,1.64-3.43.09.06.7.77.79.93-.3-1.13-.6-2.28-.87-3.43.44.61,2.22,1.2,1.92,2.19.26-.14.57-.32.75-.93-.2.08-1.11-.32-.99-.56,1.08-.01.65-.1,1.74-.3-.3.11-.97-.87-.64-1.19.08.17.88.71.86.92l-.11-1.58c-.03.34.68.67,1.09.69-.24-.06.65-.7.77-1l-.51.18c.96-.82-.34-1.98.55-2.87.07.27.8,1.24,1.33.87-.23-.6-1.16-2.83-.71-3.95l.39.07.32-.88c.26.99.56,3.32.54,4.39.51-.17.37.17.83-.37.39.03.08.6-.05.76l1.26-1.06c-.54-.41.37-1.37-.08-1.71l-.72,1.77c-.54-.41-.68-2.06.21-2.83.4-.03.71.99.89,1.12-.06-.27.45-1.1.64-1.07l-.08.61c.63-.29.09-1.38,1.1-1.5.22-.16,1.18.03.93-.28-.85-.22-2.62-1.81-2.82-2.43.1-.03,1.52-.51,2.01-.46.74.11.55,1.48,1.19,1.57-.12-.14-.11-.47-.09-.6.31-.09.32.48.7-.01-.41-.55.92-.85-.21-.61.29-.57.55-.36,1.03-.88-.47-.15-.61-1.51-.32-2.08.1.15.35.21.47.24.92-.83,1.61-1.08,2.43-1.89.19.04.73-.21.77.17.03-.2-.02-.47.22-.74.9-.07-.5.62.37.76-.25-.31.27-1.04.46-1.57-.54-.32-.92.74-1.1,1.28-.6-.6-.59-1.85,0-2.98.53-.82.68.09.71-.11,1.38-1.16.05-2.13,1.54-2.75.8-.04.77.74,1.14.92-.41.7-1.09.6-1.45.99l.64-.28c-.05.3-.33.77-.64.86.69,0,2.23-2.08,3.53-2.74.05-.3.22-.73-.08-.75l-.26.36c-.59-.02.17-1.01-.37-.76.2-.63.34-1.44,1.1-1.85l.54.33c-.14-.11-.64.12-.68.42.05-.44,1.49-.31,1.19-1.15l-.71.11c.2-.64.27-1.61.93-2-.66-.19-.07.17-.94.03.94.31-1.36,1.3-.19,1.45-.96-.21-.91.41-1.9.4.16.13.45.1-.06.46.02.06.03.16.03.22-.02,0-.02.01-.04.02h.04s0,.04.01-.01c.17-.04.33-.05.44,0,.11.55-.6,1.23-.67,1.63-.33.19-.05-.27-.35-.28l-.1.6c-.35-.28-1.22.16-.79-.64l-.57.53c-.5.14-1.02.52-1.16.92-.33.19-.31,1.01-.33.53l-.67,1.06-.09-.07c-.89.81-1.24,2.27-2.79,2.67-.21.37-.41.76-.98,1.15l-.37-.18c-.27.47-1.39.83-1.26,1.28-1.14-.34-1.95,1.64-2.73,2.17l.34.38c-.47.43-.79.97-1.19,1.68l.36.28c-.21.74-1.44,1.03-2.15,1.84-.07-.17.15-.34.35-.41-1.62.23-1.33,2.48-2.66,2.83-.08.32-.26.44-.48.52.02-.02.03-.04.03-.07-.02.02-.05.05-.08.08-.14.04-.3.08-.45.14.16-.02.31-.04.41-.09-.14.17-.33.46-.47.78l-.45-.22s-.03.04-.04.07c-.35.12,0,.35.38.46-.05.18-.09.36-.08.52-.76-.32-.39.83-1.25.55.15.43-.88,1.47-.35,2.16-.09-.06-.2-.02-.08-.16-.32.22-.64.43-.67.84l-.57-.28.1,1.15c-.6.13-.9.15-.95-.52-.21,1.37-.41.92-.49,2.15l-.28-.29c-.22.29-.17,1.07-.55,1.03-1.1.17-2.54,3.04-4.32,4.37,1.19.32-.99.52-.29,1.1-.3-.05-.59.12-.6-.31-.47,1.2-1.73,1.97-1.41,3.02-.38.14-.28-.35-.52-.23,0,.13.02.49-.24.64-.26.15-.15-.23-.15-.49-.75,1.64.25,1.63,1.12,1.59-.72.68-.76,1.05-.29,1.26-.37.29-.79.79-.68.05-.1.22-.39.92-.47,1.5-.09.58.01,1.05.31.89-.16.22,0,.59.09.64.08.46.18.71.29.95.12.23.26.45.62.77-.04-.09-.08-.17-.11-.27.77-.3.65.43,1.39.69l-.06.06c.63.57.88.53,1.08.51.21-.03.39,0,1.12.29l.08-.47c.26-.51.54-.41.91-.29.36.12.85.28,1.3-.15l.02-.02h-.02s-.26-.16-.26-.16c.09-.12.19-.16.28-.15.39.01,1.1,1.01,1.6.81.13.02-.17.29-.34.48.79-.13.83-.39.77-.66-.06-.29-.16-.64.3-1.13.29.19,0,1.18.76.58.53-.03,1.59-3.32,2.48-3.37-.32-.03-.64-.06-.5-.52.37-.56,1.92-.7,1.7-1.69.11-.02.18,0,.23.04.17-.52.82-1.47.68-1.99,1.56.74,1.46-2.9,2.6-1.89l.96-1.23.09.13c.73-.69.68-1.19.64-1.7.23-.11.23.11.27.18,1.19-.9,1.23-1.05,1.45-2.47l.46.23c0-.44,1.96-1.08,2.46-2.54.03.05.09.13.07.26.61-1.59,3.55-2.01,2.56-3.64l.35-1.09c-1,.95-.46-.66-1.06-.43.27-.48,1.32-.7.96-.14l-.14.02c.56.8,1.36-1.07,1.82-.63,1.72-2.08,3.82-3.74,5.48-5.64l-.75-.25.6-.64c.28-.07.64.13.21.59.53.02.42-1.03.31-1.14,1.02-.75.34.92.6.64l.29-.43-.14.03c.04-.51-.18-.74.34-1.3.42-.27.5.1.65-.02.04.03.1,0,.2-.21l.76-.81-.73-.03c.1-.56.7-.78-.13-.81,1.26.08,2.95-2.93,3.48-3.08.12-.8.57-1.31,1.15-1.93-.23.08-.8-.24-.28-.74.86,1.06,1.3-.64,2.42-.48-.83,0,1.21-1.68-.02-1.64.47-.4.41.29.94.14.53-1.44,2.3-2.22,3.3-3.71-.12-.13-.51-.08-.47-.54l1.28-.16c.16-.33-.57-.9.31-1-.17-.02-.43-.06-.32-.28,2.89-2.14,4.01-5.94,7.51-7.66-.57.15-.39-.11-.17-.41-.21.13-.33-.28-.55-.4l1.45-.73c-.34-.63.98-1.26.59-1.78l-.21.44c-.18-.96-1.84-.38-2.52-1.05.21,1.08-2.14.63-1.93,2.28-.31.07-.1-.36-.36-.4.13.49-.03.81-.58,1.2l-.03-.12c-1.09,1.47-1.9,1.82-3.41,3.23l.46.18c-.33.3-.5.28-.73.36.23.85.82-.93,1.14-.07-1.12-.16-2,2.39-3.09,1.99-.44.52.55.2.11.72l-.34-.05.18.38c-.33.3-.76.24-.97.09.09-.06.14-.28.2-.38-.64.22-.95,1.33-1.16,1.41l.56-.38c-.97,1.6-2.72,3.09-3.41,4.85l.26.04c-.56,1.31-.89.68-1.71,1.95v-.08c-.03.37-.2.75-.48,1.05.04-.46-.85.22-.75-.35-.61,1.42-.2.79-.2,2.07l-.43-.07c.04.47.16.61-.25,1.24.15-.68-.74,0-.62-.8-1.63.68-.88,2.32-2.25,2.1.32,1.21,1.31-.67,1.22-.22.47-.04.2.95-.2,1.26-.34.37-1.55-.2-2.36.78.08-.09.03-.15.12-.24-.51.19-.33.94-1.03,1.1.26.65-.51.55.03,1.14l.61-1c-.27.64.04,1.71-1,2.24-.07-.17-.02-.55.04-.79-.38.09-.28.56-.67.66-.54-.58.78-1.19.78-2.11-.47.04-.43,1.39-.85.56.5,1.09-.91.86-.83,2.05l-.32-.35c-.03.15-.04.51-.21.69l-.18-.74c-.05.87-1.21.72-1.43,1.41.89-1.07.64.13,1.28-.09-.63,1.72-1.59-.05-2.66,1.55.12-.24.85-.56.75-.11-.31.21-.76.46-1.1.47-.75,1.03.5.17.37.77-.72-.05-.23.63-.45,1.17l-.37-.31c-1.18.9.51.95-.62,1.69l-.15-.85-.31.63-.33-.46c-.17.83-.4.93-.99,1.38.37.09.6.64.2,1.14-.5.15-.19-.48-.73.25-.09-.35-.24-.77.36-.78-.09-.13-.1-.35-.19-.48-.56.14-.83.85-1.04,1.1.1-.08.22-.18.32-.2l-.35,1.44c-.27.04-.28-.18-.28-.4-.14.24-.09.52-.31.85-.23-.33-.55-.58-.33-1.12l-.49,1.24c-.18-.05-.78.18-.78-.03-.63.38-.54,1.79-1.38,2.29.03.09.02.21-.07.39-.64.6-1.5.87-1.77,2l-.91-.02c-.41.71,1.19-.02.51,1.17-.45.86-.69-.13-1.05,0-.04.59-.04,1.68-1.04,1.97.09-.31.32-.41.45-.65ZM9.25,81.24c.01-.17-.09-.53.12-.34.28.52.04.39-.12.34ZM5.08,79.73c.14.09-.02.22-.34.42.01-.12.11-.27.34-.42ZM30.04,46.53v.03c-.44.17-.28.11,0-.03ZM30.82,46.05c.02-.11-.03-.15-.11-.18.04.13-.09.28-.28.41.13.05.28.03.39-.24ZM36.51,55.93l-.21.05c.15-.39.17-.22.21-.05Z"/>
        <path class="cls-1" d="M5.42,80.58c-.12.06-.25.11-.38.16.09,0,.22-.04.38-.16Z"/>
        <path class="cls-1" d="M18.89,69.32l.02-.02s-.03-.06-.05-.08l.02.1Z"/>
        <path class="cls-1" d="M23.91,58.72c-.18.08-.31.09-.43.08.08.09.21.1.43-.08Z"/>
        <path class="cls-1" d="M33.61,42.14l-.32.49c.18-.21.32-.21.48-.25-.09-.07-.28-.11-.16-.24Z"/>
        <path class="cls-1" d="M39.24,40.76c.02-.1.12-.13.14-.23l-.17-.14c-.24.26-.29.57.04.37Z"/>
        <path class="cls-1" d="M35.12,42.9c.32.26.48-.09.71-.43-.02.02-.03.04-.05.05-.32-.49-.49-.05-.66.38Z"/>
        <path class="cls-1" d="M35.88,42.39c.07-.1.16-.2.26-.27-.13-.19-.14.07-.26.27Z"/>
        <path class="cls-1" d="M31.44,45.06c.21-.06-.28-.45-.09-.41-.21-.52-.46,1.34.09.41Z"/>
        <polygon class="cls-1" points="36.29 43.62 35.83 43.37 35.96 43.81 36.29 43.62"/>
        <path class="cls-1" d="M33.78,45.59l.55-.35c-.07-.05-.04-.15,0-.24-.29.27-.67.5-.55.6Z"/>
        <path class="cls-1" d="M34.33,45c.15-.14.28-.28.31-.42-.08.08-.23.26-.31.42Z"/>
        <polygon class="cls-1" points="35.77 44.34 35.56 44.4 35.22 44.7 35.77 44.34"/>
        <path class="cls-1" d="M28.82,50.37l-.4.59c.07.17.28.11.42-.12.03-.2.17-.43-.02-.48Z"/>
        <path class="cls-1" d="M31.29,49.86c-.21.06-.3-.01-.49-.05l.42.46.06-.4Z"/>
        <path class="cls-1" d="M29.94,51.4c.07.17-.37,1.07.23.41-.07-.17.33-.77-.23-.41Z"/>
        <polygon class="cls-1" points="21.94 58.29 22.06 58.16 21.32 57.46 21.94 58.29"/>
        <path class="cls-1" d="M17.37,66.67c.73-.44-.33-.57.39-.91-.05-.3-.59.28-.61,0-.15.54-.43.63.22.91Z"/>
        <path class="cls-1" d="M17.15,65.76c.02-.09.04-.18.06-.29-.05.15-.06.23-.06.29Z"/>
        <polygon class="cls-1" points="57.76 31.23 58.26 30.96 57.78 31.01 57.76 31.23"/>
        <path class="cls-1" d="M57.82,29.96l.58.31-.25-.62c-.05.11-.16.33-.33.31Z"/>
        <path class="cls-1" d="M8.5,80.11l.03.2c.05.2.07.2.11.19-.06-.12-.1-.25-.14-.39Z"/>
        <polygon class="cls-1" points="11.88 76.99 11.78 77.08 12.38 77.29 11.88 76.99"/>
        <path class="cls-1" d="M15.29,71.93c-.18.17-.27.48-.45.65.27-.48,1.05-.22.45-.65Z"/>
      </g>
      <g>
        <path class="cls-2" d="M49.32,15.77c.11.11.29-.27.35-.32-.26-.06-.41.41-.35.32Z"/>
        <polygon class="cls-2" points="46.71 15.2 46.84 15.08 46.3 15.24 46.71 15.2"/>
        <path class="cls-2" d="M44.74,13.93c-.2.72.78.36.99.8l-.03.17.47-.38c-.47-.2-1.23-.24-1.43-.6Z"/>
        <path class="cls-2" d="M44.51,11.95c-.08.28-.36.06.2.23,0-.04,0-.06,0-.09-.05-.02-.1-.06-.19-.14Z"/>
        <path class="cls-2" d="M44.71,12.09c.22.12-.01-.28,0,0h0Z"/>
        <path class="cls-2" d="M43.65,11.62l.41-.04c.03-.18-.2-.36-.04-.41-.36-.06-.39.11-.37.44Z"/>
        <path class="cls-2" d="M43.11,11.89h.2c.01-.07-.01-.12-.2,0Z"/>
        <path class="cls-2" d="M43.73,11.9h-.42c-.02.12-.14.32.18.02-.14.16.03.03.24-.02Z"/>
        <path class="cls-2" d="M43.85,12.1c.07.23.22.44-.19.47.58.25.77-.22.19-.47Z"/>
        <path class="cls-2" d="M44.24,14.49l.09.31.31-.09c-.15.04-.29-.42-.4-.22Z"/>
        <path class="cls-2" d="M42.1,10.22c-.1.12-.12.4-.2.58l.3-.02c-.05-.15-.21-.36-.1-.56Z"/>
        <path class="cls-2" d="M41.9,10.8l-.45.03c.26.19.38.12.45-.03Z"/>
        <polygon class="cls-2" points="42.64 12.53 43.43 12.38 42.54 12.48 42.64 12.53"/>
        <polygon class="cls-2" points="40.92 9.48 41.28 9.29 40.69 9.55 40.92 9.48"/>
        <path class="cls-2" d="M40.09,9.06c.28-.17.07-.53.3-.6-.25-.08-.56.02-.84.12.24,0,.42.14.54.48Z"/>
        <path class="cls-2" d="M39.1,8.7c.12,0,.28-.06.45-.12-.13,0-.27.03-.45.12Z"/>
        <path class="cls-2" d="M40.97,10.45c.02-.09.1-.33-.02-.52l-.1.44s.08.05.12.08Z"/>
        <path class="cls-2" d="M40.84,10.39h0c-.13-.1-.21-.17-.25-.19.03.02.11.08.25.19Z"/>
        <path class="cls-2" d="M41,10.47l-.03-.02s-.01.06.03.02Z"/>
        <path class="cls-2" d="M42.04,11.7c-.31.09-.82.08-.64.61.28-.17.18-.47.64-.61Z"/>
        <path class="cls-2" d="M40.87,11.02l.28.28c.05-.1.08-.28.23-.32l-.51.04Z"/>
        <polygon class="cls-2" points="40.64 11.04 40.87 11.02 40.77 10.92 40.64 11.04"/>
        <path class="cls-2" d="M39.48,9.38c-.24.08-.4,0-.6-.08.15.18.32.34.51.45.09-.1.3-.26.09-.37Z"/>
        <path class="cls-2" d="M40.13,9.89h-.04s.01.06.04,0Z"/>
        <path class="cls-2" d="M37.11,8.28s0,.06,0,.08l.04-.06-.03-.02Z"/>
        <path class="cls-2" d="M39.38,9.83c.1.15.24.11.39.05-.13-.03-.26-.07-.38-.14-.04.05-.06.08,0,.09Z"/>
        <path class="cls-2" d="M38.51,8.58c.03.12.08.24.13.35,0-.16-.05-.43-.13-.35Z"/>
        <path class="cls-2" d="M40.09,9.77s.02,0,.03,0c0-.11-.02-.06-.03,0Z"/>
        <path class="cls-2" d="M40.09,9.77c-.11,0-.22.07-.32.11.1.02.21.03.31.02,0-.04,0-.09.01-.13Z"/>
        <path class="cls-2" d="M35.25,10.39c.21-.33.77-.44.89.11.46-.08.9-1.33.97-2.13-.09.15-.17.28-.62.3.01.25.49.85.04,1.01-.54-.07-.29-.32-.4-.63-.06.53-.9.32-1.15,1.01h.5c-.05.09-.27.17-.22.32Z"/>
        <path class="cls-2" d="M37.72,8.76l.16.03c-.12-.15-.16-.35-.21-.74-.32.04-.44.14-.52.25l.65.43-.08.03Z"/>
        <path class="cls-2" d="M38.49,9.15c-.32.31-.74.28-.77.8.41.21.46-.15.79-.17-.69-.28.3-.1-.04-.58.16.01.29.06.4.1-.09-.11-.17-.23-.23-.36v.03s0,0,0,0h0c0,.07,0,.1-.02.06,0,0-.02,0-.02,0-.03.05-.07.09-.11.12-.14-.19.03-.11.11-.12l.04-.05h0s-.77-.17-.77-.17c.11.13.29.21.61.35Z"/>
        <path class="cls-2" d="M40.58,12.9s.02-.07.03-.1c-.07.02-.1.04-.03.1Z"/>
        <path class="cls-2" d="M40.45,12.52c.08-.02.2-.15.33-.02.06.19-.11.18-.18.3.15-.04.48-.07.3-.42l-.08.02c-.18-.28-.22-.94-.15-.96-.13.38-.21.65-.23,1.08Z"/>
        <path class="cls-2" d="M39.42,10.91l-.64-.13.08.48.1-.2c.26.25.33-.02.46-.15Z"/>
        <polygon class="cls-2" points="37.15 8.06 37.44 7.71 36.82 8.09 37.15 8.06"/>
        <polygon class="cls-2" points="36.41 7.71 36.63 7.38 36.33 7.49 36.41 7.71"/>
        <path class="cls-2" d="M7.82,10.56l.2-.03c-.09,0-.15,0-.2.03Z"/>
        <path class="cls-2" d="M6.77,9.99l-.12.16c.1-.07.16-.13.12-.16Z"/>
        <path class="cls-2" d="M17.43.73c-.22-.41-.45-1.02-.48-.58l.02.44c.21-.05.35.02.46.14Z"/>
        <path class="cls-2" d="M4.11,4.88s.09.05.14.07c-.03-.15-.05-.3-.06-.44-.02.11-.05.24-.07.37Z"/>
        <path class="cls-2" d="M5.04,6.41c-.11-.05-.22-.08-.34-.12.1.05.21.08.34.12Z"/>
        <path class="cls-2" d="M14.16,12.44l.3-.38c-.3-.07-.22.17-.3.38Z"/>
        <path class="cls-2" d="M28.8,4.21c-.15-.25-.3-.39-.44-.47.17.34.23.77.44.47Z"/>
        <path class="cls-2" d="M5.31,14.45c.14-.02.22-.07.26-.16-.14.01-.24.05-.26.16Z"/>
        <path class="cls-2" d="M27.72,3.5c.02.06.05.09.08.14.19,0,.37,0,.56.1-.12-.25-.31-.44-.64-.24Z"/>
        <path class="cls-2" d="M39,14.9s.04.03.06.05c0-.06-.02-.06-.06-.05Z"/>
        <path class="cls-2" d="M46.31,19.57c-.07.02-.19.01-.3.01.05.03.14.04.3-.01Z"/>
        <path class="cls-2" d="M33.59,6.03c.17.05.05-.03,0,0h0Z"/>
        <path class="cls-2" d="M33.56,7.93c-.05.03-.11.07-.16.16.06-.09.11-.14.16-.16Z"/>
        <path class="cls-2" d="M25.17,5.42s0,0-.01,0c.02.1.02.08.01,0Z"/>
        <path class="cls-2" d="M33.73,6.32c-.03-.08-.08-.15-.14-.21.02.05.06.11.14.21Z"/>
        <path class="cls-2" d="M33.79,6.12s.08.07.12.11c.05-.05.06-.1-.12-.11Z"/>
        <path class="cls-2" d="M33.36,5.94c.09.04.17.1.23.17-.02-.04-.02-.07,0-.08-.05-.02-.12-.04-.23-.09Z"/>
        <path class="cls-2" d="M25.27,15.71s.02.02.03.04c.18-.17.1-.15-.03-.04Z"/>
        <path class="cls-2" d="M12.64,4.79s.01-.02.02-.02l-.02-.02v.04Z"/>
        <path class="cls-2" d="M12.09,5.12c.23-.54.37-.48.54-.36l-.18-1.26c-.13.54-.25,1.08-.37,1.62Z"/>
        <path class="cls-2" d="M10.52,11.6l-.23-.5c.68-.43.9-.11.76-.75-.55,1.26-1.43-.43-2.01.8l-.12-.36c.06.04.11-.03.17.01-.19-.79-.74.74-1.26.28-.16-.19-.22-.44,0-.52-.2.03-.41.06-.6.07-.12-.09.02-.29.14-.19l-.73-.27.02-.03c-.2.13-.58.31-.76.37-.08-.27.16-.07.2-.25l-.54.06c.03-.39.5-.51.73-.31.16-.69.05-.66-.15-.6-.1.03-.22.07-.34.03-.09-.02-.29-.19-.24-.39.07-.03.21,0,.36.01.1-.84-.05-.6.24-.99-.09.09-.28.33-.43.61-.16.27-.28.57-.48.66,0-.12,0-.19-.3-.05.34-.35.19-.32.06-.37l.55-.41c-.22.07-.52.27-.86.39-.08-.14.43-.4.86-.61.02-.06-.19.04-.42.16-.23.12-.47.27-.65.19.02-.04.03-.07.03-.09.02-.16-.34-.18-.76-.44.29-.18.5.01.73-.06-.22-.03-.42-.08-.63-.14.02-.04.22-.02.32,0-.21-.14-.82-.04-.94-.32-.42-.09-.03-.2.34-.27.38-.07.71-.08.39-.37.23.04.38.21.65.31-.16-.24-.18-.36-.23-.47-.05-.12-.13-.25-.24-.6.21.03.4.07.58.12-.52-.22-.72-.82-.59-1.42-.24-.13-.48-.23-.61-.25.13-.22.31-.46.47-.68.13.05.17.28.2.57.01-.07.03-.14.03-.2.33.08.39.47.42.87-.13-.07-.26-.15-.39-.23.07.41.24.81.49,1.09-.02-.07,0-.15.02-.21.03.1.07.19.12.23.05.05,0-.09-.02-.26.15.19.29.38.45.56l-.11-.26c.29,0,.59.03.87.05.16-.87.27-2.06,1.15-2.64-.09.56.19.83.35,1.43-.43-.55-.59.47-1.04.51.24-.03.3.27.28.39.17-.29.36-.54.56-.83.13.49.27.31.54.46-.43-.92.42-.81.7-1.17.09.33.08.67-.34.68.59.64.34-1.28.92-.73-.1.02-.17-.02-.18.16.19-.34.82-.19.72.12l-.1.02c.68,0,2.06-.18,2.17-1.02,0,.11-.07,1.03-.1,1.2.38-.96.81-1.92,1.3-2.86-.13.73.24,2.48-.34,2.88.16.11.36.23.71-.01-.1-.11-.24-1.06-.08-1.13.4.83.29.45.77,1.17-.16-.16.11-1.3.39-1.24-.06.17-.07,1.13-.18,1.24.25-.35.51-.7.78-1.06-.19.19-.13.94-.02,1.28-.04-.23.57.09.76,0l-.25-.29c.73.27.98-1.47,1.76-1.27-.14.21-.47,1.36-.11,1.58.27-.53,1.3-2.57,2.12-2.86l.07.35.63-.23c-.54.74-1.85,2.35-2.46,2.96.23.31,0,.4.43.45.09.33-.32.41-.45.41l.93.38c.1-.68.89-.48.98-1.03-.41.14-.81.27-1.22.44.09-.67,1.02-1.75,1.72-1.44.12.3-.42,1.13-.45,1.35.14-.2.77-.27.79-.09l-.38.28c.32.34.86-.72,1.15.04.15.09.24.97.37.6-.04-.81.54-3.11.88-3.61.05.07.68.96.76,1.38.09.65-.83,1.25-.75,1.81.06-.17.28-.35.36-.4.12.2-.24.52.15.55.27-.63.72.31.35-.49.42-.06.34.26.76.38,0-.46.86-1.29,1.3-1.35-.08.16-.07.4-.07.51.72.33,1,.78,1.68,1.04,0,.18.25.49,0,.71.14-.08.32-.25.53-.18.17.71-.49-.11-.46.67.17-.36.74-.28,1.13-.38.15-.6-.64-.4-1.02-.29.31-.78,1.17-1.38,2.04-1.43.66.05.03.61.18.54,1,.6,1.51-.93,2.15.03.12.65-.44.97-.53,1.36-.54-.03-.55-.63-.87-.76l.27.41c-.22.1-.58.08-.68-.14.09.58,1.73.88,2.32,1.7.22-.09.55-.14.53-.39l-.28-.06c-.04-.5.74-.3.51-.64.47-.1,1.08-.34,1.45.13l-.19.59c.07-.16-.14-.49-.36-.39.33-.14.34,1.12.93.52l-.13-.55c.48-.09,1.21-.44,1.54-.05.09-.64-.13,0-.1-.78-.15.92-1.07-.61-1.08.43.07-.89-.37-.6-.47-1.42-.08.19-.03.42-.35.15-.04.04-.12.09-.16.12,0-.01-.01-.02-.02-.03v.03s-.02.02.01.01c.05.12.07.25.05.37-.39.32-.96.03-1.25.15-.17-.19.19-.16.17-.42l-.45.18c.17-.42-.25-.96.38-.94l-.45-.24c-.17-.35-.5-.62-.82-.56-.18-.19-.76.2-.42-.04-.28-.03-.56-.06-.85-.08l.04-.11c-.72-.36-1.78.03-2.33-1.04-.29,0-.6.04-.98-.24l.05-.4c-.37,0-.85-.73-1.13-.39-.02-1.1-1.53-.78-2.07-1.11l-.17.48c-.4-.15-.83-.12-1.38-.07l-.09.44c-.52.23-1.03-.59-1.74-.72.09-.16.25-.07.35.06-.6-1.21-1.91.33-2.51-.54-.22.12-.34.04-.46-.09.02,0,.03,0,.05-.01-.02,0-.05-.02-.08-.02-.07-.09-.14-.2-.22-.28.06.12.12.23.18.28-.15-.02-.38,0-.62.08l-.02-.49s-.03,0-.05,0c-.19-.21-.21.2-.15.57-.12.06-.24.14-.33.24-.07-.8-.61.19-.75-.67-.19.38-1.16.19-1.34,1.03,0-.11-.06-.17.06-.17-.24-.11-.48-.22-.71,0l-.07-.62-.57.8c-.31-.38-.45-.6-.11-1.06-.81.7-.66.27-1.32.99l.02-.4c-.24.02-.6.58-.76.25-.61-.74-2.66.13-4.23-.11.6,1.03-.81-.3-.59.59-.17-.23-.42-.32-.27-.62-.63.5-1.27.01-1.45.93-.2-.21-.02-.44-.16-.55-.03.08-.12.33-.27.21-.15-.11,0-.26.07-.42-.74.41-.4,1.2-.06,1.92-.47-.16-.78.08-.7.64-.27-.12-.7-.16-.27-.57-.28.12-1.97.98-1.39,1.4-.21-.02-.34.29-.33.38-.47.51-.57.55-.83,1.14l.19-.13c.64.42-.09.49-.15,1l-.08-.02c-.43.54-.33.71-.28.82.07.13.06.23-.11.87l.46-.14c.66-.04.35.35.31.8-.03.27.02.56.33.67l.1-.29c.29.06.12.37-.05.77-.19.4-.33.88-.18,1.06.01.12-.26,0-.44-.06.57,1.15.67-.28,1.49.13-.1.34-.82.46-.32.9.04.19.63.31,1.19.37.49.03.88.05.98.48.02-.29.04-.58.39-.6.42.14.6,1.44,1.33.9.02.09,0,.16-.02.22.4-.04,1.15.16,1.52-.16-.39,1.66,2.21.08,1.63,1.48l1,.29-.08.14c.59.32.94.04,1.27-.23.11.15-.04.25-.08.32.82.6.95.55,1.92.05l-.05.5c.28-.22,1.15,1.12,2.21.76-.02.05-.06.14-.15.19,1.14-.33,2.24,1.87,2.94.16l.75-.32c-.85-.28.26-.75-.05-1.11.35-.05.79.68.36.71l-.05-.1c-.3.91,1.04.5.92,1.12,1.74.2,3.39.89,5.04,1.05l-.14-.74.57.08c.14.18.16.58-.24.53.19.43.71-.3.73-.46.78.34-.36.83-.12.86l.34-.03-.07-.09c.29-.28.33-.6.81-.53.3.16.14.46.26.49,0,.05.04.08.19.03l.72.1-.26-.59c.33-.27.67.06.37-.61.44,1.03,2.64.45,2.93.77.45-.41.88-.4,1.42-.33-.13-.12-.2-.77.26-.69-.19,1.34.84.59,1.2,1.56-.33-.64,1.32-.14.81-1.06.38.11.02.5.31.82.93-.51,2.02.36,3.15.2.02-.18-.17-.45.08-.71l.58.89c.22-.08.22-1.01.62-.39-.05-.15-.14-.37.01-.43,2.18.9,4.55-.6,6.66,1.16-.27-.36-.07-.38.15-.38-.14-.09.03-.43.02-.67l.88.73c.22-.65.99.04,1.14-.58l-.3.09c.46-.71-.41-1.7-.27-2.65-.51.81-1.1-1.34-1.92-.18-.15-.2.16-.3.08-.53-.21.4-.44.47-.85.26l.05-.1c-1.18.04-1.67-.39-2.99-.7l.08.48c-.28-.07-.34-.22-.47-.35-.35.71.8.07.48.85-.35-.98-2-.07-2.23-1.17-.44-.01.12.55-.32.54l-.11-.3-.12.38c-.28-.07-.42-.44-.43-.69.07.03.2-.07.27-.09-.37-.36-1.05.1-1.17-.01l.42.19c-1.19.26-2.63-.14-3.77.45l.08.22c-.88.4-.69-.25-1.65-.08l.04-.05c-.19.22-.45.33-.71.3.24-.26-.44-.52-.12-.8-.95.43-.47.34-1.11,1.16l-.13-.37c-.22.33-.24.51-.72.59.4-.31-.29-.57.16-.98-.97-.83-1.5.77-1.91-.43-.49,1.01.84.6.57.81.2.34-.4.75-.71.64-.32-.03-.49-1.34-1.28-1.35.08,0,.09-.07.17-.06-.28-.27-.6.33-.94-.12-.24.61-.47-.06-.58.72l.74-.14c-.42.18-.87,1.09-1.52.59.06-.16.28-.35.43-.46-.18-.24-.39.13-.58-.13.11-.78.89-.11,1.37-.69-.19-.35-.87.52-.59-.32-.39,1.07-.76-.19-1.35.6l.07-.47c-.09.07-.28.28-.44.25l.33-.59c-.47.49-.78-.53-1.21-.29.85.07.14.59.47.97-1.12.53-.49-1.28-1.68-1.2.16-.05.56.35.29.54-.21-.12-.49-.34-.59-.6-.79,0,.06.5-.31.75-.19-.6-.41.18-.78.32l.06-.48c-.84-.43-.38.97-1.13.47l.44-.61-.44.11.17-.53c-.51.33-.64.2-1.05-.02.04.35-.21.86-.6.8-.21-.33.23-.42-.33-.46.18-.27.38-.62.54-.14.05-.15.18-.27.23-.42-.22-.38-.69-.21-.89-.24.07.03.16.08.19.15l-.92.5c-.09-.21.04-.33.17-.44-.17.02-.32.21-.57.2.14-.37.22-.77.58-.88l-.83.26c-.01-.18-.27-.54-.14-.66-.35-.31-1.17.49-1.64.06-.05.07-.12.12-.25.14-.48-.24-.78-.81-1.52-.49l-.11-.78c-.5,0,.17.99-.68.99-.62.03,0-.63-.13-.88-.37.24-1.1.74-1.38.02.21-.06.3.08.47.09ZM5.24,9.35c.11-.05.35-.27.3.03-.41.4-.31.15-.3-.03ZM5.33,5.26c0,.18-.16.16-.37.07.07-.09.2-.12.37-.07ZM31.7,5.55l-.02.02c-.18-.29-.12-.18.02-.02ZM32.15,5.98c.08-.04.11-.1.11-.17-.09.09-.21.04-.33-.05-.02.13.01.24.22.22ZM26.88,19.06l-.11-.13c.26-.13.18,0,.11.13Z"/>
        <path class="cls-2" d="M4.93,6.24c-.07-.06-.13-.13-.19-.2.02.08.08.15.19.2Z"/>
        <path class="cls-2" d="M14.1,12.51s.01,0,.02,0c.02-.03.03-.05.04-.08l-.06.07Z"/>
        <path class="cls-2" d="M22.46,6.52c-.09-.1-.12-.2-.14-.3-.04.11-.02.22.14.3Z"/>
        <path class="cls-2" d="M35.29,6.65l-.39-.07c.17.06.18.19.23.3.05-.1.06-.28.17-.23Z"/>
        <path class="cls-2" d="M36.67,10.81c.08-.03.1.05.18.02l.1-.2c-.21-.1-.43-.02-.28.18Z"/>
        <path class="cls-2" d="M34.84,8.23c-.16.37.1.36.37.41-.01,0-.03,0-.04-.02.34-.46,0-.43-.33-.39Z"/>
        <path class="cls-2" d="M35.27,8.66c.08.02.16.05.22.1.14-.19-.06-.09-.22-.1Z"/>
        <path class="cls-2" d="M32.93,6.07c.07.15.3-.43.29-.25.35-.4-1.02.19-.29.25Z"/>
        <polygon class="cls-2" points="34.4 9.51 34.55 9.03 34.24 9.31 34.4 9.51"/>
        <path class="cls-2" d="M32.78,8.25l.3.31c.03-.08.1-.1.18-.1-.22-.13-.42-.34-.48-.2Z"/>
        <path class="cls-2" d="M33.26,8.46c.11.07.23.12.33.08-.06-.03-.21-.09-.33-.08Z"/>
        <polygon class="cls-2" points="33.84 9.38 33.78 9.23 33.54 9.07 33.84 9.38"/>
        <path class="cls-2" d="M28.82,6.3l-.47-.04c-.11.14-.04.28.14.29.15-.07.32-.06.33-.24Z"/>
        <path class="cls-2" d="M29.5,8.09c-.06-.14-.03-.25-.02-.43l-.27.56.29-.13Z"/>
        <path class="cls-2" d="M28.27,7.71c-.11.14-.78.21-.25.39.11-.14.57-.1.25-.39Z"/>
        <polygon class="cls-2" points="22.31 4.7 22.42 4.72 22.69 3.74 22.31 4.7"/>
        <path class="cls-2" d="M16.21,5.8c.44.32.21-.61.6-.23.16-.22-.32-.31-.17-.49-.34.2-.47.04-.44.72Z"/>
        <path class="cls-2" d="M16.65,5.07c.05-.03.11-.07.18-.13-.1.04-.15.09-.18.13Z"/>
        <polygon class="cls-2" points="47.47 20.21 47.78 20.45 47.6 20.09 47.47 20.21"/>
        <path class="cls-2" d="M48.17,19.51l.02.65.25-.57c-.08.02-.23.07-.27-.09Z"/>
        <path class="cls-2" d="M5.94,8.24l-.13.1c-.13.12-.13.14-.12.17.08-.1.16-.19.25-.27Z"/>
        <polygon class="cls-2" points="8.46 10.16 8.4 10.11 8.27 10.7 8.46 10.16"/>
        <path class="cls-2" d="M11.97,10.79c-.13-.07-.33,0-.45-.08.32.01.25.78.45.08Z"/>
      </g>
    </g>
  </g>
</svg>