
<svg class="straight-underline" xmlns="http://www.w3.org/2000/svg" viewBox="0 0 743.38 8.94">
  <defs>
    <style>
      .straight-underline .cls-1 {
        fill: #fff;
      }
    </style>
  </defs>
  <g >
    <g>
      <path class="cls-1" d="M742.47,1.16c1.1.03.7-.38.87-.46-1.84.1-.82.57-.87.46Z"/>
      <polygon class="cls-1" points="724.36 2.17 724.68 1.99 722.01 2.42 724.36 2.17"/>
      <path class="cls-1" d="M707.42,2.21c1.6.71,6.14-.14,9.16.11l.5.16,1.36-.58c-3.67.1-8.43.5-11.02.31Z"/>
      <path class="cls-1" d="M698.38.7c.56.28-1.95.25,2.11.08-.2-.03-.26-.05-.38-.07-.37,0-.87,0-1.72-.01Z"/>
      <path class="cls-1" d="M700.1.71c1.78-.03-1.17-.23,0,0h0Z"/>
      <path class="cls-1" d="M691.86.9l2.35-.26c-.49-.16-2.58-.19-1.81-.31-2.41.14-1.91.31-.54.57Z"/>
      <path class="cls-1" d="M689.64,1.42l1.22-.11c-.21-.07-.54-.09-1.22.11Z"/>
      <path class="cls-1" d="M693.44,1.09l-2.58.23c.34.11.38.35,1.19-.08-.21.21.3,0,1.4-.15Z"/>
      <path class="cls-1" d="M694.9,1.19c1.32.15,3.02.24.66.5,4.5-.11,3.83-.61-.66-.5Z"/>
      <path class="cls-1" d="M706.55,2.95l1.76.2,1.52-.24c-.76.12-3.4-.18-3.29.04Z"/>
      <path class="cls-1" d="M677.22.57c-.15.15.79.4.97.6l1.74-.18c-.89-.1-2.58-.19-2.7-.42Z"/>
      <path class="cls-1" d="M678.19,1.17l-2.6.27c2.32.02,2.74-.1,2.6-.27Z"/>
      <polygon class="cls-1" points="689.22 2.22 693.49 1.66 688.4 2.23 689.22 2.22"/>
      <polygon class="cls-1" points="667.3 .59 668.78 .23 666.15 .77 667.3 .59"/>
      <path class="cls-1" d="M660.73.67c1.09-.29-1.5-.49-.34-.67-1.79.06-3.31.31-4.69.54,1.46-.13,3.02-.1,5.03.13Z"/>
      <path class="cls-1" d="M653.39.88c.73-.07,1.48-.2,2.31-.34-.78.07-1.54.17-2.31.34Z"/>
      <path class="cls-1" d="M671.17,1.38c-.2-.09-.59-.33-2.05-.43l1.02.42c.31,0,.66,0,1.02,0Z"/>
      <path class="cls-1" d="M670.18,1.39h-.04c-1.11-.02-1.88-.03-2.21-.03.28,0,.96.01,2.24.03Z"/>
      <path class="cls-1" d="M671.43,1.38c-.09,0-.16,0-.26,0,.1.04.16.06.26,0Z"/>
      <path class="cls-1" d="M682.41,1.85c-1.53.24-4.71.51-1.63.86,1.09-.3-.67-.5,1.63-.86Z"/>
      <path class="cls-1" d="M672.7,1.91l2.76.09c-.05-.11-.55-.28.2-.4l-2.96.31Z"/>
      <polygon class="cls-1" points="671.35 2.05 672.7 1.91 671.68 1.88 671.35 2.05"/>
      <path class="cls-1" d="M658.12,1.26c-1.19.19-2.49.21-3.97.24,1.58.08,3.21.12,4.76.11.22-.14.9-.38-.79-.36Z"/>
      <path class="cls-1" d="M663.98,1.36c-.08,0-.19.02-.26.03.16.04.29.05.26-.03Z"/>
      <path class="cls-1" d="M639.65,1.55c.08.02.15.05.23.08.02-.03.03-.05.05-.07h-.29Z"/>
      <path class="cls-1" d="M659.17,1.7c1.19.08,1.89-.03,2.57-.16-.89.05-1.83.08-2.84.08-.1.06-.12.1.27.08Z"/>
      <path class="cls-1" d="M649.35,1.09c.62.09,1.32.16,2.05.23-.6-.13-1.84-.34-2.05-.23Z"/>
      <path class="cls-1" d="M663.32,1.27c.06,0,.11-.01.18-.02-.39-.09-.34-.05-.18.02Z"/>
      <path class="cls-1" d="M663.32,1.27c-.61.06-1.09.17-1.57.27.72-.04,1.39-.08,1.97-.15-.15-.03-.29-.08-.4-.12Z"/>
      <path class="cls-1" d="M635.27,4.31c.21-.4,3.33-.77,6.02-.36,2.65-.31.91-1.6-1.4-2.32-.08.17-.08.33-2.81.58.96.21,6.05.49,3.75.85-3.61.22-2.96-.13-4.72-.33,1.49.49-4.59.73-3.8,1.46l3.17-.27c.06.11-1.09.3-.21.4Z"/>
      <path class="cls-1" d="M645.08,1.65l1.12-.05c-1.28-.07-2.2-.22-3.88-.52-1.87.2-2.25.35-2.38.48l5.52.04-.38.06Z"/>
      <path class="cls-1" d="M651.24,1.58c-.87.43-3.57.63-1.92,1.09,3.29-.04,2.31-.37,4.27-.56-5.31.12,1.53-.24-2.31-.48,1.04-.08,1.98-.1,2.87-.12-.96-.05-1.88-.11-2.75-.19.05,0,.08.02.12.03h.02s0,0,0,0c.23.05.3.09.05.06-.02,0-.08,0-.11,0-.04.06-.13.11-.24.16-1.54-.08-.24-.11.24-.16.02-.02.06-.04.06-.06,0,0-.01,0-.02,0l-5.32.25c1.13.06,2.54.04,5.04-.02Z"/>
      <path class="cls-1" d="M677.95,3.65c-.17-.04-.16-.07-.17-.1-.34.05-.47.09.17.1Z"/>
      <path class="cls-1" d="M675.76,3.4c.39-.06.71-.23,1.97-.19,1.09.13,0,.21.05.35.76-.12,2.65-.32.27-.52l-.38.06c-2.14-.14-4.9-.67-4.52-.73.63.39,1.18.66,2.61,1.04Z"/>
      <path class="cls-1" d="M663.35,2.6l-4.43.23,2.26.37-.11-.22c2.52.08,1.98-.19,2.29-.37Z"/>
      <polygon class="cls-1" points="639.15 1.34 639.73 .88 637.17 1.53 639.15 1.34"/>
      <polygon class="cls-1" points="633.39 1.41 633.6 1.01 632.08 1.26 633.39 1.41"/>
      <path class="cls-1" d="M308.44,7.38l-1.3.12c.62-.04,1.01-.08,1.3-.12Z"/>
      <path class="cls-1" d="M317.86,7.38l.23-.2c-.44.11-.61.19-.23.2Z"/>
      <path class="cls-1" d="M491.95,1.92c-1.9-.36-4.02-.93-3.79-.49l.58.43c1.32-.08,2.34-.04,3.2.05Z"/>
      <path class="cls-1" d="M395.1,4.82c.18.04.37.09.55.13.46-.15.89-.29,1.28-.42-.55.09-1.18.19-1.83.29Z"/>
      <path class="cls-1" d="M393.77,6.62l-2.5-.27c.56.1,1.37.19,2.5.27Z"/>
      <path class="cls-1" d="M256.95,8.01l-1.52.45c2.38-.01,1.33-.23,1.52-.45Z"/>
      <path class="cls-1" d="M574.41,1.76c-1.64-.16-2.94-.23-4.08-.25,1.97.24,3.56.61,4.08.25Z"/>
      <path class="cls-1" d="M312.13,2.77c-.8.08-1.14.17-1.11.27.82-.08,1.28-.16,1.11-.27Z"/>
      <path class="cls-1" d="M565.6,1.53c.29.04.57.06.87.1,1.2-.08,2.4-.14,3.86-.12-1.46-.18-3.12-.29-4.73.02Z"/>
      <path class="cls-1" d="M70.23,8.26c-.14-.02-.3-.03-.42-.05-.04.06.15.06.42.05Z"/>
      <path class="cls-1" d="M15.82,4.06c.54-.03,1.41-.03,2.23-.04-.4-.03-1.07-.02-2.23.04Z"/>
      <path class="cls-1" d="M610.22,1.3c1.22-.03.19-.05,0,0h0Z"/>
      <path class="cls-1" d="M616.16,2.99c-.26.05-.46.11-.49.21.1-.1.27-.17.49-.21Z"/>
      <path class="cls-1" d="M553.44,4.27s-.06,0-.11,0c.36.08.3.07.11,0Z"/>
      <path class="cls-1" d="M612.05,1.49c-.46-.05-.99-.09-1.56-.12.25.03.73.07,1.56.12Z"/>
      <path class="cls-1" d="M611.81,1.28c.42.02.75.03,1.07.04.15-.07.02-.12-1.07-.04Z"/>
      <path class="cls-1" d="M608.51,1.33c.7,0,1.35,0,1.98.04-.24-.03-.34-.05-.28-.07-.36,0-.86.02-1.7.03Z"/>
      <path class="cls-1" d="M170.27,6.77c-.08-.01-.17-.02-.26-.04-1.23.18-.69.15.26.04Z"/>
      <path class="cls-1" d="M460.18,6.53c.06,0,.09-.02.14-.02-.06,0-.13,0-.18-.01l.04.04Z"/>
      <path class="cls-1" d="M455.8,6.86c1.87-.55,2.93-.48,4.34-.37l-1.46-1.25-2.89,1.62Z"/>
      <path class="cls-1" d="M285.86,7.58l3.08.38c-3.72.65-6.41.44-3.51.98.43-1.36,11.97-.18,12.4-1.54l2.03.28c-.58-.01-.67.07-1.25.06,3.95.64,2.93-.99,8.02-.81,1.77.1,3.01.29,1.8.46l3.95-.35c1.15.02.87.26-.28.24l6.03-.13-.04.04c.86-.22,2.81-.55,3.76-.69,1.53.19-.77.15-.38.31l3.34-.34c1.36.35-1.4.7-3.71.66,3.12,1.35,2.77-.35,9.5.42l-3.15.18c2.03.76,4.49.48,8.06.95-.85-.25-7.14-1.19-3.52-1.54,1.02.1,2.37.14,4.32-.14.02.48,1.93.36,4.31.32l-.16.64c2.58-.19,2.38-.52,3.89-.81,2.88.05,3.48.55,4.15.96,4.61.09-3.18-.78,2.27-.92,3.83.23,6.52-.04,11.1-.44,2.68.21-.47.39.5.57l2.38-.52c.58.01.39.17.3.25,2-.2.16-.64,3.31-.82.85-.71,6.47,1.01,10.36.2.96.18-.46.39-.17.64,5.35-.54,4.58-.4,8.97-1.12l3.74.41c-2.75-.47.76-1.05,3.83-1.53-.98-.23-1.81-.43-2.37-.52l4.91-.36c.59.1.1.32-.7.59.33-.05.65-.11.9-.16,1.76.23.85.6-.41.96-.6-.12-1.19-.26-1.77-.39-1.21.39-2.34.83-2.09,1.2.32-.07.93-.14,1.61-.18-.32.11-.52.2-.37.26.17.07.68-.08,1.48-.24l1.12.71.27-.28,6.42.43c4.59-.73,8.58-1.8,15.88-2.12-1.81.53-.39.86-.48,1.48-1.99-.65-5.65.3-9.43.18,1.97.06,1.54.36,1.04.46l6.74-.62c-.15.51,1.43.38,3.19.58-1.33-1,5.02-.68,7.76-1,.17.34-.49.68-3.83.61,3.69.74,4.77-1.19,8.39-.56-.82.01-1.26-.04-1.58.13,1.91-.31,6.57-.08,5.48.21h-.81c5.42.11,16.51-.04,17.32-.89.05.11-.71,1.03-1.03,1.2l9.67-2.89c-.85.73,2.43,2.46-2.07,2.89,1.29.1,2.89.22,5.61-.05-.88-.1-2.2-1.05-1-1.12,3.31.8,2.3.43,6.37,1.11-1.32-.15.14-1.3,2.23-1.27-.33.17.18,1.13-.59,1.25l5.19-1.14c-1.3.21-.23.95.94,1.27-.54-.22,4.49,0,5.87-.11l-2.2-.25c5.87.15,5.79-1.6,11.61-1.56-.7.23-1.73,1.44,1.22,1.57,1.35-.58,6-2.79,11.14-3.25l.99.33,3.95-.39c-2.46.87-9.35,2.72-13.12,3.44,2.2.25.61.39,3.9.35,1.16.3-1.79.47-2.76.5l7.65.17c-.34-.67,5.85-.69,5.56-1.25l-8.31.72c-.34-.67,4.8-1.92,10.22-1.82,1.38.26-1.03,1.2-.91,1.42.7-.23,5.14-.46,5.64-.3l-2.3.37c3.02.24,4.92-.91,8.55-.28,1.25.04,3.74.85,3.96.45-2.04-.76-2.45-3.13-1.09-3.71.44.05,6.58.71,8.01,1.09,2.06.59-3.09,1.44-1.33,1.95.07-.18,1.21-.41,1.69-.49,1.32.15-.54.57,2.31.48.47-.68,5.81.04,1.35-.58,2.79-.2,2.97.13,6.25.09-1.05-.44,2.94-1.51,5.74-1.71-.16.17.47.4.77.5,5.73.04,8.8.34,14.15.33.49.16,3.07.35,1.97.65.77-.12,1.47-.36,3.12-.38,3.19.58-3.67.1-1.24.8.21-.4,4.26-.56,6.6-.82-.72-.61-5.42-.1-7.77.16-.01-.84,4.07-1.74,9.66-2.15,4.44-.22,1.93.54,2.7.42,8.33.12,7.1-1.5,14.02-.91,2.75.53.13,1.07.74,1.46-3.61.22-5.55-.32-8-.29l3.02.24c-1.15.18-3.56.33-4.88.17,2.3.48,14.08.05,20.51.47,1.14-.18,3.11-.38,2.18-.59l-2.03.08c-1.87-.43,3.83-.61,1.25-.81,2.73-.31,5.79-.8,9.63-.57l.72.61c-.08-.18-2.51-.36-3.59-.17,1.6-.28,5.89.81,7.65,0l-2.69-.42c2.74-.32,6.12-.98,9.53-.8-1.55-.6-.78.07-3.21-.63,2.1.87-8.71,0-5.34.91-2.49-.81-4.3-.33-7.55-1.03.1.2,1.15.38-1.71.29-.13.06-.43.14-.63.18-.09,0-.12,0-.19-.01.06,0,.1.02.16.02-.12.03-.13.04.06,0,.68.09,1.23.19,1.46.3-1.42.47-5.96.47-7.5.71-1.7-.09.71-.23-.22-.45l-2.3.37c-.23-.45-4.51-.73-.51-1.01h-3.6c-2.12-.25-5.03-.34-6.83-.15-1.7-.09-4.28.51-2.81.15l-5.64.3-.05-.11c-5.56-.04-11.45.78-17.82,0-1.87.12-3.81.26-6.94.15l-.61-.39c-2.4.14-7.22-.37-8.26.04-2.6-1.04-11.68-.19-15.91-.36l-.16.51c-2.91-.02-5.7.13-9.32.35l.22.45c-3.12.38-8.01-.29-12.94-.23.33-.17,1.59-.13,2.47-.03-5.89-.99-12.42.78-17.77.06-1.33.17-2.29.11-3.23,0,.12,0,.23-.01.33-.02-.14,0-.34,0-.55,0-.59-.08-1.19-.16-1.85-.23.56.11,1.09.2,1.56.24-1.03.01-2.58.07-4.11.19l-.65-.48c-.12,0-.22,0-.35.01-1.5-.17-1.2.23-.4.59-.77.08-1.47.18-2.02.3-1.22-.77-4,.27-5.67-.55-1.03.41-7.67.33-8.48,1.18-.05-.11-.5-.16.32-.17-1.7-.09-3.4-.18-4.93.06l-.72-.61-3.71.84c-2.26-.37-3.19-.58-.96-1.06-5.41.74-4.39.29-8.99,1.02l.22-.4c-1.64.02-4.27.56-5.27.24-3.68-.74-18.21-.04-27.65-.71,1.84,1.16-4.39-.51-4.76.4-.55-.27-1.87-.43-.34-.67-4.82.29-7.24-.41-10.57.36-.55-.28,1.03-.41.54-.57-.39.06-1.53.24-2.03.08-.49-.16.71-.23,1.47-.36-4.92.06-5.42.91-5.77,1.71-2.5-.37-3.74-.31-5.54.22-.87-.26-2.32-.53.74-.63-1.72-.03-10.52-.35-10.69.29-.54-.16-2.41-.04-2.86.04-3.86-.03-4.2-.08-7.99,0l1.05.1c-1.5.78-3.15.18-6.21.28l.09-.08c-7.01-.53-3.03.28-9.94-.34l.38.48c-.64,1.03-6.13-.59-10.14-.18l1.45.27c-2.19.36-6.13-1.38-8.33-1.5-.48-.09.76-.15,1.43-.22-5.77-.59-.74.63-5.04.79-.79-.34,1.02-.87-1.87-.92-1.44-.27-8.38,1.13-12.33.49.87.26,1.73.52-.26.72-3.06.1-8.27-.96-11.03-.13-.39-.07-.54-.14-.55-.2-2.34.22-7.6.38-9,.83-2.17-1.65-14.53.85-14.48-.67l-7.19.11.19-.16c-4.6-.09-6.22.29-7.83.66-1.06-.1-.29-.25-.2-.33-6.72-.29-7.38-.22-13.01.56l-.59-.49c-1.53.29-9.71-.75-16.3-.15.06-.06.2-.15.72-.22-7.41.61-17.74-1.32-20.45.5l-4.89.46c6.33.12-.94.79,1.66,1.08-2.49.11-6.43-.52-3.38-.63l.48.09c1.12-.94-7.86-.31-7.69-.95-12.45.09-24.58-.39-36.24-.4l1.35.73-4.07-.03c-1.07-.17-1.43-.57,1.47-.55-1.53-.41-4.87.36-4.95.52-5.68-.28,2.22-.86.47-.87l-2.37.06.53.08c-1.92.31-2.09.62-5.57.6-2.21-.14-1.13-.45-2-.47,0-.05-.29-.08-1.33-.02l-5.12-.05,2.05.57c-2.27.29-4.82-.01-2.45.63-3.47-1-19.12-.3-21.25-.61-3.18.43-6.32.43-10.21.4.97.12,1.55.76-1.81.7,1.22-1.34-6.15-.56-8.86-1.52,2.43.63-9.54.19-5.73,1.08-2.8-.1-.17-.5-2.3-.81-6.66.54-14.69-.29-22.92-.09-.13.18,1.25.44-.51.71l-4.35-.87c-1.63.09-1.49,1.02-4.47.42.42.15,1.05.37-.04.43-16.14-.8-32.97.81-49.36-.75,2.22.33.74.37-.95.39,1.1.08-.02.43.19.67l-6.86-.64c-1.25.67-7.35.07-8.07.7l2.17-.12c-2.89.76,4.05,1.65,3.63,2.61,3.23-.86,8.53,1.23,13.84,0,1.17.19-1,.31-.37.53,1.34-.41,2.97-.51,5.98-.33l-.34.1c8.46-.13,12.09.27,21.59.5l-.71-.47c2.04.06,2.47.2,3.43.32,2.34-.73-5.74-.02-3.6-.82,2.71.96,14.4-.03,16.23,1.06,3.14,0-.92-.55,2.22-.55l.83.29.79-.38c2.06.06,3.1.42,3.18.67-.5-.03-1.42.07-1.96.1,2.67.34,7.53-.14,8.45-.03l-3.02-.17c8.57-.31,19.04.05,27.32-.58l-.63-.22c6.32-.43,5.07.23,12.01.02l-.25.05c1.39-.23,3.24-.35,5.14-.33-1.75.27,3.3.5,1,.8,6.86-.47,3.39-.36,7.92-1.21l1.05.37c1.54-.34,1.67-.52,5.14-.63-2.84.33,2.22.56-.97.99,7.28.79,10.8-.85,14.15.32,3.34-1.04-6.3-.55-4.43-.78-1.57-.33,2.76-.78,5.04-.68,2.32.02,3.96,1.3,9.81,1.26-.58,0-.62.07-1.2.07,2.19.25,4.29-.37,6.97.05,1.5-.63,3.49.02,3.92-.77l-5.36.2c3.04-.22,5.89-1.15,10.9-.72-.39.16-1.88.38-2.9.5,1.47.23,2.82-.16,4.34.07-.43.79-6.52.19-9.78.81,1.57.33,6.16-.59,4.53.27,2.35-1.1,5.76.12,9.72-.73l-.26.48c.63-.08,1.92-.31,3.08-.3l-2.09.62c3.2-.54,6.18.44,9.26.14-6.44.04-1.45-.57-4.17-.9,7.94-.66,4.57,1.23,13.46.97-1.2.07-4.52-.27-2.64-.5,1.69.09,3.93.27,4.97.51,5.89-.12-.91-.49,1.6-.78,2.01.57,2.89-.24,5.47-.44l.02.48c6.71.29,1.78-1.01,7.82-.66l-2.55.68,3.15-.18-.65.55c3.43-.42,4.49-.32,7.85-.17-.78-.34.44-.88,3.41-.9,2.03.28-1.13.46,3.08.38-.95.3-1.99.69-3.83.25-.19.16-.94.31-1.13.46,2.19.32,5.49.06,7.01.05-.59-.02-1.29-.04-1.65-.11l6.11-.69c.96.18.2.33-.56.47,1.24-.06,2.09-.28,3.91-.33-.47.39-.36.8-2.93.99l5.82-.45c.39.17,2.99.46,2.23.61,3.23.22,7.91-.79,12.19-.5.22-.08.67-.15,1.58-.21,4.02.08,7.59.55,12.35,0l2.71.69c3.73-.17-3.66-.87,2.55-1.16,4.4-.24,1.64.59,3.19.79,2.19-.36,5.99-1.1,10.03-.54-1.34.14-2.39.04-3.64.09ZM331.9,7.12c-.89.1-2.67.42-3.32.14,1.01-.56,1.8-.29,3.32-.14ZM401.88,5.73c-.66.16-1.69.09-2.85-.09.84-.04,1.79-.03,2.85.09ZM596.83,1.73s-.06.01-.1.02c-1.99-.18-1.28-.11.1-.02ZM600.96,1.93c.42-.07.39-.14.21-.2-.29.12-1.22.13-2.27.1.29.13.83.21,2.06.1ZM157.22,3.57l.8.12c-1.82.14-1.31.02-.8-.12Z"/>
      <path class="cls-1" d="M393.95,6.41c-.25-.08-.32-.17-.38-.26-.35.08-.36.18.38.26Z"/>
      <path class="cls-1" d="M257.23,7.93s-.09,0-.14,0c-.08.03-.12.06-.14.09l.28-.08Z"/>
      <path class="cls-1" d="M536.97,6.23c-.85-.07-1.33-.15-1.64-.24-.05.12.34.22,1.64.24Z"/>
      <path class="cls-1" d="M622.86,1.04l-2.65.13c1.28-.03,1.74.08,2.38.15-.06-.11-.56-.27.26-.28Z"/>
      <path class="cls-1" d="M645.84,3.95c.39-.06.82,0,1.2-.07l-.11-.22c-1.65.02-2.8.2-1.1.29Z"/>
      <path class="cls-1" d="M625.31,2.63c.21.41,1.87.26,3.72.18-.11,0-.22,0-.33,0,.54-.57-1.43-.38-3.4-.18Z"/>
      <path class="cls-1" d="M629.47,2.8c.57-.02,1.15-.03,1.71-.02.22-.23-.7-.05-1.71.02Z"/>
      <path class="cls-1" d="M606.2,1.64c.88.1.55-.52,1.05-.36.98-.52-5.86.64-1.05.36Z"/>
      <polygon class="cls-1" points="626.82 3.97 626.15 3.47 625.11 3.87 626.82 3.97"/>
      <path class="cls-1" d="M612.18,3.65l2.96.13c-.05-.08.33-.13.79-.17-1.83-.01-3.83-.1-3.76.04Z"/>
      <path class="cls-1" d="M615.93,3.6c.95,0,1.86,0,2.38-.09-.51,0-1.62.03-2.38.09Z"/>
      <polygon class="cls-1" points="622.77 4.13 621.89 4.03 619.8 4 622.77 4.13"/>
      <path class="cls-1" d="M580.33,3.65l-3.23.15c-.33.17.55.28,1.76.2.77-.12,1.97-.19,1.48-.36Z"/>
      <path class="cls-1" d="M590.11,4.99c-.88-.1-.93-.21-1.43-.38l-.1.62,1.52-.25Z"/>
      <path class="cls-1" d="M580.68,5.17c-.32.17-4.69.51-.59.46.33-.17,3.57-.33.59-.46Z"/>
      <polygon class="cls-1" points="531.96 4.54 532.79 4.53 532.66 3.51 531.96 4.54"/>
      <path class="cls-1" d="M489.03,7.12c3.83.23.91-.63,4.37-.34.9-.24-2.83-.24-1.91-.45-2.31.26-3.53.12-2.46.79Z"/>
      <path class="cls-1" d="M491.49,6.33c.37-.04.76-.09,1.18-.16-.67.07-.98.12-1.18.16Z"/>
      <polygon class="cls-1" points="6.79 3.54 4.32 3.34 5.91 3.67 6.79 3.54"/>
      <path class="cls-1" d="M2.06,4.31l-.58-.65-1.48.59c.56-.03,1.64-.09,2.06.05Z"/>
      <path class="cls-1" d="M338.75,8.4l.19-.16c-.38-.17-.96-.18-2.11-.2l1.93.36Z"/>
      <polygon class="cls-1" points="305.33 8.03 305.91 8.04 304.83 7.45 305.33 8.03"/>
      <path class="cls-1" d="M277.29,8.87c1.14.02,2.49-.11,3.64-.09-2.49.11-3.95-.64-3.64.09Z"/>
    </g>
  </g>
</svg>