
<svg class="title-underline-svg" xmlns="http://www.w3.org/2000/svg" viewBox="0 0 497.3 16.32">
  <defs>
    <style>
      .title-underline-svg .cls-1 {
        fill: #fff;
      }
    </style>
  </defs>
  <g>
    <g>
      <path class="cls-1" d="M496.66,12.83c.73.12.52-.38.64-.45-1.24-.03-.62.57-.64.45Z"/>
      <polygon class="cls-1" points="484.46 12.58 484.7 12.42 482.87 12.69 484.46 12.58"/>
      <path class="cls-1" d="M473.18,11.36c.99.91,4.1.31,6.09.81l.31.22.98-.54c-2.46-.16-5.67-.08-7.37-.49Z"/>
      <path class="cls-1" d="M467.32,9.04c.34.34-1.33.15,1.4.22-.13-.05-.17-.07-.25-.1-.24-.02-.58-.05-1.15-.12Z"/>
      <path class="cls-1" d="M468.47,9.16c1.19.08-.75-.33,0,0h0Z"/>
      <path class="cls-1" d="M462.94,8.86l1.6-.14c-.31-.21-1.7-.38-1.17-.46-1.63,0-1.31.22-.42.6Z"/>
      <path class="cls-1" d="M461.4,9.31l.82-.05c-.14-.09-.35-.14-.82.05Z"/>
      <path class="cls-1" d="M463.97,9.17l-1.75.1c.22.15.22.41.8-.02-.16.22.2.03.95-.08Z"/>
      <path class="cls-1" d="M464.94,9.37c.86.25,1.99.46.39.6,3.01.16,2.62-.44-.39-.6Z"/>
      <path class="cls-1" d="M472.52,12.12l1.15.36,1.04-.16c-.52.08-2.24-.46-2.19-.2Z"/>
      <path class="cls-1" d="M453.2,7.58c-.11.16.49.5.59.73l1.18-.09c-.59-.17-1.71-.38-1.76-.63Z"/>
      <path class="cls-1" d="M453.79,8.31l-1.76.14c1.55.17,1.84.06,1.76-.14Z"/>
      <polygon class="cls-1" points="461.04 10.17 463.95 9.81 460.49 10.13 461.04 10.17"/>
      <polygon class="cls-1" points="446.57 6.97 447.59 6.66 445.79 7.1 446.57 6.97"/>
      <path class="cls-1" d="M442.17,6.65c.75-.27-.96-.62-.17-.77-1.2-.03-2.24.18-3.18.37.99-.07,2.03.04,3.35.4Z"/>
      <path class="cls-1" d="M437.25,6.51c.49-.04,1.01-.15,1.57-.26-.52.04-1.04.11-1.57.26Z"/>
      <path class="cls-1" d="M449.08,8.1c-.13-.11-.36-.41-1.32-.61l.64.54c.21.02.44.04.68.07Z"/>
      <path class="cls-1" d="M448.42,8.05l-.02-.02c-.74-.08-1.25-.13-1.47-.16.19.02.64.07,1.49.17Z"/>
      <path class="cls-1" d="M449.25,8.12c-.06,0-.11-.01-.17-.02.06.05.1.07.17.02Z"/>
      <path class="cls-1" d="M456.54,9.33c-1.04.18-3.19.28-1.17.87.76-.26-.4-.6,1.17-.87Z"/>
      <path class="cls-1" d="M450.05,8.79l1.83.27c-.03-.13-.34-.34.17-.43l-2.01.16Z"/>
      <polygon class="cls-1" points="449.13 8.86 450.05 8.79 449.37 8.69 449.13 8.86"/>
      <path class="cls-1" d="M440.37,7.18c-.81.15-1.69.11-2.67.07,1.05.17,2.13.3,3.17.37.16-.14.63-.38-.5-.44Z"/>
      <path class="cls-1" d="M444.28,7.63c-.06,0-.13,0-.18.01.11.05.19.07.18-.01Z"/>
      <path class="cls-1" d="M428.01,6.55c.05.03.1.06.15.1.01-.03.02-.05.04-.08l-.19-.02Z"/>
      <path class="cls-1" d="M441.04,7.72c.79.15,1.27.06,1.73-.04-.6,0-1.23-.02-1.9-.06-.07.06-.09.11.17.1Z"/>
      <path class="cls-1" d="M434.52,6.54c.41.13.87.25,1.35.36-.39-.18-1.2-.48-1.35-.36Z"/>
      <path class="cls-1" d="M443.84,7.48s.08,0,.12-.01c-.25-.13-.22-.07-.12.01Z"/>
      <path class="cls-1" d="M443.84,7.48c-.41.03-.74.12-1.07.2.49,0,.94,0,1.33-.04-.1-.04-.19-.1-.26-.16Z"/>
      <path class="cls-1" d="M424.85,9.42c.17-.43,2.28-.69,4.05-.09,1.79-.21.74-1.75-.74-2.67-.07.19-.08.37-1.92.5.62.29,4,.86,2.44,1.15-2.43.06-1.97-.3-3.12-.62.96.62-3.13.59-2.66,1.44l2.13-.13c.03.13-.75.28-.17.43Z"/>
      <path class="cls-1" d="M431.62,6.94h.75c-.85-.14-1.45-.36-2.55-.79-1.26.13-1.53.27-1.63.41l3.69.33-.26.05Z"/>
      <path class="cls-1" d="M435.75,7.18c-.62.44-2.44.52-1.38,1.12,2.2.12,1.57-.29,2.9-.41-3.56-.13,1.04-.2-1.5-.65.7-.03,1.33-.01,1.93,0-.64-.1-1.25-.22-1.82-.35.03.01.05.02.08.04h.02s0,0,0,0c.15.07.2.11.03.06-.01,0-.06,0-.07,0-.03.07-.1.12-.17.17-1.02-.17-.15-.14.17-.17.01-.02.04-.04.05-.07,0,0,0,0-.01,0h-3.58c.75.13,1.69.18,3.37.25Z"/>
      <path class="cls-1" d="M453.38,11.07c-.11-.05-.1-.09-.1-.12-.23.04-.33.07.1.12Z"/>
      <path class="cls-1" d="M451.94,10.65c.26-.04.5-.22,1.33-.09.72.21-.02.23,0,.39.52-.08,1.8-.19.23-.56l-.26.04c-1.41-.29-3.2-1.06-2.95-1.1.38.47.72.81,1.64,1.32Z"/>
      <path class="cls-1" d="M443.74,8.98c-.99-.01-1.98-.02-2.98,0l1.47.53-.06-.26c1.67.25,1.34-.09,1.56-.27Z"/>
      <polygon class="cls-1" points="427.68 6.29 428.11 5.81 426.35 6.4 427.68 6.29"/>
      <polygon class="cls-1" points="423.83 6.07 424 5.64 422.97 5.83 423.83 6.07"/>
      <path class="cls-1" d="M206.27,6l-.87.14c.41-.05.68-.09.87-.14Z"/>
      <path class="cls-1" d="M212.58,5.92l.15-.22c-.29.13-.41.22-.15.22Z"/>
      <path class="cls-1" d="M329.16,1.53c-1.26-.45-2.66-1.14-2.52-.64l.38.5c.89-.06,1.57.02,2.14.14Z"/>
      <path class="cls-1" d="M264.25,3.26c.12.05.25.1.37.15.31-.17.6-.32.86-.46-.37.09-.79.2-1.23.31Z"/>
      <path class="cls-1" d="M263.34,5.27l-1.67-.33c.38.11.91.22,1.67.33Z"/>
      <path class="cls-1" d="M171.86,7.2l-1,.53c1.59-.05.88-.28,1-.53Z"/>
      <path class="cls-1" d="M384.36,3.84c-1.09-.25-1.95-.38-2.72-.45,1.31.35,2.35.83,2.72.45Z"/>
      <path class="cls-1" d="M208.69.79c-.53.1-.76.2-.74.31.55-.09.86-.19.74-.31Z"/>
      <path class="cls-1" d="M378.48,3.25c.19.06.38.09.57.14.81-.04,1.61-.09,2.59,0-.96-.27-2.08-.43-3.16-.14Z"/>
      <path class="cls-1" d="M47.23,13.5c-.09-.01-.2-.01-.29-.03-.02.07.1.06.29.03Z"/>
      <path class="cls-1" d="M10.52,12.28c.35-.07.94-.14,1.48-.21-.27,0-.72.05-1.48.21Z"/>
      <path class="cls-1" d="M408.35,4.81c.82.01.13-.05,0,0h0Z"/>
      <path class="cls-1" d="M412.2,6.96c-.18.04-.31.11-.34.22.07-.11.19-.18.34-.22Z"/>
      <path class="cls-1" d="M370.2,5.93s-.04,0-.07,0c.24.11.2.09.07,0Z"/>
      <path class="cls-1" d="M409.56,5.1c-.3-.08-.65-.15-1.04-.2.17.05.48.11,1.04.2Z"/>
      <path class="cls-1" d="M409.41,4.86c.28.03.5.06.71.09.11-.08.02-.13-.71-.09Z"/>
      <path class="cls-1" d="M407.21,4.77c.47.02.9.07,1.32.13-.16-.04-.22-.07-.18-.09-.24,0-.58-.02-1.14-.04Z"/>
      <path class="cls-1" d="M113.88,7.65c-.05-.01-.12-.02-.18-.04-.81.25-.45.2.18.04Z"/>
      <path class="cls-1" d="M307.76,6.02s.06-.02.09-.02c-.04,0-.09-.01-.12-.02l.03.04Z"/>
      <path class="cls-1" d="M304.82,6.33c1.26-.58,1.97-.49,2.91-.35l-.94-1.42-1.97,1.77Z"/>
      <path class="cls-1" d="M191.18,6.39l2.07.4c-2.47.76-4.27.54-2.33,1.13.26-1.53,8-.29,8.26-1.82l1.36.3c-.39,0-.45.08-.83.07,2.65.69,1.94-1.13,5.35-.97,1.19.1,2.02.31,1.21.5l2.64-.42c.77.02.58.28-.18.27l4.03-.19-.03.05c.57-.25,1.87-.64,2.51-.8,1.03.21-.51.16-.25.35l2.23-.38c.91.39-.93.78-2.48.73,2.1,1.51,1.85-.39,6.35.48l-2.11.2c1.37.86,3.01.54,5.39,1.07-.57-.28-4.78-1.34-2.36-1.73.68.11,1.58.16,2.89-.15.02.54,1.29.4,2.89.37l-.1.72c1.72-.22,1.59-.58,2.6-.91,1.92.06,2.33.62,2.78,1.08,3.08.1-2.13-.88,1.51-1.03,2.56.26,4.36-.04,7.43-.48,1.79.24-.31.44.33.64l1.59-.58c.39.01.26.19.2.28,1.34-.23.11-.72,2.22-.92.57-.81,4.32,1.15,6.93.28.64.21-.31.44-.12.72,3.58-.56,3.07-.41,6.01-1.18l2.5.49c-1.84-.55.52-1.17,2.58-1.68-.65-.27-1.21-.5-1.58-.61l3.29-.36c.4.12.06.37-.48.66.22-.06.44-.11.6-.17,1.17.27.56.68-.28,1.08-.4-.15-.79-.3-1.18-.45-.81.43-1.58.91-1.41,1.33.21-.08.63-.15,1.08-.19-.21.12-.35.22-.25.29.11.08.45-.08.99-.26l.74.81.18-.32,4.29.53c3.08-.78,5.77-1.95,10.65-2.25-1.22.58-.27.96-.35,1.65-1.32-.75-3.78.29-6.31.12,1.32.09,1.02.42.69.53l4.52-.64c-.11.57.95.43,2.13.68-.88-1.14,3.37-.7,5.21-1,.11.38-.34.76-2.57.62,2.46.89,3.21-1.26,5.62-.5-.55,0-.84-.06-1.06.12,1.28-.31,4.4.01,3.66.33h-.55c3.63.2,11.04.21,11.6-.73.03.12-.5,1.14-.72,1.33l6.54-3.09c-.59.81,1.56,2.8-1.46,3.21.86.13,1.93.29,3.75.03-.59-.13-1.44-1.21-.63-1.27,2.19.96,1.52.52,4.23,1.35-.88-.19.13-1.47,1.53-1.38-.22.19.08,1.27-.43,1.39l3.51-1.16c-.87.2-.18,1.07.59,1.45-.35-.26,3,.12,3.93.02l-1.46-.34c3.92.31,3.92-1.66,7.81-1.47-.48.25-1.21,1.57.76,1.79.93-.62,4.11-2.99,7.58-3.38l.65.39,2.66-.34c-1.68.92-6.37,2.83-8.91,3.55,1.46.34.39.45,2.59.48.76.37-1.21.49-1.86.49l5.11.38c-.2-.76,3.94-.64,3.76-1.27l-5.58.61c-.2-.76,3.28-2.04,6.91-1.8.91.33-.74,1.32-.67,1.58.48-.25,3.46-.39,3.78-.2l-1.55.36c2.01.34,3.33-.9,5.73-.07.83.08,2.46,1.08,2.62.64-1.33-.92-1.5-3.6-.56-4.2.29.07,4.37,1.01,5.3,1.48,1.35.73-2.13,1.52-.99,2.15.06-.2.83-.43,1.15-.49.87.21-.39.62,1.52.61.35-.75,3.88.23.93-.61,1.88-.14,1.98.24,4.17.3-.68-.52,2.04-1.6,3.93-1.73-.12.19.29.46.49.59,3.83.23,5.87.67,9.44.83.32.2,2.03.5,1.28.8.52-.11,1-.34,2.11-.29,2.1.78-2.46-.04-.88.85.16-.44,2.88-.45,4.46-.64-.45-.71-3.62-.34-5.2-.15.04-.95,2.82-1.78,6.58-2.01,2.98-.07,1.25.68,1.78.58,5.56.48,4.84-1.38,9.43-.44,1.8.71.01,1.2.39,1.66-2.43.09-3.69-.59-5.33-.66l2,.4c-.78.16-2.4.22-3.27,0,1.51.63,9.4.64,13.67,1.38.78-.16,2.11-.29,1.5-.57h-1.36c-1.22-.55,2.6-.52.89-.84,1.85-.23,3.93-.68,6.48-.21l.44.72c-.04-.2-1.65-.53-2.39-.37,1.09-.23,3.87,1.21,5.11.4l-1.77-.6c1.85-.21,4.17-.78,6.43-.4-.99-.75-.53.04-2.09-.87,1.34,1.09-5.82-.46-3.64.74-1.6-1.03-2.85-.61-4.97-1.52.05.23.74.48-1.16.26-.09.06-.3.13-.43.18-.06-.01-.08-.01-.13-.02.04.01.07.02.1.03-.09.03-.09.04.04.01.45.12.81.27.95.4-.98.47-4.02.28-5.07.49-1.13-.17.49-.23-.11-.51l-1.56.32c-.12-.51-2.96-1.01-.27-1.15l-2.41-.16c-1.4-.36-3.34-.59-4.56-.44-1.13-.17-2.9.39-1.89.06l-3.79.1-.03-.13c-3.72-.26-7.71.37-11.92-.72-1.26.07-2.56.17-4.66-.06l-.39-.45c-1.62.08-4.82-.65-5.53-.22-1.69-1.25-7.81-.59-10.63-.93l-.13.56c-1.95-.12-3.82-.04-6.25.09l.13.51c-2.1.31-5.35-.56-8.65-.61.23-.19,1.07-.11,1.66.03-3.91-1.26-8.35.57-11.9-.37-.9.16-1.54.07-2.16-.07.08,0,.16,0,.22-.02-.09,0-.23-.01-.37-.02-.39-.1-.79-.21-1.23-.31.37.13.72.25,1.03.3-.69-.01-1.73.02-2.76.11l-.42-.55c-.08,0-.15,0-.24,0-1-.23-.81.23-.29.65-.52.07-.99.17-1.36.28-.79-.9-2.69.21-3.78-.75-.7.43-5.15.18-5.71,1.12-.03-.12-.33-.19.22-.19-1.14-.13-2.27-.26-3.3-.01l-.47-.7-2.51.88c-1.5-.45-2.12-.7-.61-1.2-3.64.75-2.95.25-6.05,1l.16-.44c-1.1,0-2.87.56-3.53.18-2.45-.88-12.19-.36-18.5-1.24,1.21,1.32-2.93-.61-3.2.4-.36-.31-1.24-.49-.22-.76-3.23.28-4.85-.53-7.08.31-.37-.31.7-.45.37-.64-.26.07-1.03.26-1.36.07-.33-.19.48-.26.99-.39-3.3.03-3.64.98-3.89,1.87-1.67-.44-2.5-.38-3.71.2-.58-.3-1.55-.61.5-.7-1.15-.05-7.04-.48-7.16.24-.36-.18-1.61-.06-1.91.02-2.59-.06-2.81-.13-5.35-.08l.7.12c-1,.85-2.11.19-4.16.3l.06-.09c-4.69-.6-2.03.31-6.66-.38l.25.54c-.43,1.16-4.1-.67-6.79-.21l.97.3c-1.47.4-4.11-1.56-5.59-1.7-.32-.1.51-.16.96-.24-3.87-.67-.5.71-3.37.88-.53-.38.68-.97-1.26-1.03-.97-.3-5.61,1.26-8.26.54.59.29,1.17.58-.17.81-2.05.12-5.55-1.02-7.39-.07-.26-.08-.36-.15-.37-.22-1.56.26-5.08.48-6.02,1-1.48-1.84-9.72,1.06-9.71-.65l-4.81.17.12-.18c-3.08-.06-4.16.37-5.23.8-.71-.11-.2-.27-.14-.36-4.5-.24-4.95-.14-8.7.82l-.41-.55c-1.01.35-6.53-.69-10.92.09.04-.06.13-.17.48-.26-4.94.8-11.93-1.2-13.68.88l-3.25.63c4.24-.02-.6.91,1.15,1.17-1.66.19-4.32-.43-2.28-.62l.32.09c.71-1.09-5.27-.15-5.19-.88-8.33.41-16.48.15-24.29.45l.94.77-2.72.1c-.72-.15-.99-.59.95-.66-1.04-.41-3.24.57-3.28.76-3.82-.12,1.44-1.04.27-.99l-1.58.15.36.08c-1.27.41-1.36.77-3.7.86-1.49-.08-.78-.46-1.37-.46,0-.06-.2-.07-.89.03l-3.43.12,1.41.57c-1.5.41-3.22.15-1.6.79-2.39-1-12.81.32-14.26.05-2.1.58-4.19.76-6.8.88.66.09,1.09.79-1.16.86.72-1.56-4.15-.35-6.04-1.3,1.67.6-6.36.64-3.75,1.47-1.88.01-.16-.55-1.6-.8-4.41.93-9.85.28-15.33.99-.07.2.88.42-.28.82l-2.99-.72c-1.08.2-.9,1.23-2.94.73.29.14.73.35.01.48-5.43.01-10.91.71-16.43,1.31-5.51.61-11.04,1.3-16.6,1,1.52.21.54.36-.59.5.74,0,.04.49.21.74l-4.66-.22c-.74.83-4.89.61-5.28,1.37l1.43-.29c-1.82,1.05,2.92,1.54,2.76,2.64,2.04-1.19,5.83.76,9.2-1,.8.13-.62.42-.18.62.84-.56,1.91-.78,3.93-.8l-.21.14c2.8-.38,4.82-.52,6.92-.62,2.11-.09,4.31-.08,7.49-.23l-.52-.49c1.37-.05,1.67.09,2.32.16,1.48-.95-3.82.3-2.49-.71,1.91.91,9.59-.86,10.92.25,2.09-.19-.67-.56,1.42-.74l.58.28.49-.48c1.38-.06,2.1.3,2.18.57-.34,0-.94.17-1.29.22,1.81.23,5-.59,5.62-.52l-2.03-.02c1.42-.21,2.92-.38,4.46-.53,1.54-.12,3.12-.24,4.7-.36,3.15-.24,6.27-.53,9-1.07l-.44-.22c4.18-.77,3.4.03,8.01-.52l-.16.07c.91-.32,2.14-.53,3.41-.6-1.15.38,2.24.41.73.85,4.54-.83,2.23-.57,5.2-1.7l.72.38c1.01-.43,1.08-.64,3.39-.88-1.88.46,1.52.55-.58,1.14,4.91.63,7.16-1.33,9.47-.12,2.17-1.28-4.24-.4-3.01-.72-1.07-.32,1.79-.96,3.32-.94,1.56-.06,2.72,1.32,6.63,1.08-.39.02-.41.11-.8.12,1.48.21,2.84-.56,4.66-.18.97-.75,2.33-.09,2.57-1l-3.57.41c2.02-.35,3.87-1.49,7.24-1.18-.25.19-1.24.49-1.91.66.99.21,1.87-.29,2.9-.06-.25.89-4.34.44-6.48,1.23,1.07.32,4.08-.88,3.04.15,1.51-1.32,3.85-.06,6.45-1.1l-.15.54c.41-.1,1.27-.39,2.04-.41l-1.36.75c2.11-.68,4.15.34,6.19-.07-4.3.2-.99-.6-2.83-.91,5.28-.94,3.11,1.26,9.04.76-.8.11-3.03-.19-1.79-.49,1.14.06,2.64.2,3.34.45,3.93-.28-.63-.52,1.03-.92,1.37.59,1.92-.35,3.64-.63l.03.54c4.5.16,1.15-1.18,5.2-.93l-1.68.82,2.1-.28-.41.63c2.27-.55,2.99-.48,5.24-.37-.54-.37.26-.99,2.25-1.07,1.37.28-.74.54,2.07.38-.62.36-1.31.8-2.55.34-.12.18-.62.36-.74.54,1.47.33,3.67-.02,4.69-.06-.39,0-.86-.02-1.11-.09l4.06-.87c.65.18.14.36-.36.54.83-.08,1.39-.35,2.6-.43-.3.45-.21.9-1.93,1.16l3.88-.6c.27.18,2.01.47,1.51.65,2.16.2,5.27-1.01,8.14-.75.15-.09.44-.18,1.05-.26,2.69.02,5.08.49,8.26-.2l1.83.76c2.49-.22-2.47-.95,1.68-1.32,2.94-.3,1.11.66,2.15.86,1.45-.42,3.98-1.27,6.7-.68-.89.16-1.6.06-2.43.13ZM221.96,5.62c-.6.12-1.78.47-2.22.15.67-.62,1.2-.33,2.22-.15ZM268.78,4.34c-.45.18-1.13.08-1.9-.13.56-.04,1.2-.02,1.9.13ZM399.36,4.74s-.04.01-.07.02c-1.32-.29-.85-.18.07-.02ZM402.11,5.13c.28-.06.27-.14.15-.22-.2.13-.82.1-1.53.02.19.15.54.27,1.37.2ZM104.97,4.5l.55.11c-1.21.22-.87.06-.55-.11Z"/>
      <path class="cls-1" d="M263.47,5.04c-.17-.09-.21-.19-.25-.3-.24.09-.24.19.25.3Z"/>
      <path class="cls-1" d="M172.05,7.1h-.09c-.05.03-.08.06-.09.1l.19-.1Z"/>
      <path class="cls-1" d="M359.09,7.59c-.56-.1-.88-.22-1.08-.33-.04.13.22.25,1.08.33Z"/>
      <path class="cls-1" d="M416.82,5.11h-1.78c.86.05,1.16.19,1.58.31-.03-.13-.36-.34.2-.31Z"/>
      <path class="cls-1" d="M431.94,9.56c.26-.05.55.03.81-.02l-.05-.26c-1.1-.06-1.89.09-.76.27Z"/>
      <path class="cls-1" d="M418.34,7.03c.11.46,1.23.39,2.47.39-.07,0-.15,0-.22-.02.41-.61-.93-.49-2.25-.38Z"/>
      <path class="cls-1" d="M421.1,7.43c.38,0,.77.02,1.15.07.16-.24-.46-.09-1.15-.07Z"/>
      <path class="cls-1" d="M405.64,5.03c.58.15.4-.56.73-.36.69-.54-3.97.48-.73.36Z"/>
      <polygon class="cls-1" points="419.24 8.6 418.83 8 418.11 8.41 419.24 8.6"/>
      <path class="cls-1" d="M409.49,7.52l1.97.27c-.02-.1.23-.14.54-.16-1.22-.09-2.55-.28-2.51-.11Z"/>
      <path class="cls-1" d="M412,7.63c.63.05,1.24.09,1.6.02-.34-.02-1.08-.05-1.6-.02Z"/>
      <polygon class="cls-1" points="416.52 8.57 415.95 8.41 414.55 8.27 416.52 8.57"/>
      <path class="cls-1" d="M388.21,6.21l-2.17.04c-.23.18.35.33,1.16.3.52-.1,1.33-.13,1.01-.34Z"/>
      <path class="cls-1" d="M394.66,8.12c-.58-.15-.61-.28-.93-.48l-.1.69,1.03-.21Z"/>
      <path class="cls-1" d="M388.35,7.92c-.23.18-3.16.38-.42.49.23-.18,2.4-.22.42-.49Z"/>
      <polygon class="cls-1" points="355.82 5.53 356.37 5.55 356.34 4.4 355.82 5.53"/>
      <path class="cls-1" d="M327.02,7.29c2.55.35.63-.69,2.93-.27.61-.25-1.88-.34-1.26-.55-1.55.24-2.36.05-1.67.83Z"/>
      <path class="cls-1" d="M328.69,6.47c.25-.04.51-.08.79-.15-.45.06-.66.11-.79.15Z"/>
      <polygon class="cls-1" points="4.43 12.36 2.76 12.31 3.86 12.57 4.43 12.36"/>
      <path class="cls-1" d="M1.38,13.56l-.48-.68-.9.77c.37-.07,1.08-.22,1.38-.09Z"/>
      <path class="cls-1" d="M226.55,7.06l.12-.18c-.26-.19-.64-.2-1.41-.23l1.29.4Z"/>
      <polygon class="cls-1" points="204.21 6.75 204.59 6.75 203.86 6.11 204.21 6.75"/>
      <path class="cls-1" d="M185.48,7.89c.77.01,1.66-.15,2.43-.13-1.66.15-2.65-.69-2.43.13Z"/>
    </g>
  </g>
</svg>