<svg xmlns="http://www.w3.org/2000/svg" viewBox="0 0 496.99 14.31">
  <defs>
    <style>
      .cls-underline {
        fill: #83ded8;
      }
    </style>
  </defs>
  <g >
    <g>
      <path class="cls-underline" d="M496.38,12.61c.73.1.49-.16.61-.19-1.23-.08-.59.26-.61.19Z"/>
      <polygon class="cls-underline" points="484.25 11.84 484.47 11.77 482.67 11.81 484.25 11.84"/>
      <path class="cls-underline" d="M472.97,10.62c1.03.51,4.09.38,6.09.74l.32.13.94-.22c-2.45-.21-5.64-.34-7.35-.64Z"/>
      <path class="cls-underline" d="M467.03,9.17c.36.19-1.32.02,1.4.17-.13-.03-.17-.04-.25-.06-.24-.02-.58-.06-1.15-.11Z"/>
      <path class="cls-underline" d="M468.18,9.28c1.19.09-.77-.2,0,0h0Z"/>
      <path class="cls-underline" d="M462.67,8.88h1.58c-.32-.12-1.71-.26-1.19-.29-1.62-.07-1.29.05-.39.29Z"/>
      <path class="cls-underline" d="M461.16,9.04h.82c-.14-.04-.35-.07-.82,0Z"/>
      <path class="cls-underline" d="M463.71,9.08l-1.74-.03c.22.08.23.22.8.03-.15.11.2.02.94,0Z"/>
      <path class="cls-underline" d="M464.68,9.23c.87.16,2,.32.42.32,3.01.21,2.59-.11-.42-.32Z"/>
      <path class="cls-underline" d="M472.35,10.97l1.16.24,1.03-.02c-.51.01-2.25-.35-2.19-.22Z"/>
      <path class="cls-underline" d="M452.92,7.81c-.11.08.51.27.62.39h1.17c-.59-.11-1.71-.26-1.78-.39Z"/>
      <path class="cls-underline" d="M453.53,8.2h-1.75c1.55.15,1.84.1,1.75,0Z"/>
      <polygon class="cls-underline" points="460.84 9.46 463.71 9.41 460.29 9.42 460.84 9.46"/>
      <polygon class="cls-underline" points="446.3 7.22 447.3 7.11 445.52 7.25 446.3 7.22"/>
      <path class="cls-underline" d="M441.9,6.86c.74-.11-.98-.35-.2-.39-1.2-.06-2.23.01-3.16.07.98,0,2.02.09,3.35.32Z"/>
      <path class="cls-underline" d="M436.99,6.62c.49,0,1-.04,1.56-.07-.52,0-1.04.02-1.56.07Z"/>
      <path class="cls-underline" d="M448.84,7.89c-.13-.06-.38-.22-1.34-.36l.66.3c.21.02.44.04.68.06Z"/>
      <path class="cls-underline" d="M448.18,7.84h-.02c-.74-.08-1.25-.13-1.47-.15.19.02.64.07,1.5.15Z"/>
      <path class="cls-underline" d="M449.01,7.91c-.06,0-.11-.01-.17-.02.06.03.1.04.17.02Z"/>
      <path class="cls-underline" d="M456.32,8.84c-1.03.04-3.16,0-1.13.38.74-.1-.42-.32,1.13-.38Z"/>
      <path class="cls-underline" d="M449.83,8.28l1.84.22c-.03-.07-.35-.19.16-.21h-1.99Z"/>
      <polygon class="cls-underline" points="448.93 8.28 449.83 8.28 449.15 8.2 448.93 8.28"/>
      <path class="cls-underline" d="M440.13,7.07c-.8.05-1.68,0-2.66-.06,1.05.12,2.14.23,3.17.3.15-.06.62-.17-.51-.24Z"/>
      <path class="cls-underline" d="M444.04,7.45c-.06,0-.13,0-.18,0,.11.03.19.04.18,0Z"/>
      <path class="cls-underline" d="M427.79,6.31c.05.02.1.04.15.05.01-.01.02-.03.04-.04l-.19-.02Z"/>
      <path class="cls-underline" d="M440.82,7.36c.79.1,1.27.08,1.72.05-.59-.03-1.22-.07-1.9-.1-.07.03-.08.05.17.06Z"/>
      <path class="cls-underline" d="M434.28,6.53c.41.08.87.16,1.36.23-.4-.1-1.21-.28-1.36-.23Z"/>
      <path class="cls-underline" d="M443.6,7.36s.08,0,.12,0c-.26-.07-.23-.05-.12,0Z"/>
      <path class="cls-underline" d="M443.6,7.36c-.41,0-.74.03-1.06.05.48.02.93.04,1.32.04-.1-.03-.19-.06-.26-.09Z"/>
      <path class="cls-underline" d="M424.74,7.64c.16-.21,2.25-.27,4.03.1,1.78-.04.68-.85-.84-1.37-.06.09-.07.18-1.9.18.63.17,4.02.57,2.47.66-2.42-.06-1.97-.22-3.13-.42.98.35-3.1.18-2.6.63h2.12c.04.07-.74.12-.16.22Z"/>
      <path class="cls-underline" d="M431.41,6.64l.75.03c-.85-.1-1.46-.23-2.57-.49-1.26.02-1.52.08-1.61.15l3.69.3h-.26Z"/>
      <path class="cls-underline" d="M435.52,6.9c-.6.2-2.41.17-1.33.51,2.2.14,1.56-.09,2.88-.1-3.55-.19,1.03-.06-1.52-.38.7,0,1.33.04,1.92.07-.64-.07-1.25-.16-1.83-.24.03,0,.05.01.08.02h.02s0,0,0,0c.15.04.2.06.03.03-.01,0-.06,0-.07,0-.03.03-.09.06-.17.08-1.02-.12-.16-.07.17-.08.01-.01.04-.02.05-.03h-.01s-3.57-.13-3.57-.13c.75.09,1.69.15,3.37.24Z"/>
      <path class="cls-underline" d="M453.25,9.58c-.11-.03-.1-.05-.11-.07-.23,0-.32.02.11.07Z"/>
      <path class="cls-underline" d="M451.8,9.3c.26-.01.48-.09,1.32.01.72.14-.01.12.02.2.51-.02,1.78-.02.21-.27h-.25c-1.42-.2-3.23-.66-2.98-.67.4.25.75.44,1.69.74Z"/>
      <path class="cls-underline" d="M443.56,8.1c-.99-.05-1.98-.1-2.97-.12l1.49.32-.07-.13c1.68.2,1.33.01,1.54-.07Z"/>
      <polygon class="cls-underline" points="427.46 6.17 427.87 5.94 426.13 6.18 427.46 6.17"/>
      <polygon class="cls-underline" points="423.61 5.92 423.76 5.71 422.74 5.77 423.61 5.92"/>
      <path class="cls-underline" d="M206.13,3.09l-.87.08c.41-.03.68-.05.87-.08Z"/>
      <path class="cls-underline" d="M212.44,3l.15-.11c-.29.07-.41.11-.15.11Z"/>
      <path class="cls-underline" d="M328.99,1.35c-1.26-.25-2.67-.61-2.53-.36l.38.26c.89-.02,1.57.03,2.14.1Z"/>
      <path class="cls-underline" d="M264.13,1.64c.12.02.25.05.37.08.31-.08.6-.16.86-.23-.37.05-.79.1-1.23.15Z"/>
      <path class="cls-underline" d="M263.23,2.64l-1.67-.17c.38.06.91.11,1.67.17Z"/>
      <path class="cls-underline" d="M171.7,4.03l-1.01.28c1.59-.05.89-.15,1.01-.28Z"/>
      <path class="cls-underline" d="M384.17,3.6c-1.09-.16-1.96-.25-2.72-.3,1.31.21,2.36.48,2.72.3Z"/>
      <path class="cls-underline" d="M208.58.47c-.53.05-.76.11-.74.16.55-.05.86-.1.74-.16Z"/>
      <path class="cls-underline" d="M378.28,3.16c.19.03.38.05.58.08.8,0,1.61-.01,2.59.06-.97-.16-2.08-.26-3.16-.14Z"/>
      <path class="cls-underline" d="M46.99,10.54c-.09,0-.2,0-.28,0-.02.04.1.03.28,0Z"/>
      <path class="cls-underline" d="M10.52,11.77c.35-.06.94-.12,1.48-.19-.27.01-.72.07-1.48.19Z"/>
      <path class="cls-underline" d="M408.13,4.77c.82.03.13-.02,0,0h0Z"/>
      <path class="cls-underline" d="M412.04,5.95c-.18.02-.31.04-.33.1.07-.05.19-.09.33-.1Z"/>
      <path class="cls-underline" d="M370.07,4.32s-.04,0-.07,0c.24.06.2.05.07,0Z"/>
      <path class="cls-underline" d="M409.35,4.95c-.3-.05-.66-.09-1.04-.13.17.03.48.07,1.04.13Z"/>
      <path class="cls-underline" d="M409.19,4.82c.28.03.5.05.71.06.11-.03.02-.07-.71-.06Z"/>
      <path class="cls-underline" d="M406.99,4.71c.47.02.9.06,1.32.1-.16-.03-.23-.04-.18-.05-.24-.01-.58-.03-1.14-.05Z"/>
      <path class="cls-underline" d="M113.72,5.34c-.05,0-.12,0-.18-.01-.82.15-.46.11.18.01Z"/>
      <path class="cls-underline" d="M307.66,3.32s.06,0,.09-.01c-.04,0-.09,0-.12-.01l.03.02Z"/>
      <path class="cls-underline" d="M304.72,3.45c1.26-.28,1.97-.23,2.91-.15l-.96-.72-1.96.87Z"/>
      <path class="cls-underline" d="M191.03,3.41l2.06.19c-2.48.4-4.28.31-2.34.58.28-.77,8.01-.21,8.28-.98l1.36.14c-.39,0-.45.04-.84.04,2.65.32,1.95-.58,5.36-.53,1.19.04,2.02.14,1.21.24l2.64-.23c.77,0,.58.14-.18.14l4.03-.13-.03.02c.57-.13,1.88-.34,2.51-.42,1.03.1-.51.08-.25.18l2.23-.19c.91.19-.94.39-2.48.37,2.09.75,1.85-.2,6.36.22l-2.11.11c1.36.43,3.01.26,5.39.52-.57-.14-4.78-.66-2.36-.86.68.05,1.58.08,2.89-.08.01.27,1.29.2,2.89.18l-.11.36c1.73-.11,1.59-.29,2.6-.46,1.92.03,2.33.3,2.78.54,3.08.04-2.13-.44,1.52-.52,2.56.13,4.36-.03,7.43-.26,1.79.12-.31.22.33.32l1.59-.29c.39,0,.26.09.2.14,1.34-.12.11-.36,2.22-.47.57-.41,4.32.58,6.93.15.64.11-.31.22-.11.36,3.58-.27,3.07-.19,6.01-.57l2.5.25c-1.84-.28.51-.59,2.57-.83-.65-.13-1.21-.25-1.58-.31l3.29-.17c.4.06.06.18-.47.33.22-.03.44-.06.6-.08,1.17.14.56.34-.28.54-.4-.08-.79-.15-1.18-.23-.81.21-1.57.45-1.41.66.21-.04.63-.07,1.08-.09-.21.06-.35.11-.25.15.11.04.45-.04.99-.13l.74.41.18-.16,4.29.28c3.08-.38,5.76-.96,10.64-1.09-1.21.28-.27.48-.34.83-1.33-.38-3.78.13-6.31.04,1.32.05,1.03.21.69.27l4.51-.3c-.11.28.96.22,2.13.35-.88-.58,3.37-.32,5.2-.46.11.19-.33.38-2.57.29,2.46.47,3.2-.6,5.62-.2-.55,0-.84-.04-1.06.05,1.28-.14,4.4.05,3.66.2h-.55c3.63.13,11.05.21,11.6-.26.04.06-.49.57-.71.66l6.51-1.48c-.58.4,1.59,1.42-1.43,1.59.86.07,1.93.16,3.75.05-.59-.07-1.46-.62-.65-.64,2.2.5,1.53.27,4.25.71-.88-.1.12-.74,1.51-.67-.22.09.1.64-.41.69l3.49-.52c-.87.09-.17.53.61.73-.36-.13,3,.1,3.93.07l-1.47-.19c3.92.22,3.9-.77,7.79-.62-.48.12-1.19.77.79.91.92-.3,4.06-1.43,7.52-1.57l.65.21,2.65-.13c-1.66.44-6.31,1.32-8.85,1.64,1.46.19.4.23,2.6.28.77.2-1.21.23-1.85.22l5.11.27c-.22-.38,3.93-.26,3.74-.58l-5.57.22c-.21-.38,3.25-.97,6.87-.79.92.18-.71.65-.64.78.48-.12,3.45-.14,3.78-.04l-1.55.15c2.01.2,3.31-.4,5.72.07.84.06,2.48.59,2.63.38-1.35-.49-1.56-1.83-.64-2.12.29.04,4.38.6,5.33.86,1.36.4-2.1.71-.94,1.06.05-.1.82-.2,1.14-.22.88.13-.38.3,1.53.34.33-.37,3.88.2.92-.28,1.87-.03,1.98.16,4.18.24-.69-.28,2.01-.76,3.88-.78-.11.09.3.24.5.3,3.83.2,5.88.46,9.45.62.32.1,2.04.3,1.3.43.52-.04.99-.14,2.1-.09,2.11.45-2.46-.09-.85.4.15-.21,2.86-.14,4.44-.19-.46-.37-3.62-.27-5.2-.22.02-.47,2.78-.81,6.52-.82,2.97.05,1.27.38,1.79.34,5.57.4,4.79-.56,9.4.05,1.82.41.05.6.44.84-2.42-.02-3.7-.4-5.34-.48l2.01.26c-.77.06-2.39.04-3.26-.1,1.52.36,9.41.59,13.69,1.08.77-.06,2.09-.09,1.48-.24l-1.36-.04c-1.24-.31,2.58-.19.87-.4,1.83-.06,3.9-.24,6.46.09l.46.38c-.05-.1-1.66-.32-2.39-.27,1.08-.08,3.9.75,5.11.38l-1.78-.37c1.84-.04,4.13-.24,6.4.03-1.01-.41-.53,0-2.12-.51,1.37.59-5.82-.44-3.6.24-1.63-.57-2.86-.42-5-.93.06.12.76.26-1.15.1-.09.03-.29.06-.43.08-.06,0-.08,0-.13-.02.04,0,.07.01.1.02-.08.01-.09.02.04,0,.45.08.82.16.96.23-.97.21-4,.03-5.04.1-1.13-.12.48-.1-.13-.26l-1.55.11c-.14-.26-2.99-.59-.31-.59l-2.4-.15c-1.41-.22-3.35-.39-4.56-.35-1.13-.12-2.88.12-1.88-.02l-3.78-.06-.03-.06c-3.72-.23-7.68-.04-11.92-.69-1.26,0-2.56.03-4.65-.13l-.4-.24c-1.61,0-4.82-.43-5.53-.23-1.71-.66-7.81-.47-10.63-.69l-.12.28c-1.95-.1-3.82-.1-6.24-.09l.14.26c-2.09.1-5.36-.38-8.66-.45.23-.09,1.06-.04,1.65.04-3.92-.69-8.33.16-11.89-.37-.89.06-1.54.01-2.16-.07.08,0,.16,0,.22,0-.09,0-.23,0-.37-.01-.39-.05-.8-.11-1.23-.17.37.07.73.13,1.04.17-.69-.02-1.73-.02-2.75.01l-.43-.28c-.08,0-.15,0-.24,0-1-.13-.81.1-.28.32-.52.03-.99.07-1.36.12-.8-.46-2.68.06-3.78-.44-.69.21-5.14.01-5.7.48-.03-.06-.33-.1.22-.09-1.14-.08-2.27-.15-3.3-.04l-.48-.35-2.5.42c-1.51-.24-2.13-.37-.62-.61-3.63.34-2.94.1-6.03.44l.15-.22c-1.1-.01-2.87.25-3.53.06-2.46-.46-12.19-.3-18.5-.78,1.22.66-2.94-.31-3.19.19-.37-.16-1.25-.25-.22-.38-3.23.13-4.85-.28-7.08.13-.37-.16.69-.22.36-.32-.26.03-1.03.13-1.36.03-.33-.09.47-.13.99-.19-3.3,0-3.64.48-3.88.92-1.67-.22-2.5-.2-3.71.08-.58-.15-1.55-.31.5-.35-1.15-.03-7.04-.27-7.16.09-.36-.09-1.61-.04-1.91,0-2.59-.04-2.81-.07-5.35-.06l.7.06c-1,.42-2.11.09-4.16.15l.06-.04c-4.69-.29-2.03.16-6.66-.18l.25.27c-.43.58-4.1-.32-6.79-.09l.97.15c-1.47.2-4.11-.77-5.58-.84-.32-.05.51-.08.96-.12-3.86-.32-.5.36-3.37.45-.53-.19.68-.49-1.26-.51-.97-.15-5.61.64-8.25.29.58.14,1.16.29-.17.4-2.05.06-5.54-.47-7.39.02-.26-.04-.36-.07-.37-.11-1.56.14-5.08.28-6.02.55-1.46-.91-9.72.61-9.7-.25l-4.81.12.12-.09c-3.08,0-4.16.22-5.24.44-.71-.05-.2-.14-.14-.18-4.5-.07-4.95,0-8.7.53l-.4-.27c-1.02.19-6.51-.25-10.91.2.04-.03.13-.09.48-.14-4.95.47-11.9-.43-13.68.64l-3.26.38c4.23-.1-.61.47,1.13.56-1.66.13-4.31-.12-2.27-.26l.32.04c.73-.56-5.27.03-5.17-.33-8.33.38-16.46.42-24.26.74l.92.36-2.72.13c-.72-.06-.97-.27.97-.36-1.03-.17-3.24.38-3.29.47-3.81.05,1.46-.56.29-.51l-1.58.12.36.03c-1.27.24-1.38.42-3.71.54-1.48,0-.77-.21-1.35-.19,0-.03-.2-.03-.89.04l-3.43.16,1.39.25c-1.51.25-3.22.17-1.62.44-2.35-.43-12.79.52-14.23.43-2.11.34-4.21.53-6.81.67.65.02,1.06.36-1.18.47.77-.81-4.13-.03-5.98-.43,1.64.24-6.37.55-3.79.88-1.87.08-.13-.27-1.57-.35-4.43.64-9.83.47-15.31,1.08-.08.11.86.17-.31.43l-2.94-.23c-1.08.15-.95.66-2.96.5.29.06.72.14,0,.24-5.4.25-10.89.86-16.41,1.41-5.51.56-11.03,1.26-16.54,1.41,1.5.02.52.15-.61.29.74-.04.01.24.17.36l-4.61.15c-.79.46-4.89.58-5.33.99l1.44-.23c-1.87.63,2.8.62,2.59,1.18,2.09-.72,5.75.06,9.2-1.02.79.02-.64.25-.21.32.87-.33,1.94-.5,3.96-.63l-.22.08c2.81-.35,4.82-.53,6.92-.7,2.11-.13,4.3-.27,7.47-.46l-.49-.22c1.36-.09,1.66-.03,2.3-.02,1.52-.54-3.82.33-2.44-.25,1.86.37,9.59-.87,10.87-.37,2.09-.19-.64-.25,1.45-.44l.57.11.51-.26c1.38-.09,2.08.05,2.15.19-.33.01-.94.13-1.3.17,1.8.03,5.01-.53,5.63-.52l-2.02.08c1.42-.17,2.93-.32,4.47-.47,1.55-.12,3.13-.23,4.7-.35,3.15-.24,6.28-.49,9.03-.87l-.43-.09c4.2-.54,3.39-.11,8.02-.55l-.17.04c.92-.19,2.15-.35,3.42-.42-1.16.23,2.22.12.7.4,4.56-.58,2.25-.37,5.24-1.04l.71.17c1.02-.25,1.1-.35,3.41-.54-1.89.29,1.5.23-.62.59,4.89.18,7.19-.87,9.46-.33,2.2-.7-4.23-.08-2.98-.28-1.06-.13,1.82-.53,3.35-.56,1.55-.08,2.68.59,6.59.35-.39.02-.41.06-.8.08,1.47.06,2.85-.36,4.66-.22.99-.4,2.33-.11,2.6-.57l-3.58.31c2.03-.23,3.9-.86,7.26-.8-.26.1-1.25.28-1.93.38.99.08,1.88-.2,2.9-.11-.27.45-4.35.34-6.51.8,1.06.13,4.1-.55,3.03-.01,1.54-.71,3.85-.14,6.48-.71l-.16.27c.42-.06,1.28-.22,2.05-.25l-1.38.4c2.13-.38,4.14.08,6.19-.16-4.3.19-.98-.28-2.81-.4,5.29-.58,3.08.57,9.02.19-.8.07-3.03-.03-1.77-.21,1.13,0,2.63.05,3.33.16,3.94-.22-.62-.25,1.05-.48,1.35.27,1.93-.21,3.65-.39l.02.27c4.49-.02,1.17-.61,5.22-.57l-1.69.45,2.1-.19-.42.33c2.28-.32,3-.31,5.25-.29-.53-.18.28-.5,2.27-.57,1.36.12-.75.28,2.07.16-.63.19-1.32.42-2.56.21-.12.09-.62.19-.75.28,1.47.14,3.67-.06,4.69-.1-.39,0-.86,0-1.11-.03l4.07-.49c.65.08.14.18-.36.27.83-.05,1.4-.19,2.61-.25-.31.23-.23.45-1.94.61l3.89-.36c.26.09,2.01.21,1.5.3,2.16.07,5.28-.58,8.15-.49.15-.05.44-.1,1.05-.15,2.69-.03,5.08.17,8.26-.22l1.82.36c2.5-.13-2.46-.46,1.69-.67,2.94-.17,1.11.32,2.14.41,1.46-.22,4-.67,6.71-.39-.89.09-1.6.04-2.43.09ZM221.83,2.82c-.6.06-1.78.24-2.22.08.68-.31,1.2-.17,2.22-.08ZM268.66,2.19c-.44.09-1.13.04-1.9-.07.56-.02,1.2,0,1.9.07ZM399.16,4.48s-.04,0-.06,0c-1.32-.18-.85-.11.06,0ZM401.92,4.75c.28-.02.26-.06.15-.11-.2.06-.82.03-1.52-.03.19.08.55.15,1.38.14ZM104.9,4.01l.54.04c-1.21.15-.87.06-.54-.04Z"/>
      <path class="cls-underline" d="M263.35,2.52c-.17-.05-.21-.1-.25-.15-.23.04-.24.1.25.15Z"/>
      <path class="cls-underline" d="M171.88,3.98h-.09c-.05.02-.08.03-.09.05l.19-.05Z"/>
      <path class="cls-underline" d="M359.01,4.91c-.57-.06-.88-.13-1.09-.19-.03.06.22.13,1.09.19Z"/>
      <path class="cls-underline" d="M416.59,5.19l-1.77-.06c.86.05,1.16.13,1.59.2-.04-.07-.37-.18.19-.15Z"/>
      <path class="cls-underline" d="M431.81,7.96c.26-.01.55.04.81.02l-.06-.13c-1.1-.07-1.88-.02-.74.11Z"/>
      <path class="cls-underline" d="M418.16,6.21c.12.24,1.24.24,2.48.29l-.22-.02c.39-.29-.94-.28-2.26-.27Z"/>
      <path class="cls-underline" d="M420.93,6.5c.38.02.77.04,1.15.08.15-.12-.46-.06-1.15-.08Z"/>
      <path class="cls-underline" d="M405.43,4.8c.58.09.39-.27.71-.16.67-.25-3.94.13-.71.16Z"/>
      <polygon class="cls-underline" points="419.12 7.03 418.69 6.71 417.98 6.89 419.12 7.03"/>
      <path class="cls-underline" d="M409.35,6.16l1.98.19s.23-.06.54-.07c-1.22-.08-2.55-.21-2.51-.12Z"/>
      <path class="cls-underline" d="M411.86,6.28c.63.05,1.24.09,1.6.07-.34-.02-1.08-.07-1.6-.07Z"/>
      <polygon class="cls-underline" points="416.41 6.92 415.83 6.82 414.43 6.7 416.41 6.92"/>
      <path class="cls-underline" d="M388.07,4.9l-2.17-.04c-.23.08.36.18,1.17.18.52-.04,1.32-.03,1-.14Z"/>
      <path class="cls-underline" d="M394.56,6.04c-.58-.09-.62-.16-.94-.27l-.09.34,1.03-.08Z"/>
      <path class="cls-underline" d="M388.26,5.76c-.22.08-3.15.1-.41.23.22-.08,2.39-.04.41-.23Z"/>
      <polygon class="cls-underline" points="355.71 3.81 356.26 3.83 356.2 3.25 355.71 3.81"/>
      <path class="cls-underline" d="M326.94,4.21c2.56.22.62-.33,2.93-.09.61-.12-1.89-.2-1.27-.3-1.55.09-2.36-.01-1.66.39Z"/>
      <path class="cls-underline" d="M328.6,3.82c.25-.02.51-.04.79-.06-.45.02-.66.04-.79.06Z"/>
      <polygon class="cls-underline" points="4.47 12.15 2.82 12.22 3.9 12.29 4.47 12.15"/>
      <path class="cls-underline" d="M1.38,12.93l-.43-.32-.94.44c.37-.06,1.08-.17,1.38-.12Z"/>
      <path class="cls-underline" d="M226.41,3.53l.13-.09c-.26-.09-.64-.1-1.41-.11l1.29.2Z"/>
      <polygon class="cls-underline" points="204.06 3.48 204.44 3.48 203.72 3.17 204.06 3.48"/>
      <path class="cls-underline" d="M185.31,4.21c.77,0,1.66-.09,2.43-.09-1.67.09-2.65-.32-2.43.09Z"/>
    </g>
  </g>
</svg>